<svg width="75" height="20" viewBox="0 0 75 20" fill="none" xmlns="http://www.w3.org/2000/svg">
  <mask id="mask0_217_135" style="mask-type:luminance" maskUnits="userSpaceOnUse" x="0" y="0"
    width="75" height="20">
    <path
      d="M72 0H3C1.34315 0 0 1.34315 0 3V17C0 18.6569 1.34315 20 3 20H72C73.6569 20 75 18.6569 75 17V3C75 1.34315 73.6569 0 72 0Z"
      fill="white" />
  </mask>
  <g mask="url(#mask0_217_135)">
    <path d="M75 0H0V20H75V0Z" fill="black" />
    <path d="M75 0H0V20H75V0Z" fill="url(#paint0_linear_217_135)" />
  </g>
  <g>
    <text fill="#010101" fill-opacity="0.3" xml:space="preserve" style="white-space: pre"
      font-family="Inter" font-size="11" letter-spacing="0em"><tspan font-family="Verdana,Geneva,DejaVu Sans,sans-serif" x="22.0298" y="14.5">Codepen</tspan></text>
    <text fill="white" xml:space="preserve" style="white-space: pre" font-family="Inter"
      font-size="11" letter-spacing="0em"><tspan font-family="Verdana,Geneva,DejaVu Sans,sans-serif" x="22.0298" y="13.5">Codepen</tspan></text>
    <path
      d="M15.584 10.6224V9.37758L14.6542 10L15.584 10.6224ZM16.3283 11.3189C16.3282 11.3351 16.3271 11.3513 16.3248 11.3673L16.3219 11.3837L16.3155 11.4146L16.3097 11.4327C16.3067 11.442 16.3038 11.4507 16.2997 11.4601L16.2916 11.4776C16.2878 11.4861 16.2837 11.4944 16.2793 11.5027L16.2682 11.5202C16.2549 11.5413 16.2393 11.5609 16.2216 11.5785L16.2064 11.5931C16.1996 11.5992 16.1926 11.605 16.1854 11.6106L16.1685 11.6234L16.1627 11.6281L12.2065 14.2659C12.1454 14.3068 12.0735 14.3286 12 14.3286C11.9265 14.3286 11.8546 14.3068 11.7935 14.2659L7.83733 11.6275L7.8315 11.6228C7.81817 11.6136 7.8055 11.6035 7.79358 11.5925L7.77842 11.5779L7.75975 11.5581L7.7475 11.5417C7.73216 11.5219 7.71906 11.5003 7.70842 11.4776L7.70025 11.4595C7.69659 11.4505 7.69328 11.4413 7.69033 11.4321L7.6845 11.4146C7.68217 11.4041 7.67983 11.3936 7.67867 11.3831L7.67517 11.3667C7.67293 11.3507 7.67176 11.3345 7.67167 11.3183V8.68108C7.67167 8.66475 7.67283 8.649 7.67517 8.63267L7.67808 8.61692L7.6845 8.58542L7.69033 8.56792C7.70416 8.52113 7.72806 8.47792 7.76033 8.44133L7.77842 8.4215L7.79358 8.40692C7.80553 8.39597 7.8182 8.38583 7.8315 8.37658L7.83733 8.37192L11.7935 5.73467C11.8546 5.69389 11.9265 5.67212 12 5.67212C12.0735 5.67212 12.1454 5.69389 12.2065 5.73467L16.1627 8.37192L16.1685 8.37658L16.186 8.38942L16.2064 8.40692C16.2122 8.41158 16.2163 8.41625 16.2216 8.4215C16.2394 8.43904 16.255 8.45862 16.2682 8.47983L16.2793 8.49733C16.2837 8.50554 16.2878 8.5139 16.2916 8.52242L16.2997 8.53992C16.3038 8.54925 16.3067 8.55858 16.3097 8.56733L16.3155 8.58542C16.3178 8.59592 16.3202 8.60642 16.3213 8.61692L16.3248 8.63267C16.3271 8.64871 16.3283 8.66488 16.3283 8.68108V11.3189ZM12 3C8.13425 3 5 6.13367 5 10C5 13.8657 8.13425 17 12 17C15.8663 17 19 13.8663 19 10C19 6.13425 15.8663 3 12 3ZM12 9.12033L10.6846 10L12 10.8808L13.3154 10L12 9.12033ZM12.3722 11.526V13.2614L15.2865 11.3189L13.9845 10.448L12.3722 11.526ZM8.7135 11.3183L11.6278 13.2608V11.526L10.0155 10.4474L8.7135 11.3183ZM15.2865 8.68167L12.3722 6.73917V8.474L13.9845 9.55317L15.2865 8.68167ZM11.6278 8.474V6.73917L8.7135 8.68167L10.0155 9.55258L11.6278 8.474ZM8.416 9.37758V10.6224L9.34583 10L8.416 9.37758Z"
      fill="white" />
  </g>
  <defs>
    <linearGradient id="paint0_linear_217_135" x1="0" y1="0" x2="0" y2="400"
      gradientUnits="userSpaceOnUse">
      <stop stop-color="#BBBBBB" stop-opacity="0.1" />
      <stop offset="1" stop-opacity="0.1" />
    </linearGradient>
  </defs>
</svg>
