<svg width="62" height="28" viewBox="0 0 62 28" fill="none" xmlns="http://www.w3.org/2000/svg">
<g clip-path="url(#clip0_220_154)">
<path d="M47.5 0H14C6.26801 0 0 6.26801 0 14C0 21.732 6.26801 28 14 28H47.5C55.232 28 61.5 21.732 61.5 14C61.5 6.26801 55.232 0 47.5 0Z" fill="#239120"/>
<path d="M42.5422 13.2734H40.9868C40.9584 13.0722 40.9004 12.8935 40.8128 12.7372C40.7252 12.5786 40.6127 12.4437 40.4754 12.3324C40.3381 12.2211 40.1795 12.1359 39.9996 12.0767C39.822 12.0175 39.6291 11.9879 39.4207 11.9879C39.0443 11.9879 38.7164 12.0814 38.4371 12.2685C38.1577 12.4531 37.9411 12.723 37.7872 13.0781C37.6333 13.4309 37.5564 13.8594 37.5564 14.3636C37.5564 14.8821 37.6333 15.3177 37.7872 15.6705C37.9434 16.0232 38.1613 16.2895 38.4406 16.4695C38.72 16.6494 39.0431 16.7393 39.4101 16.7393C39.616 16.7393 39.8066 16.7121 39.9818 16.6577C40.1594 16.6032 40.3168 16.5239 40.4541 16.4197C40.5914 16.3132 40.705 16.1842 40.795 16.0327C40.8873 15.8812 40.9513 15.7083 40.9868 15.5142L42.5422 15.5213C42.5019 15.8551 42.4013 16.1771 42.2403 16.4872C42.0817 16.795 41.8675 17.0708 41.5976 17.3146C41.33 17.5561 41.0104 17.7479 40.6388 17.8899C40.2694 18.0296 39.8516 18.0994 39.3852 18.0994C38.7365 18.0994 38.1565 17.9527 37.6452 17.6591C37.1362 17.3655 36.7337 16.9406 36.4378 16.3842C36.1442 15.8279 35.9974 15.1544 35.9974 14.3636C35.9974 13.5705 36.1466 12.8958 36.4449 12.3395C36.7432 11.7831 37.148 11.3594 37.6594 11.0682C38.1707 10.7746 38.746 10.6278 39.3852 10.6278C39.8066 10.6278 40.1972 10.687 40.5571 10.8054C40.9193 10.9238 41.2401 11.0966 41.5194 11.3239C41.7988 11.5488 42.0261 11.8246 42.2013 12.1513C42.3788 12.478 42.4925 12.852 42.5422 13.2734ZM46.3721 18L47.5653 10.7273H48.7016L47.5084 18H46.3721ZM43.1157 16.196L43.3039 15.0597H48.9857L48.7975 16.196H43.1157ZM43.8153 18L45.0084 10.7273H46.1448L44.9516 18H43.8153ZM43.5312 13.6676L43.7229 12.5312H49.4047L49.213 13.6676H43.5312Z" fill="white"/>
<path d="M17 6C14.8783 6 12.8434 6.84285 11.3431 8.34315C9.84285 9.84344 9 11.8783 9 14C9 16.1217 9.84285 18.1566 11.3431 19.6569C12.8434 21.1571 14.8783 22 17 22C19.1217 22 21.1566 21.1571 22.6569 19.6569C24.1571 18.1566 25 16.1217 25 14C25 11.8783 24.1571 9.84344 22.6569 8.34315C21.1566 6.84285 19.1217 6 17 6ZM15.284 10.7467C15.7369 10.7494 16.1854 10.8353 16.6073 11V11.7873C16.1489 11.5326 15.6317 11.4025 15.1073 11.41C14.7808 11.3991 14.4558 11.4582 14.154 11.5832C13.8522 11.7081 13.5806 11.8962 13.3573 12.1347C12.8894 12.6683 12.6474 13.3631 12.6827 14.072C12.6478 14.7424 12.8735 15.4003 13.3127 15.908C13.5231 16.1341 13.7799 16.3121 14.0655 16.4298C14.351 16.5476 14.6587 16.6022 14.9673 16.59C15.5435 16.6043 16.1123 16.458 16.61 16.1673L16.6073 16.8873C16.0631 17.1521 15.4622 17.2792 14.8573 17.2573C14.4577 17.2748 14.059 17.2067 13.6879 17.0576C13.3167 16.9085 12.9817 16.6818 12.7053 16.3927C12.1494 15.7698 11.8594 14.954 11.8973 14.12C11.878 13.6728 11.9486 13.2263 12.1049 12.8068C12.2612 12.3874 12.5001 12.0035 12.8073 11.678C13.1075 11.3708 13.4684 11.1296 13.8671 10.9698C14.2658 10.81 14.6934 10.7351 15.1227 10.75C15.1493 10.7488 15.176 10.7479 15.2027 10.7473C15.2298 10.747 15.2569 10.7464 15.284 10.7467ZM19.1927 10.85H19.75L19.38 12.618H20.4873L20.8653 10.85H21.4053L21.0353 12.618L22.19 12.6153L22.09 13.08H20.94L20.6653 14.4H21.9L21.7827 14.8653H20.572L20.1853 16.6153H19.632L20.01 14.8653H18.91L18.54 16.6153H18L18.37 14.8653H17.21L17.2973 14.4H18.4627L18.73 13.0827H17.5127L17.6047 12.618H18.822L19.1927 10.85ZM19.2873 13.08L19 14.4H20.1153L20.3973 13.08H19.2873Z" fill="white"/>
</g>
<defs>
<clipPath id="clip0_220_154">
<rect width="61.5" height="28" fill="white"/>
</clipPath>
</defs>
</svg>
