<svg width="77" height="28" viewBox="0 0 77 28" fill="none" xmlns="http://www.w3.org/2000/svg">
<g clip-path="url(#clip0_220_304)">
<path d="M63 0H14C6.26801 0 0 6.26801 0 14C0 21.732 6.26801 28 14 28H63C70.732 28 77 21.732 77 14C77 6.26801 70.732 0 63 0Z" fill="#1572B6"/>
<path d="M42.4406 13.2734H40.8852C40.8568 13.0722 40.7988 12.8935 40.7112 12.7372C40.6236 12.5786 40.5112 12.4437 40.3738 12.3324C40.2365 12.2211 40.0779 12.1359 39.898 12.0767C39.7204 12.0175 39.5275 11.9879 39.3192 11.9879C38.9427 11.9879 38.6148 12.0814 38.3355 12.2685C38.0561 12.4531 37.8395 12.723 37.6856 13.0781C37.5318 13.4309 37.4548 13.8594 37.4548 14.3636C37.4548 14.8821 37.5318 15.3177 37.6856 15.6705C37.8419 16.0232 38.0597 16.2895 38.339 16.4695C38.6184 16.6494 38.9416 16.7393 39.3085 16.7393C39.5145 16.7393 39.705 16.7121 39.8802 16.6577C40.0578 16.6032 40.2152 16.5239 40.3525 16.4197C40.4898 16.3132 40.6035 16.1842 40.6934 16.0327C40.7858 15.8812 40.8497 15.7083 40.8852 15.5142L42.4406 15.5213C42.4004 15.8551 42.2997 16.1771 42.1388 16.4872C41.9801 16.795 41.7659 17.0708 41.496 17.3146C41.2285 17.5561 40.9089 17.7479 40.5372 17.8899C40.1679 18.0296 39.75 18.0994 39.2836 18.0994C38.635 18.0994 38.055 17.9527 37.5436 17.6591C37.0346 17.3655 36.6321 16.9406 36.3362 16.3842C36.0426 15.8279 35.8959 15.1544 35.8959 14.3636C35.8959 13.5705 36.045 12.8958 36.3433 12.3395C36.6416 11.7831 37.0464 11.3594 37.5578 11.0682C38.0692 10.7746 38.6444 10.6278 39.2836 10.6278C39.705 10.6278 40.0957 10.687 40.4555 10.8054C40.8177 10.9238 41.1385 11.0966 41.4179 11.3239C41.6972 11.5488 41.9245 11.8246 42.0997 12.1513C42.2773 12.478 42.3909 12.852 42.4406 13.2734ZM47.4885 12.8189C47.4601 12.5324 47.3382 12.3099 47.1228 12.1513C46.9073 11.9927 46.615 11.9134 46.2456 11.9134C45.9947 11.9134 45.7828 11.9489 45.61 12.0199C45.4372 12.0885 45.3046 12.1844 45.2123 12.3075C45.1223 12.4306 45.0773 12.5703 45.0773 12.7266C45.0726 12.8568 45.0998 12.9704 45.159 13.0675C45.2206 13.1645 45.3046 13.2486 45.4111 13.3196C45.5177 13.3883 45.6408 13.4486 45.7805 13.5007C45.9201 13.5504 46.0693 13.593 46.2279 13.6286L46.8813 13.7848C47.1985 13.8558 47.4897 13.9505 47.7549 14.0689C48.02 14.1873 48.2497 14.3329 48.4438 14.5057C48.6379 14.6785 48.7883 14.8821 48.8948 15.1165C49.0037 15.3509 49.0593 15.6196 49.0617 15.9226C49.0593 16.3677 48.9457 16.7536 48.7208 17.0803C48.4983 17.4046 48.1763 17.6567 47.7549 17.8366C47.3358 18.0142 46.8304 18.103 46.2385 18.103C45.6514 18.103 45.1401 18.013 44.7045 17.8331C44.2712 17.6532 43.9327 17.3868 43.6888 17.0341C43.4474 16.679 43.3207 16.2398 43.3089 15.7166H44.7968C44.8134 15.9605 44.8832 16.1641 45.0063 16.3274C45.1318 16.4884 45.2987 16.6103 45.507 16.6932C45.7177 16.7737 45.9556 16.8139 46.2208 16.8139C46.4812 16.8139 46.7073 16.776 46.8991 16.7003C47.0932 16.6245 47.2435 16.5192 47.3501 16.3842C47.4566 16.2493 47.5099 16.0942 47.5099 15.919C47.5099 15.7557 47.4613 15.6184 47.3643 15.5071C47.2696 15.3958 47.1299 15.3011 46.9452 15.223C46.7629 15.1449 46.5392 15.0739 46.2741 15.0099L45.4822 14.8111C44.869 14.6619 44.3849 14.4287 44.0297 14.1115C43.6746 13.7943 43.4983 13.367 43.5006 12.8295C43.4983 12.3892 43.6154 12.0045 43.8522 11.6754C44.0913 11.3464 44.4192 11.0895 44.8358 10.9048C45.2525 10.7202 45.726 10.6278 46.2563 10.6278C46.7961 10.6278 47.2672 10.7202 47.6697 10.9048C48.0745 11.0895 48.3894 11.3464 48.6143 11.6754C48.8392 12.0045 48.9552 12.3857 48.9623 12.8189H47.4885ZM54.0413 12.8189C54.0129 12.5324 53.891 12.3099 53.6755 12.1513C53.4601 11.9927 53.1677 11.9134 52.7984 11.9134C52.5474 11.9134 52.3356 11.9489 52.1627 12.0199C51.9899 12.0885 51.8573 12.1844 51.765 12.3075C51.675 12.4306 51.6301 12.5703 51.6301 12.7266C51.6253 12.8568 51.6526 12.9704 51.7117 13.0675C51.7733 13.1645 51.8573 13.2486 51.9639 13.3196C52.0704 13.3883 52.1935 13.4486 52.3332 13.5007C52.4729 13.5504 52.622 13.593 52.7806 13.6286L53.434 13.7848C53.7513 13.8558 54.0425 13.9505 54.3076 14.0689C54.5728 14.1873 54.8024 14.3329 54.9965 14.5057C55.1907 14.6785 55.341 14.8821 55.4475 15.1165C55.5564 15.3509 55.6121 15.6196 55.6144 15.9226C55.6121 16.3677 55.4984 16.7536 55.2735 17.0803C55.051 17.4046 54.729 17.6567 54.3076 17.8366C53.8886 18.0142 53.3831 18.103 52.7913 18.103C52.2042 18.103 51.6928 18.013 51.2572 17.8331C50.824 17.6532 50.4854 17.3868 50.2416 17.0341C50.0001 16.679 49.8734 16.2398 49.8616 15.7166H51.3495C51.3661 15.9605 51.4359 16.1641 51.559 16.3274C51.6845 16.4884 51.8514 16.6103 52.0597 16.6932C52.2704 16.7737 52.5084 16.8139 52.7735 16.8139C53.0339 16.8139 53.26 16.776 53.4518 16.7003C53.6459 16.6245 53.7963 16.5192 53.9028 16.3842C54.0093 16.2493 54.0626 16.0942 54.0626 15.919C54.0626 15.7557 54.0141 15.6184 53.917 15.5071C53.8223 15.3958 53.6826 15.3011 53.498 15.223C53.3157 15.1449 53.0919 15.0739 52.8268 15.0099L52.0349 14.8111C51.4217 14.6619 50.9376 14.4287 50.5825 14.1115C50.2274 13.7943 50.051 13.367 50.0534 12.8295C50.051 12.3892 50.1682 12.0045 50.4049 11.6754C50.644 11.3464 50.9719 11.0895 51.3886 10.9048C51.8052 10.7202 52.2787 10.6278 52.809 10.6278C53.3488 10.6278 53.8199 10.7202 54.2224 10.9048C54.6272 11.0895 54.9421 11.3464 55.167 11.6754C55.3919 12.0045 55.5079 12.3857 55.515 12.8189H54.0413ZM59.2943 18.0994C58.764 18.0994 58.2917 18.0083 57.8774 17.826C57.4655 17.6413 57.1399 17.388 56.9008 17.0661C56.6641 16.7417 56.5422 16.3677 56.5351 15.9439H58.0834C58.0928 16.1214 58.1508 16.2777 58.2574 16.4126C58.3663 16.5452 58.5107 16.6482 58.6906 16.7216C58.8705 16.795 59.0729 16.8317 59.2979 16.8317C59.5322 16.8317 59.7394 16.7902 59.9193 16.7074C60.0992 16.6245 60.2401 16.5097 60.3419 16.3629C60.4437 16.2161 60.4946 16.0469 60.4946 15.8551C60.4946 15.661 60.4401 15.4893 60.3312 15.3402C60.2247 15.1887 60.0708 15.0703 59.8696 14.9851C59.6707 14.8999 59.434 14.8572 59.1594 14.8572H58.4811V13.728H59.1594C59.3914 13.728 59.5961 13.6877 59.7737 13.6072C59.9536 13.5268 60.0933 13.4155 60.1927 13.2734C60.2922 13.129 60.3419 12.9609 60.3419 12.7692C60.3419 12.5869 60.2981 12.4271 60.2105 12.2898C60.1253 12.1501 60.0045 12.0412 59.8483 11.9631C59.6944 11.8849 59.5145 11.8459 59.3085 11.8459C59.1002 11.8459 58.9096 11.8838 58.7368 11.9595C58.564 12.0329 58.4255 12.1383 58.3213 12.2756C58.2171 12.4129 58.1615 12.5739 58.1544 12.7585H56.6807C56.6878 12.3395 56.8073 11.9702 57.0393 11.6506C57.2713 11.331 57.5838 11.0812 57.9768 10.9013C58.3722 10.719 58.8184 10.6278 59.3156 10.6278C59.8175 10.6278 60.2567 10.719 60.6331 10.9013C61.0095 11.0836 61.3019 11.3298 61.5102 11.6399C61.7209 11.9477 61.8251 12.2933 61.8227 12.6768C61.8251 13.084 61.6984 13.4238 61.4427 13.696C61.1894 13.9683 60.8592 14.1411 60.452 14.2145V14.2713C60.987 14.34 61.3942 14.5258 61.6736 14.8288C61.9553 15.1295 62.095 15.5059 62.0926 15.9581C62.095 16.3724 61.9754 16.7405 61.7339 17.0625C61.4948 17.3845 61.1646 17.6378 60.7432 17.8224C60.3218 18.0071 59.8388 18.0994 59.2943 18.0994Z" fill="white"/>
<path d="M13 6H27L25.7267 20.3753L19.9847 22L14.2747 20.3747L13 6ZM24.3933 8.942L15.6067 8.94L15.7487 10.688L22.4987 10.6893L22.3287 12.5H17.902L18.062 14.2153H22.1833L21.9393 16.564L19.9993 17.1L18.0287 16.56L17.9033 15.1533H16.1633L16.3567 17.7233L20 18.8587L23.582 17.8387L24.3933 8.942Z" fill="white"/>
</g>
<defs>
<clipPath id="clip0_220_304">
<rect width="77" height="28" fill="white"/>
</clipPath>
</defs>
</svg>
