<svg width="69" height="20" viewBox="0 0 69 20" fill="none" xmlns="http://www.w3.org/2000/svg">
  <mask id="mask0_214_94" style="mask-type:luminance" maskUnits="userSpaceOnUse" x="0" y="0"
    width="69" height="20">
    <path
      d="M66 0H3C1.34315 0 0 1.34315 0 3V17C0 18.6569 1.34315 20 3 20H66C67.6569 20 69 18.6569 69 17V3C69 1.34315 67.6569 0 66 0Z"
      fill="white" />
  </mask>
  <g mask="url(#mask0_214_94)">
    <path d="M69 0H0V20H69V0Z" fill="#7289DA" />
    <path d="M69 0H0V20H69V0Z" fill="url(#paint0_linear_214_94)" />
  </g>
  <g>
    <text fill="#010101" fill-opacity="0.3" xml:space="preserve" style="white-space: pre"
      font-family="Inter" font-size="11" letter-spacing="0em"><tspan font-family="Verdana,Geneva,DejaVu Sans,sans-serif" x="22.7432" y="14.5">Discord</tspan></text>
    <text fill="white" xml:space="preserve" style="white-space: pre" font-family="Inter"
      font-size="11" letter-spacing="0em"><tspan font-family="Verdana,Geneva,DejaVu Sans,sans-serif" x="22.7432" y="13.5">Discord</tspan></text>
    <path
      d="M16.8516 5.54903C15.9439 5.13239 14.9861 4.83529 14.0019 4.66516C13.993 4.66349 13.9838 4.66469 13.9755 4.66857C13.9673 4.67246 13.9605 4.67884 13.9562 4.6868C13.8331 4.90573 13.6967 5.19127 13.6013 5.41568C12.5252 5.25456 11.4546 5.25456 10.4007 5.41568C10.3052 5.18625 10.164 4.90573 10.0404 4.6868C10.0358 4.67902 10.029 4.6728 10.0208 4.66895C10.0126 4.6651 10.0035 4.6638 9.99456 4.66522C9.01035 4.83495 8.05241 5.13203 7.14486 5.54897C7.1371 5.55229 7.13055 5.55793 7.12614 5.56513C5.31115 8.2767 4.81392 10.9216 5.05787 13.5337C5.05856 13.5401 5.06053 13.5463 5.06365 13.5519C5.06678 13.5575 5.071 13.5625 5.07607 13.5664C6.27354 14.4459 7.43349 14.9797 8.57193 15.3336C8.58078 15.3362 8.59023 15.3361 8.59901 15.3332C8.60778 15.3303 8.61547 15.3248 8.62104 15.3175C8.89031 14.9497 9.13035 14.5619 9.33621 14.1542C9.33904 14.1486 9.34066 14.1425 9.34095 14.1362C9.34124 14.13 9.34021 14.1237 9.33792 14.1179C9.33563 14.1121 9.33213 14.1068 9.32765 14.1024C9.32317 14.0981 9.31782 14.0947 9.31194 14.0925C8.93114 13.9481 8.5686 13.772 8.21983 13.572C8.21347 13.5683 8.20812 13.563 8.20427 13.5568C8.20042 13.5505 8.19817 13.5433 8.19774 13.536C8.1973 13.5286 8.19868 13.5212 8.20176 13.5145C8.20484 13.5078 8.20952 13.502 8.21539 13.4975C8.28878 13.4425 8.36222 13.3854 8.43228 13.3275C8.4385 13.3224 8.44604 13.3191 8.45404 13.318C8.46204 13.317 8.47018 13.3181 8.47754 13.3214C10.7688 14.3675 13.2492 14.3675 15.5134 13.3214C15.5207 13.3179 15.529 13.3166 15.5371 13.3176C15.5452 13.3185 15.5528 13.3218 15.5592 13.327C15.6293 13.3847 15.7027 13.4425 15.7766 13.4975C15.7825 13.5019 15.7872 13.5077 15.7903 13.5144C15.7935 13.5211 15.7949 13.5284 15.7945 13.5358C15.7941 13.5431 15.7919 13.5503 15.7882 13.5566C15.7844 13.5629 15.7791 13.5682 15.7728 13.572C15.4239 13.7757 15.0584 13.9497 14.6802 14.0919C14.6743 14.0942 14.669 14.0977 14.6645 14.1021C14.6601 14.1065 14.6566 14.1119 14.6544 14.1178C14.6522 14.1236 14.6512 14.1299 14.6515 14.1362C14.6519 14.1425 14.6536 14.1486 14.6564 14.1542C14.8667 14.5614 15.1067 14.9492 15.371 15.3169C15.3764 15.3245 15.3841 15.3302 15.3929 15.3332C15.4017 15.3362 15.4112 15.3363 15.4201 15.3336C16.5641 14.9797 17.724 14.4458 18.9215 13.5664C18.9266 13.5627 18.9309 13.5578 18.9341 13.5523C18.9372 13.5467 18.9392 13.5406 18.9397 13.5342C19.2316 10.5143 18.4508 7.89111 16.8698 5.56565C16.8659 5.5581 16.8594 5.55224 16.8516 5.54903ZM9.67834 11.9432C8.98854 11.9432 8.42014 11.3099 8.42014 10.5321C8.42014 9.7544 8.97752 9.12107 9.67839 9.12107C10.3847 9.12107 10.9476 9.75994 10.9365 10.5322C10.9365 11.3099 10.3792 11.9432 9.67834 11.9432ZM14.3303 11.9432C13.6405 11.9432 13.0721 11.3099 13.0721 10.5321C13.0721 9.7544 13.6294 9.12107 14.3303 9.12107C15.0366 9.12107 15.5995 9.75994 15.5884 10.5322C15.5884 11.3099 15.0366 11.9432 14.3303 11.9432Z"
      fill="white" />
  </g>
  <defs>
    <linearGradient id="paint0_linear_214_94" x1="0" y1="0" x2="0" y2="400"
      gradientUnits="userSpaceOnUse">
      <stop stop-color="#BBBBBB" stop-opacity="0.1" />
      <stop offset="1" stop-opacity="0.1" />
    </linearGradient>
  </defs>
</svg>
