<svg width="112" height="28" viewBox="0 0 112 28" fill="none" xmlns="http://www.w3.org/2000/svg">
<g clip-path="url(#clip0_220_264)">
<path d="M98 0H14C6.26801 0 0 6.26801 0 14C0 21.732 6.26801 28 14 28H98C105.732 28 112 21.732 112 14C112 6.26801 105.732 0 98 0Z" fill="#191970"/>
<path d="M40.7034 18V10.7273H45.604V11.995H42.241V13.728H45.3518V14.9957H42.241V16.7322H45.6182V18H40.7034ZM46.8264 18V10.7273H48.3641V16.7322H51.482V18H46.8264ZM52.5003 18V10.7273H57.4008V11.995H54.0379V13.728H57.1487V14.9957H54.0379V16.7322H57.415V18H52.5003ZM65.0402 13.2734H63.4848C63.4564 13.0722 63.3984 12.8935 63.3108 12.7372C63.2232 12.5786 63.1108 12.4437 62.9735 12.3324C62.8361 12.2211 62.6775 12.1359 62.4976 12.0767C62.32 12.0175 62.1271 11.9879 61.9188 11.9879C61.5423 11.9879 61.2145 12.0814 60.9351 12.2685C60.6557 12.4531 60.4391 12.723 60.2852 13.0781C60.1314 13.4309 60.0544 13.8594 60.0544 14.3636C60.0544 14.8821 60.1314 15.3177 60.2852 15.6705C60.4415 16.0232 60.6593 16.2895 60.9387 16.4695C61.218 16.6494 61.5412 16.7393 61.9081 16.7393C62.1141 16.7393 62.3047 16.7121 62.4798 16.6577C62.6574 16.6032 62.8148 16.5239 62.9521 16.4197C63.0895 16.3132 63.2031 16.1842 63.2931 16.0327C63.3854 15.8812 63.4493 15.7083 63.4848 15.5142L65.0402 15.5213C65 15.8551 64.8994 16.1771 64.7384 16.4872C64.5798 16.795 64.3655 17.0708 64.0956 17.3146C63.8281 17.5561 63.5085 17.7479 63.1368 17.8899C62.7675 18.0296 62.3496 18.0994 61.8833 18.0994C61.2346 18.0994 60.6546 17.9527 60.1432 17.6591C59.6342 17.3655 59.2317 16.9406 58.9358 16.3842C58.6423 15.8279 58.4955 15.1544 58.4955 14.3636C58.4955 13.5705 58.6446 12.8958 58.9429 12.3395C59.2412 11.7831 59.646 11.3594 60.1574 11.0682C60.6688 10.7746 61.2441 10.6278 61.8833 10.6278C62.3047 10.6278 62.6953 10.687 63.0551 10.8054C63.4173 10.9238 63.7381 11.0966 64.0175 11.3239C64.2968 11.5488 64.5241 11.8246 64.6993 12.1513C64.8769 12.478 64.9905 12.852 65.0402 13.2734ZM65.8659 11.995V10.7273H71.8389V11.995H69.6123V18H68.0924V11.995H65.8659ZM72.8225 18V10.7273H75.6919C76.2411 10.7273 76.7098 10.8255 77.0981 11.022C77.4887 11.2161 77.7858 11.492 77.9894 11.8494C78.1954 12.2045 78.2984 12.6224 78.2984 13.103C78.2984 13.5859 78.1942 14.0014 77.9859 14.3494C77.7776 14.6951 77.4757 14.9602 77.0803 15.1449C76.6874 15.3295 76.2115 15.4219 75.6528 15.4219H73.7316V14.1861H75.4042C75.6978 14.1861 75.9416 14.1458 76.1357 14.0653C76.3299 13.9848 76.4743 13.8641 76.569 13.7031C76.666 13.5421 76.7146 13.3421 76.7146 13.103C76.7146 12.8615 76.666 12.6579 76.569 12.4922C76.4743 12.3265 76.3287 12.201 76.1322 12.1158C75.9381 12.0282 75.693 11.9844 75.3971 11.9844H74.3602V18H72.8225ZM76.7501 14.6903L78.5576 18H76.8602L75.0917 14.6903H76.7501ZM86.0683 14.3636C86.0683 15.1567 85.9179 15.8314 85.6173 16.3878C85.319 16.9441 84.9118 17.3691 84.3957 17.6626C83.882 17.9538 83.3043 18.0994 82.6627 18.0994C82.0164 18.0994 81.4364 17.9527 80.9227 17.6591C80.4089 17.3655 80.0029 16.9406 79.7046 16.3842C79.4063 15.8279 79.2572 15.1544 79.2572 14.3636C79.2572 13.5705 79.4063 12.8958 79.7046 12.3395C80.0029 11.7831 80.4089 11.3594 80.9227 11.0682C81.4364 10.7746 82.0164 10.6278 82.6627 10.6278C83.3043 10.6278 83.882 10.7746 84.3957 11.0682C84.9118 11.3594 85.319 11.7831 85.6173 12.3395C85.9179 12.8958 86.0683 13.5705 86.0683 14.3636ZM84.5093 14.3636C84.5093 13.8499 84.4324 13.4167 84.2785 13.0639C84.127 12.7112 83.9127 12.4437 83.6357 12.2614C83.3588 12.0791 83.0344 11.9879 82.6627 11.9879C82.291 11.9879 81.9667 12.0791 81.6897 12.2614C81.4127 12.4437 81.1973 12.7112 81.0434 13.0639C80.8919 13.4167 80.8161 13.8499 80.8161 14.3636C80.8161 14.8774 80.8919 15.3106 81.0434 15.6634C81.1973 16.0161 81.4127 16.2836 81.6897 16.4659C81.9667 16.6482 82.291 16.7393 82.6627 16.7393C83.0344 16.7393 83.3588 16.6482 83.6357 16.4659C83.9127 16.2836 84.127 16.0161 84.2785 15.6634C84.4324 15.3106 84.5093 14.8774 84.5093 14.3636ZM93.2904 10.7273V18H91.9623L88.7982 13.4226H88.7449V18H87.2073V10.7273H88.5567L91.6959 15.3011H91.7599V10.7273H93.2904Z" fill="white"/>
<path d="M23.5076 6C22.9317 6 22.4647 6.4594 22.4647 7.02613C22.4647 7.59287 22.9316 8.05233 23.5076 8.05233C23.9107 8.05233 24.2596 7.827 24.4332 7.49767C25.9378 8.34267 27.0395 11.1462 27.0395 14.4059C27.0395 15.7869 26.8436 17.1099 26.4806 18.2515C26.472 18.2784 26.4689 18.3067 26.4715 18.3347C26.474 18.3627 26.4821 18.39 26.4954 18.415C26.5086 18.4399 26.5268 18.4621 26.5487 18.4801C26.5707 18.4982 26.596 18.5118 26.6233 18.5202C26.6785 18.5372 26.7383 18.5319 26.7895 18.5055C26.8408 18.4791 26.8793 18.4338 26.8966 18.3795C27.2731 17.1953 27.4753 15.8294 27.4753 14.4059C27.4753 10.9441 26.275 7.94853 24.5481 7.07073C24.5487 7.05587 24.5504 7.0412 24.5504 7.02613C24.5504 6.45947 24.0836 6 23.5076 6ZM23.5076 6.4288C23.6686 6.4288 23.823 6.49173 23.9368 6.60375C24.0506 6.71578 24.1146 6.86771 24.1146 7.02613C24.1146 7.18456 24.0506 7.33649 23.9368 7.44851C23.823 7.56053 23.6686 7.62347 23.5076 7.62347C23.3466 7.62347 23.1922 7.56053 23.0783 7.44851C22.9645 7.33649 22.9005 7.18456 22.9005 7.02613C22.9005 6.86771 22.9645 6.71578 23.0783 6.60375C23.1922 6.49173 23.3466 6.4288 23.5076 6.4288ZM19.7908 9.29893C18.3904 9.30387 17.3197 9.742 16.8175 10.5979C16.3179 11.4495 16.4607 12.5786 17.164 13.7855C17.1934 13.8335 17.2407 13.8682 17.2959 13.8823C17.351 13.8964 17.4096 13.8887 17.459 13.8608C17.5084 13.8329 17.5448 13.787 17.5603 13.7331C17.5758 13.6791 17.5693 13.6214 17.542 13.5721C16.9086 12.4849 16.7853 11.5107 17.195 10.8123C17.7513 9.86433 19.2499 9.50887 21.2141 9.86093C21.2422 9.86598 21.2711 9.86552 21.2991 9.85958C21.3271 9.85364 21.3536 9.84234 21.3771 9.82632C21.4006 9.8103 21.4207 9.78987 21.4363 9.76621C21.4518 9.74254 21.4624 9.7161 21.4675 9.6884C21.4727 9.6607 21.4722 9.63227 21.4661 9.60474C21.4601 9.57721 21.4486 9.55113 21.4323 9.52797C21.4161 9.50481 21.3953 9.48503 21.3713 9.46977C21.3472 9.4545 21.3203 9.44405 21.2922 9.439C20.761 9.3438 20.2575 9.29727 19.7908 9.29893ZM27.2787 9.31067C27.2209 9.30992 27.1652 9.3318 27.1238 9.37148C27.0824 9.41117 27.0587 9.4654 27.0579 9.52227C27.0572 9.57913 27.0794 9.63396 27.1197 9.67469C27.1601 9.71542 27.2152 9.73872 27.273 9.73947C28.5153 9.7554 29.4109 10.1365 29.8138 10.8232C30.3688 11.7692 29.9356 13.2197 28.6497 14.7145C28.6124 14.758 28.5941 14.8142 28.5989 14.8709C28.6037 14.9276 28.6311 14.9801 28.6752 15.0169C28.697 15.0351 28.7223 15.0488 28.7496 15.0574C28.7768 15.066 28.8055 15.0692 28.834 15.0669C28.8625 15.0646 28.8903 15.0567 28.9157 15.0438C28.9412 15.0309 28.9638 15.0132 28.9823 14.9917C30.3735 13.3744 30.8595 11.7477 30.1913 10.6088C29.6996 9.7708 28.6601 9.32833 27.2787 9.31067ZM25.4505 9.5056C25.4358 9.50574 25.4211 9.50735 25.4067 9.5104C24.1487 9.77567 22.8096 10.2941 21.5236 11.0247C18.4275 12.7836 16.3797 15.3545 16.5371 17.2725C16.2169 17.4477 16 17.7834 16 18.1695C16 18.7361 16.4669 19.1956 17.0429 19.1956C17.6188 19.1956 18.0857 18.7362 18.0857 18.1695C18.0857 17.6027 17.6188 17.1433 17.0429 17.1433C17.0171 17.1433 16.9918 17.1453 16.9665 17.1471C16.8986 15.4406 18.8251 13.0529 21.7415 11.3961C22.989 10.6874 24.2856 10.1852 25.4979 9.9296C25.5505 9.9183 25.597 9.88825 25.6284 9.84523C25.6599 9.80221 25.674 9.74926 25.6681 9.6966C25.6622 9.64394 25.6367 9.59529 25.5965 9.56002C25.5564 9.52475 25.5043 9.50537 25.4505 9.5056ZM23.5002 13.6632C23.4491 13.6638 23.3981 13.6695 23.3482 13.6802C22.9409 13.7669 22.6822 14.1619 22.7701 14.5627C22.8583 14.9635 23.2597 15.2182 23.667 15.1316C24.0743 15.0448 24.3331 14.6499 24.2451 14.2491C24.1679 13.8984 23.851 13.6595 23.5002 13.6632ZM18.4404 14.894C18.4118 14.8926 18.3832 14.8969 18.3563 14.9064C18.3293 14.916 18.3046 14.9307 18.2834 14.9497C18.2622 14.9686 18.2451 14.9915 18.2329 15.0169C18.2207 15.0424 18.2137 15.07 18.2124 15.0981C18.211 15.1262 18.2153 15.1543 18.225 15.1808C18.2347 15.2073 18.2496 15.2317 18.2689 15.2525C19.1281 16.1815 20.2443 17.0531 21.5173 17.7763C24.5082 19.4755 27.6863 19.9662 29.3497 19.0024C29.5265 19.1281 29.7391 19.1957 29.9572 19.1957C30.5331 19.1957 31 18.7363 31 18.1695C31 17.6028 30.5332 17.1433 29.9572 17.1433C29.3813 17.1433 28.9144 17.6028 28.9144 18.1695C28.9144 18.3535 28.9643 18.5258 29.0506 18.6751C27.5297 19.4845 24.558 19.0086 21.7351 17.4049C20.5002 16.7033 19.4194 15.8595 18.5912 14.9639C18.572 14.9431 18.5488 14.9262 18.5229 14.9142C18.4971 14.9022 18.469 14.8953 18.4404 14.894ZM17.0429 17.5721C17.1226 17.5721 17.2015 17.5876 17.2752 17.6176C17.3488 17.6476 17.4158 17.6916 17.4721 17.7471C17.5285 17.8026 17.5732 17.8684 17.6037 17.9409C17.6342 18.0133 17.6499 18.091 17.6499 18.1695C17.6499 18.2479 17.6342 18.3256 17.6037 18.3981C17.5732 18.4705 17.5285 18.5364 17.4721 18.5918C17.4158 18.6473 17.3488 18.6913 17.2752 18.7213C17.2015 18.7514 17.1226 18.7668 17.0429 18.7668C16.9632 18.7668 16.8842 18.7514 16.8106 18.7213C16.7369 18.6913 16.67 18.6473 16.6136 18.5918C16.5573 18.5364 16.5126 18.4705 16.482 18.3981C16.4515 18.3256 16.4358 18.2479 16.4358 18.1695C16.4358 18.091 16.4515 18.0133 16.482 17.9409C16.5126 17.8684 16.5573 17.8026 16.6136 17.7471C16.67 17.6916 16.7369 17.6476 16.8106 17.6176C16.8842 17.5876 16.9632 17.5721 17.0429 17.5721ZM29.9572 17.5721C30.0369 17.5721 30.1158 17.5876 30.1895 17.6176C30.2631 17.6476 30.3301 17.6916 30.3864 17.7471C30.4428 17.8026 30.4875 17.8684 30.518 17.9409C30.5485 18.0133 30.5642 18.091 30.5642 18.1695C30.5642 18.2479 30.5485 18.3256 30.518 18.3981C30.4875 18.4705 30.4428 18.5364 30.3864 18.5918C30.3301 18.6473 30.2631 18.6913 30.1895 18.7213C30.1158 18.7514 30.0369 18.7668 29.9572 18.7668C29.8111 18.7669 29.67 18.715 29.5599 18.6205C29.5582 18.6179 29.5573 18.615 29.5554 18.6123C29.5384 18.5878 29.5163 18.567 29.4906 18.5514C29.4169 18.4642 29.3699 18.3581 29.3552 18.2455C29.3405 18.133 29.3587 18.0186 29.4077 17.9159C29.4567 17.8132 29.5343 17.7263 29.6316 17.6654C29.729 17.6045 29.8419 17.5722 29.9572 17.5721ZM20.4691 18.4841C20.4332 18.4821 20.3973 18.4889 20.3647 18.5039C20.3321 18.5189 20.3038 18.5415 20.2823 18.5699C20.2608 18.5983 20.2467 18.6314 20.2414 18.6665C20.2361 18.7015 20.2397 18.7372 20.2518 18.7705C20.9792 20.7693 22.1694 22 23.5076 22C24.4836 22 25.3866 21.3452 26.0907 20.1927C26.1055 20.1685 26.1153 20.1418 26.1195 20.1139C26.1237 20.0861 26.1223 20.0577 26.1154 20.0304C26.1085 20.0031 26.0962 19.9773 26.0792 19.9547C26.0621 19.9321 26.0407 19.913 26.0162 19.8985C25.9667 19.8692 25.9073 19.8605 25.8512 19.8742C25.7951 19.888 25.7469 19.9231 25.7171 19.9718C25.0843 21.0076 24.3071 21.5711 23.5076 21.5711C22.396 21.5711 21.3345 20.4735 20.662 18.6259C20.6476 18.5862 20.6216 18.5516 20.5873 18.5264C20.5529 18.5012 20.5118 18.4865 20.4691 18.4841Z" fill="white"/>
</g>
<defs>
<clipPath id="clip0_220_264">
<rect width="112" height="28" fill="white"/>
</clipPath>
</defs>
</svg>
