<svg width="93" height="28" viewBox="0 0 93 28" fill="none" xmlns="http://www.w3.org/2000/svg">
<g clip-path="url(#clip0_220_164)">
<path d="M78.5 0H14C6.26801 0 0 6.26801 0 14C0 21.732 6.26801 28 14 28H78.5C86.232 28 92.5 21.732 92.5 14C92.5 6.26801 86.232 0 78.5 0Z" fill="#4B3263"/>
<path d="M40.0393 18V10.7273H44.9399V11.995H41.577V13.728H44.6878V14.9957H41.577V16.7322H44.9541V18H40.0393ZM50.1077 12.8189C50.0793 12.5324 49.9574 12.3099 49.7419 12.1513C49.5265 11.9927 49.2341 11.9134 48.8648 11.9134C48.6138 11.9134 48.402 11.9489 48.2291 12.0199C48.0563 12.0885 47.9237 12.1844 47.8314 12.3075C47.7414 12.4306 47.6965 12.5703 47.6965 12.7266C47.6917 12.8568 47.719 12.9704 47.7781 13.0675C47.8397 13.1645 47.9237 13.2486 48.0303 13.3196C48.1368 13.3883 48.2599 13.4486 48.3996 13.5007C48.5393 13.5504 48.6884 13.593 48.847 13.6286L49.5004 13.7848C49.8177 13.8558 50.1089 13.9505 50.374 14.0689C50.6392 14.1873 50.8688 14.3329 51.0629 14.5057C51.2571 14.6785 51.4074 14.8821 51.5139 15.1165C51.6228 15.3509 51.6785 15.6196 51.6808 15.9226C51.6785 16.3677 51.5648 16.7536 51.3399 17.0803C51.1174 17.4046 50.7954 17.6567 50.374 17.8366C49.955 18.0142 49.4495 18.103 48.8577 18.103C48.2706 18.103 47.7592 18.013 47.3236 17.8331C46.8904 17.6532 46.5518 17.3868 46.308 17.0341C46.0665 16.679 45.9398 16.2398 45.928 15.7166H47.4159C47.4325 15.9605 47.5023 16.1641 47.6254 16.3274C47.7509 16.4884 47.9178 16.6103 48.1262 16.6932C48.3369 16.7737 48.5748 16.8139 48.8399 16.8139C49.1003 16.8139 49.3264 16.776 49.5182 16.7003C49.7123 16.6245 49.8627 16.5192 49.9692 16.3842C50.0757 16.2493 50.129 16.0942 50.129 15.919C50.129 15.7557 50.0805 15.6184 49.9834 15.5071C49.8887 15.3958 49.749 15.3011 49.5644 15.223C49.3821 15.1449 49.1584 15.0739 48.8932 15.0099L48.1013 14.8111C47.4881 14.6619 47.004 14.4287 46.6489 14.1115C46.2938 13.7943 46.1174 13.367 46.1198 12.8295C46.1174 12.3892 46.2346 12.0045 46.4713 11.6754C46.7104 11.3464 47.0383 11.0895 47.455 10.9048C47.8717 10.7202 48.3451 10.6278 48.8754 10.6278C49.4152 10.6278 49.8863 10.7202 50.2888 10.9048C50.6936 11.0895 51.0085 11.3464 51.2334 11.6754C51.4583 12.0045 51.5743 12.3857 51.5814 12.8189H50.1077ZM52.7151 18V10.7273H54.2528V16.7322H57.3707V18H52.7151ZM59.9266 10.7273V18H58.3889V10.7273H59.9266ZM67.2748 10.7273V18H65.9466L62.7826 13.4226H62.7293V18H61.1917V10.7273H62.5411L65.6803 15.3011H65.7442V10.7273H67.2748ZM68.2682 11.995V10.7273H74.2412V11.995H72.0146V18H70.4948V11.995H68.2682Z" fill="white"/>
<path d="M16.442 11.8234L19.8612 9.82582C19.9032 9.80138 19.9508 9.78852 19.9992 9.78852C20.0477 9.78852 20.0952 9.80138 20.1372 9.82582L23.5564 11.8234C23.5985 11.848 23.6334 11.8834 23.6576 11.9261C23.6818 11.9687 23.6945 12.017 23.6944 12.0662V16.0605C23.6943 16.1096 23.6815 16.1577 23.6573 16.2002C23.6331 16.2427 23.5983 16.278 23.5564 16.3026L20.1372 18.3002C20.0952 18.3246 20.0477 18.3375 19.9992 18.3375C19.9508 18.3375 19.9032 18.3246 19.8612 18.3002L16.442 16.3026C16.4 16.278 16.3651 16.2425 16.3409 16.1999C16.3166 16.1573 16.3039 16.1089 16.304 16.0598V12.0662C16.304 12.0171 16.3167 11.9687 16.341 11.9261C16.3652 11.8835 16.4 11.8481 16.442 11.8234ZM28.8881 13.6433L24.8037 6.45233C24.6552 6.19201 24.3807 6 24.0837 6H15.9155C15.6185 6 15.344 6.19201 15.1955 6.45233L11.1111 13.6274C11.0383 13.7565 11 13.9026 11 14.0512C11 14.1999 11.0383 14.346 11.1111 14.4751L15.1963 21.6076C15.344 21.8672 15.6185 22 15.9155 22H24.0852C24.3814 22 24.6552 21.871 24.8044 21.6114L28.8889 14.4675C28.9616 14.3427 29 14.2004 29 14.0554C29 13.9105 28.9616 13.7682 28.8889 13.6433M25.5064 17.101C25.505 17.1535 25.4902 17.2048 25.4634 17.2497C25.4365 17.2947 25.3987 17.3318 25.3534 17.3576L20.1492 20.3948C20.1045 20.4207 20.0538 20.4343 20.0022 20.4343C19.9507 20.4343 19.9 20.4207 19.8552 20.3948L14.648 17.3576C14.6027 17.3319 14.5646 17.2948 14.5377 17.2499C14.5107 17.2049 14.4958 17.1536 14.4943 17.101V11.0249C14.4943 10.9187 14.5565 10.8208 14.6473 10.7684L19.8492 7.73115C19.9392 7.67802 20.0532 7.67802 20.1432 7.73115L25.3504 10.7692C25.3959 10.7947 25.4341 10.8318 25.4612 10.8768C25.4883 10.9217 25.5034 10.9731 25.5049 11.0257L25.5064 17.101Z" fill="white"/>
</g>
<defs>
<clipPath id="clip0_220_164">
<rect width="92.5" height="28" fill="white"/>
</clipPath>
</defs>
</svg>
