<svg width="123" height="28" viewBox="0 0 123 28" fill="none" xmlns="http://www.w3.org/2000/svg">
<g clip-path="url(#clip0_220_259)">
<path d="M108.5 0H14C6.26801 0 0 6.26801 0 14C0 21.732 6.26801 28 14 28H108.5C116.232 28 122.5 21.732 122.5 14C122.5 6.26801 116.232 0 108.5 0Z" fill="#404D59"/>
<path d="M44.7464 18V10.7273H49.6469V11.995H46.284V13.728H49.3948V14.9957H46.284V16.7322H49.6611V18H44.7464ZM52.3112 10.7273L53.7778 13.206H53.8346L55.3083 10.7273H57.0448L54.8254 14.3636L57.0945 18H55.3261L53.8346 15.5178H53.7778L52.2863 18H50.5249L52.8012 14.3636L50.5676 10.7273H52.3112ZM58.0178 18V10.7273H60.8872C61.4388 10.7273 61.9087 10.8326 62.297 11.0433C62.6852 11.2517 62.9811 11.5417 63.1847 11.9134C63.3907 12.2827 63.4937 12.7088 63.4937 13.1918C63.4937 13.6747 63.3895 14.1009 63.1812 14.4702C62.9729 14.8395 62.671 15.1271 62.2757 15.3331C61.8827 15.5391 61.4068 15.642 60.8481 15.642H59.0193V14.4098H60.5995C60.8954 14.4098 61.1393 14.3589 61.3311 14.2571C61.5252 14.1529 61.6696 14.0097 61.7643 13.8274C61.8614 13.6428 61.9099 13.4309 61.9099 13.1918C61.9099 12.9503 61.8614 12.7396 61.7643 12.5597C61.6696 12.3774 61.5252 12.2365 61.3311 12.1371C61.1369 12.0353 60.8907 11.9844 60.5924 11.9844H59.5555V18H58.0178ZM64.4925 18V10.7273H67.3618C67.911 10.7273 68.3798 10.8255 68.768 11.022C69.1586 11.2161 69.4558 11.492 69.6594 11.8494C69.8653 12.2045 69.9683 12.6224 69.9683 13.103C69.9683 13.5859 69.8641 14.0014 69.6558 14.3494C69.4475 14.6951 69.1456 14.9602 68.7503 15.1449C68.3573 15.3295 67.8814 15.4219 67.3227 15.4219H65.4015V14.1861H67.0741C67.3677 14.1861 67.6115 14.1458 67.8057 14.0653C67.9998 13.9848 68.1442 13.8641 68.2389 13.7031C68.336 13.5421 68.3845 13.3421 68.3845 13.103C68.3845 12.8615 68.336 12.6579 68.2389 12.4922C68.1442 12.3265 67.9986 12.201 67.8021 12.1158C67.608 12.0282 67.363 11.9844 67.067 11.9844H66.0301V18H64.4925ZM68.42 14.6903L70.2275 18H68.5301L66.7616 14.6903H68.42ZM71.055 18V10.7273H75.9555V11.995H72.5926V13.728H75.7034V14.9957H72.5926V16.7322H75.9697V18H71.055ZM81.1233 12.8189C81.0949 12.5324 80.973 12.3099 80.7575 12.1513C80.5421 11.9927 80.2497 11.9134 79.8804 11.9134C79.6295 11.9134 79.4176 11.9489 79.2448 12.0199C79.0719 12.0885 78.9394 12.1844 78.847 12.3075C78.7571 12.4306 78.7121 12.5703 78.7121 12.7266C78.7074 12.8568 78.7346 12.9704 78.7938 13.0675C78.8553 13.1645 78.9394 13.2486 79.0459 13.3196C79.1524 13.3883 79.2755 13.4486 79.4152 13.5007C79.5549 13.5504 79.704 13.593 79.8627 13.6286L80.5161 13.7848C80.8333 13.8558 81.1245 13.9505 81.3896 14.0689C81.6548 14.1873 81.8844 14.3329 82.0786 14.5057C82.2727 14.6785 82.423 14.8821 82.5296 15.1165C82.6385 15.3509 82.6941 15.6196 82.6965 15.9226C82.6941 16.3677 82.5805 16.7536 82.3556 17.0803C82.133 17.4046 81.8111 17.6567 81.3896 17.8366C80.9706 18.0142 80.4652 18.103 79.8733 18.103C79.2862 18.103 78.7748 18.013 78.3392 17.8331C77.906 17.6532 77.5674 17.3868 77.3236 17.0341C77.0821 16.679 76.9555 16.2398 76.9436 15.7166H78.4316C78.4481 15.9605 78.518 16.1641 78.6411 16.3274C78.7665 16.4884 78.9334 16.6103 79.1418 16.6932C79.3525 16.7737 79.5904 16.8139 79.8556 16.8139C80.116 16.8139 80.3421 16.776 80.5338 16.7003C80.728 16.6245 80.8783 16.5192 80.9848 16.3842C81.0914 16.2493 81.1446 16.0942 81.1446 15.919C81.1446 15.7557 81.0961 15.6184 80.999 15.5071C80.9043 15.3958 80.7646 15.3011 80.58 15.223C80.3977 15.1449 80.174 15.0739 79.9088 15.0099L79.1169 14.8111C78.5038 14.6619 78.0196 14.4287 77.6645 14.1115C77.3094 13.7943 77.133 13.367 77.1354 12.8295C77.133 12.3892 77.2502 12.0045 77.4869 11.6754C77.7261 11.3464 78.0539 11.0895 78.4706 10.9048C78.8873 10.7202 79.3608 10.6278 79.8911 10.6278C80.4308 10.6278 80.902 10.7202 81.3044 10.9048C81.7093 11.0895 82.0241 11.3464 82.249 11.6754C82.4739 12.0045 82.5899 12.3857 82.597 12.8189H81.1233ZM87.676 12.8189C87.6476 12.5324 87.5257 12.3099 87.3103 12.1513C87.0948 11.9927 86.8025 11.9134 86.4331 11.9134C86.1822 11.9134 85.9703 11.9489 85.7975 12.0199C85.6247 12.0885 85.4921 12.1844 85.3998 12.3075C85.3098 12.4306 85.2648 12.5703 85.2648 12.7266C85.2601 12.8568 85.2873 12.9704 85.3465 13.0675C85.4081 13.1645 85.4921 13.2486 85.5986 13.3196C85.7052 13.3883 85.8283 13.4486 85.968 13.5007C86.1076 13.5504 86.2568 13.593 86.4154 13.6286L87.0688 13.7848C87.386 13.8558 87.6772 13.9505 87.9424 14.0689C88.2075 14.1873 88.4372 14.3329 88.6313 14.5057C88.8254 14.6785 88.9758 14.8821 89.0823 15.1165C89.1912 15.3509 89.2468 15.6196 89.2492 15.9226C89.2468 16.3677 89.1332 16.7536 88.9083 17.0803C88.6858 17.4046 88.3638 17.6567 87.9424 17.8366C87.5233 18.0142 87.0179 18.103 86.426 18.103C85.8389 18.103 85.3276 18.013 84.892 17.8331C84.4587 17.6532 84.1202 17.3868 83.8763 17.0341C83.6349 16.679 83.5082 16.2398 83.4964 15.7166H84.9843C85.0009 15.9605 85.0707 16.1641 85.1938 16.3274C85.3193 16.4884 85.4862 16.6103 85.6945 16.6932C85.9052 16.7737 86.1431 16.8139 86.4083 16.8139C86.6687 16.8139 86.8948 16.776 87.0866 16.7003C87.2807 16.6245 87.431 16.5192 87.5376 16.3842C87.6441 16.2493 87.6974 16.0942 87.6974 15.919C87.6974 15.7557 87.6488 15.6184 87.5518 15.5071C87.4571 15.3958 87.3174 15.3011 87.1327 15.223C86.9504 15.1449 86.7267 15.0739 86.4616 15.0099L85.6697 14.8111C85.0565 14.6619 84.5724 14.4287 84.2172 14.1115C83.8621 13.7943 83.6858 13.367 83.6881 12.8295C83.6858 12.3892 83.8029 12.0045 84.0397 11.6754C84.2788 11.3464 84.6067 11.0895 85.0233 10.9048C85.44 10.7202 85.9135 10.6278 86.4438 10.6278C86.9836 10.6278 87.4547 10.7202 87.8572 10.9048C88.262 11.0895 88.5769 11.3464 88.8018 11.6754C89.0267 12.0045 89.1427 12.3857 89.1498 12.8189H87.676ZM91.1393 18.0923C90.9049 18.0923 90.7037 18.0095 90.5356 17.8438C90.3699 17.6757 90.287 17.4744 90.287 17.2401C90.287 17.008 90.3699 16.8092 90.5356 16.6435C90.7037 16.4777 90.9049 16.3949 91.1393 16.3949C91.3666 16.3949 91.5654 16.4777 91.7359 16.6435C91.9063 16.8092 91.9916 17.008 91.9916 17.2401C91.9916 17.3963 91.9513 17.5395 91.8708 17.6697C91.7927 17.7976 91.6897 17.9006 91.5619 17.9787C91.434 18.0545 91.2932 18.0923 91.1393 18.0923ZM96.1739 10.7273H97.6938V15.7983C97.6938 16.267 97.5885 16.6742 97.3778 17.0199C97.1694 17.3655 96.8794 17.6319 96.5077 17.8189C96.136 18.0059 95.704 18.0994 95.2116 18.0994C94.7736 18.0994 94.3759 18.0225 94.0184 17.8686C93.6633 17.7124 93.3815 17.4756 93.1732 17.1584C92.9649 16.8388 92.8619 16.4375 92.8643 15.9545H94.3948C94.3995 16.1463 94.4386 16.3108 94.512 16.4482C94.5877 16.5831 94.6907 16.6873 94.8209 16.7607C94.9535 16.8317 95.1098 16.8672 95.2897 16.8672C95.4791 16.8672 95.6389 16.8269 95.7691 16.7464C95.9017 16.6636 96.0023 16.5429 96.0709 16.3842C96.1396 16.2256 96.1739 16.0303 96.1739 15.7983V10.7273ZM102.91 12.8189C102.882 12.5324 102.76 12.3099 102.545 12.1513C102.329 11.9927 102.037 11.9134 101.668 11.9134C101.417 11.9134 101.205 11.9489 101.032 12.0199C100.859 12.0885 100.726 12.1844 100.634 12.3075C100.544 12.4306 100.499 12.5703 100.499 12.7266C100.494 12.8568 100.522 12.9704 100.581 13.0675C100.642 13.1645 100.726 13.2486 100.833 13.3196C100.94 13.3883 101.063 13.4486 101.202 13.5007C101.342 13.5504 101.491 13.593 101.65 13.6286L102.303 13.7848C102.62 13.8558 102.912 13.9505 103.177 14.0689C103.442 14.1873 103.672 14.3329 103.866 14.5057C104.06 14.6785 104.21 14.8821 104.317 15.1165C104.426 15.3509 104.481 15.6196 104.484 15.9226C104.481 16.3677 104.368 16.7536 104.143 17.0803C103.92 17.4046 103.598 17.6567 103.177 17.8366C102.758 18.0142 102.252 18.103 101.66 18.103C101.073 18.103 100.562 18.013 100.126 17.8331C99.6931 17.6532 99.3546 17.3868 99.1107 17.0341C98.8692 16.679 98.7426 16.2398 98.7307 15.7166H100.219C100.235 15.9605 100.305 16.1641 100.428 16.3274C100.554 16.4884 100.721 16.6103 100.929 16.6932C101.14 16.7737 101.378 16.8139 101.643 16.8139C101.903 16.8139 102.129 16.776 102.321 16.7003C102.515 16.6245 102.665 16.5192 102.772 16.3842C102.878 16.2493 102.932 16.0942 102.932 15.919C102.932 15.7557 102.883 15.6184 102.786 15.5071C102.691 15.3958 102.552 15.3011 102.367 15.223C102.185 15.1449 101.961 15.0739 101.696 15.0099L100.904 14.8111C100.291 14.6619 99.8067 14.4287 99.4516 14.1115C99.0965 13.7943 98.9201 13.367 98.9225 12.8295C98.9201 12.3892 99.0373 12.0045 99.2741 11.6754C99.5132 11.3464 99.8411 11.0895 100.258 10.9048C100.674 10.7202 101.148 10.6278 101.678 10.6278C102.218 10.6278 102.689 10.7202 103.092 10.9048C103.496 11.0895 103.811 11.3464 104.036 11.6754C104.261 12.0045 104.377 12.3857 104.384 12.8189H102.91Z" fill="white"/>
<path d="M37 21.5698C36.607 21.7216 36.1733 21.7213 35.7805 21.5689C35.3878 21.4165 35.0633 21.1226 34.8681 20.7426L30.9869 15.261L30.4244 14.4946L25.921 20.7495C25.7376 21.1135 25.4307 21.3969 25.0576 21.5466C24.6845 21.6963 24.2707 21.7021 23.8938 21.5629L29.6965 13.6122L24.2988 6.43017C24.6869 6.28732 25.1113 6.28543 25.5007 6.42481C25.89 6.56418 26.2204 6.83631 26.4363 7.19537L30.4593 12.7448L34.5048 7.21835C34.6896 6.86078 34.9966 6.58503 35.3674 6.44353C35.7383 6.30202 36.1471 6.30463 36.5163 6.45085L34.4215 9.28989L31.5843 13.0619C31.5055 13.1337 31.4424 13.2216 31.3992 13.3201C31.3561 13.4185 31.3338 13.5251 31.3338 13.6329C31.3338 13.7407 31.3561 13.8474 31.3992 13.9458C31.4424 14.0442 31.5055 14.1322 31.5843 14.2039L36.9888 21.571L37 21.5698ZM10.0023 13.5134L10.4748 11.1294C11.773 6.41523 17.065 4.45398 20.7055 7.3723C22.8374 9.08308 23.3695 11.5051 23.2649 14.235H11.2555C11.0609 19.1099 14.5056 22.0535 18.91 20.5496C19.624 20.2871 20.2631 19.8478 20.77 19.2712C21.277 18.6945 21.6359 17.9984 21.8148 17.2452C22.0476 16.48 22.4313 16.349 23.1355 16.5696C23.0182 17.503 22.6951 18.3971 22.1906 19.1845C21.6861 19.972 21.0133 20.6324 20.2229 21.116C18.9172 21.8454 17.4192 22.1345 15.943 21.9419C14.4667 21.7494 13.0879 21.0851 12.0036 20.044C10.9315 18.8117 10.2836 17.255 10.1586 15.6114C10.1586 15.3414 10.0686 15.0886 10.0079 14.8462C10.0024 14.4023 9.99979 13.9585 10 13.5146L10.0023 13.5134ZM11.2701 13.1848H22.1309C22.0634 9.65066 19.8798 7.14366 16.9671 7.12068C13.7249 7.07473 11.4051 9.52658 11.2623 13.1687L11.2701 13.1848Z" fill="#61DAFB"/>
</g>
<defs>
<clipPath id="clip0_220_259">
<rect width="122.5" height="28" fill="white"/>
</clipPath>
</defs>
</svg>
