<svg width="88" height="28" viewBox="0 0 88 28" fill="none" xmlns="http://www.w3.org/2000/svg">
<g clip-path="url(#clip0_220_169)">
<path d="M73.25 0H14C6.26801 0 0 6.26801 0 14C0 21.732 6.26801 28 14 28H73.25C80.982 28 87.25 21.732 87.25 14C87.25 6.26801 80.982 0 73.25 0Z" fill="#F24E1E"/>
<path d="M37.6868 18V10.7273H42.5021V11.995H39.2244V13.728H42.1825V14.9957H39.2244V18H37.6868ZM45.074 10.7273V18H43.5364V10.7273H45.074ZM51.1616 13.0781C51.1119 12.9053 51.042 12.7526 50.9521 12.62C50.8621 12.4851 50.752 12.3714 50.6218 12.2791C50.494 12.1844 50.3472 12.1122 50.1815 12.0625C50.0181 12.0128 49.837 11.9879 49.6381 11.9879C49.2665 11.9879 48.9397 12.0803 48.658 12.2649C48.3787 12.4496 48.1609 12.7183 48.0046 13.071C47.8484 13.4214 47.7702 13.8499 47.7702 14.3565C47.7702 14.8632 47.8472 15.294 48.0011 15.6491C48.1549 16.0043 48.3728 16.2753 48.6545 16.4624C48.9362 16.647 49.2688 16.7393 49.6523 16.7393C50.0004 16.7393 50.2975 16.6778 50.5437 16.5547C50.7923 16.4292 50.9817 16.2528 51.1119 16.0256C51.2444 15.7983 51.3107 15.5296 51.3107 15.2195L51.6232 15.2656H49.7482V14.108H52.7915V15.0241C52.7915 15.6634 52.6566 16.2126 52.3867 16.6719C52.1168 17.1288 51.7451 17.4815 51.2717 17.7301C50.7982 17.9763 50.256 18.0994 49.6452 18.0994C48.9634 18.0994 48.3645 17.9491 47.8484 17.6484C47.3323 17.3454 46.9298 16.9157 46.641 16.3594C46.3545 15.8007 46.2113 15.1378 46.2113 14.3707C46.2113 13.7812 46.2965 13.2557 46.467 12.794C46.6398 12.33 46.8813 11.937 47.1914 11.6151C47.5015 11.2931 47.8626 11.0481 48.2745 10.88C48.6864 10.7119 49.1327 10.6278 49.6133 10.6278C50.0252 10.6278 50.4087 10.6882 50.7638 10.8089C51.119 10.9273 51.4338 11.0954 51.7085 11.3132C51.9854 11.531 52.2115 11.7902 52.3867 12.0909C52.5619 12.3892 52.6744 12.7183 52.7241 13.0781H51.1616ZM53.9466 10.7273H55.8429L57.8457 15.6136H57.9309L59.9338 10.7273H61.8301V18H60.3386V13.2663H60.2782L58.3961 17.9645H57.3805L55.4984 13.2486H55.438V18H53.9466V10.7273ZM64.3505 18H62.7028L65.2134 10.7273H67.195L69.7021 18H68.0543L66.2326 12.3892H66.1758L64.3505 18ZM64.2475 15.1413H68.1396V16.3416H64.2475V15.1413Z" fill="white"/>
<path d="M25.5016 12.11H21.9269V5H25.5016C27.4308 5 29 6.59442 29 8.55458C29 10.5148 27.4308 12.11 25.5016 12.11ZM23.0731 10.9454H25.5016C26.7989 10.9454 27.8539 9.87271 27.8539 8.55538C27.8539 7.23804 26.7981 6.16533 25.5016 6.16533H23.0731V10.9454ZM23.0731 12.11H19.4991C17.5743 12.0953 16.0033 10.5084 16.0008 8.55538C16.0008 6.59521 17.57 5 19.4991 5H23.0738V12.11H23.0731ZM19.4991 6.16454C18.2019 6.16454 17.1469 7.23725 17.1469 8.55458C17.1469 9.87192 18.2019 10.9454 19.4991 10.9454H21.9277V6.16454H19.4991ZM23.0731 18.0546H19.4991C17.57 18.0546 16.0008 16.4602 16.0008 14.5C16.0008 12.5398 17.57 10.9454 19.4991 10.9454H23.0738V18.0546H23.0731ZM19.4991 12.11C18.2019 12.11 17.1469 13.1827 17.1469 14.5C17.1469 15.8173 18.2026 16.89 19.4991 16.89H21.9277V12.11H19.4991ZM19.5178 24C17.5785 24 16 22.4056 16 20.4454C16 18.4853 17.5692 16.8908 19.4984 16.8908H23.0731V20.4066C23.0731 22.3882 21.4782 24 19.5178 24ZM19.4991 18.0546C18.8755 18.0554 18.2777 18.3075 17.8368 18.7555C17.3958 19.2036 17.1477 19.811 17.1469 20.4446C17.1469 21.7628 18.2104 22.8347 19.5186 22.8347C20.847 22.8347 21.9285 21.7453 21.9285 20.4058V18.0546H19.4991ZM25.5016 18.0546H25.4253C23.4961 18.0546 21.9269 16.4602 21.9269 14.5C21.9269 12.5398 23.4961 10.9454 25.4253 10.9454H25.5016C27.4308 10.9454 29 12.5398 29 14.5C29 16.4602 27.4308 18.0546 25.5016 18.0546ZM25.4261 12.11C24.1288 12.11 23.0738 13.1827 23.0738 14.5C23.0738 15.8173 24.1296 16.89 25.4261 16.89H25.5024C26.7997 16.89 27.8547 15.8173 27.8547 14.5C27.8547 13.1827 26.7981 12.11 25.5016 12.11H25.4261Z" fill="white"/>
</g>
<defs>
<clipPath id="clip0_220_169">
<rect width="87.25" height="28" fill="white"/>
</clipPath>
</defs>
</svg>
