<svg width="89" height="28" viewBox="0 0 89 28" fill="none" xmlns="http://www.w3.org/2000/svg">
<g clip-path="url(#clip0_220_299)">
<path d="M74.25 0H14C6.26801 0 0 6.26801 0 14C0 21.732 6.26801 28 14 28H74.25C81.982 28 88.25 21.732 88.25 14C88.25 6.26801 81.982 0 74.25 0Z" fill="#E34F26"/>
<path d="M36.927 18V10.7273H38.4647V13.728H41.5861V10.7273H43.1202V18H41.5861V14.9957H38.4647V18H36.927ZM44.111 11.995V10.7273H50.084V11.995H47.8574V18H46.3375V11.995H44.111ZM51.0676 10.7273H52.964L54.9668 15.6136H55.052L57.0549 10.7273H58.9512V18H57.4597V13.2663H57.3993L55.5172 17.9645H54.5016L52.6195 13.2486H52.5591V18H51.0676V10.7273ZM60.218 18V10.7273H61.7557V16.7322H64.8736V18H60.218ZM68.5055 18.0994C68.0036 18.0994 67.5562 18.0071 67.1632 17.8224C66.7725 17.6378 66.4624 17.3833 66.2328 17.0589C66.0031 16.7346 65.8836 16.3629 65.8741 15.9439H67.3656C67.3822 16.2256 67.5005 16.4541 67.7207 16.6293C67.9409 16.8045 68.2025 16.892 68.5055 16.892C68.747 16.892 68.96 16.8388 69.1447 16.7322C69.3317 16.6233 69.4773 16.473 69.5815 16.2812C69.688 16.0871 69.7413 15.8646 69.7413 15.6136C69.7413 15.358 69.6868 15.133 69.5779 14.9389C69.4714 14.7448 69.3234 14.5933 69.1341 14.4844C68.9447 14.3755 68.728 14.3198 68.4842 14.3175C68.2711 14.3175 68.064 14.3613 67.8627 14.4489C67.6639 14.5365 67.5088 14.656 67.3975 14.8075L66.0304 14.5625L66.3748 10.7273H70.8208V11.9844H67.6426L67.4544 13.8061H67.497C67.6248 13.6262 67.8178 13.477 68.0758 13.3587C68.3339 13.2403 68.6227 13.1811 68.9423 13.1811C69.3803 13.1811 69.7709 13.2841 70.1142 13.4901C70.4574 13.696 70.7285 13.9789 70.9274 14.3388C71.1262 14.6963 71.2245 15.1082 71.2221 15.5746C71.2245 16.0646 71.1109 16.5002 70.8812 16.8814C70.6539 17.2602 70.3355 17.5585 69.926 17.7763C69.5188 17.9917 69.0453 18.0994 68.5055 18.0994Z" fill="white"/>
<path d="M13 6H27L25.7267 20.3753L19.9847 22L14.2753 20.3747L13 6ZM17.6873 12.5L17.5327 10.688L24.2387 10.69L24.392 8.942L15.608 8.94L16.0733 14.28H22.1573L21.94 16.564L20 17.1L18.03 16.56L17.9047 15.1533H16.1653L16.3853 17.934L20 18.9007L23.586 17.9387L24.082 12.5007H17.6873V12.5Z" fill="white"/>
</g>
<defs>
<clipPath id="clip0_220_299">
<rect width="88.25" height="28" fill="white"/>
</clipPath>
</defs>
</svg>
