<svg width="85" height="20" viewBox="0 0 85 20" fill="none" xmlns="http://www.w3.org/2000/svg">
  <mask id="mask0_214_80" style="mask-type:luminance" maskUnits="userSpaceOnUse" x="0" y="0"
    width="85" height="20">
    <path
      d="M82 0H3C1.34315 0 0 1.34315 0 3V17C0 18.6569 1.34315 20 3 20H82C83.6569 20 85 18.6569 85 17V3C85 1.34315 83.6569 0 82 0Z"
      fill="white" />
  </mask>
  <g mask="url(#mask0_214_80)">
    <path d="M85 0H0V20H85V0Z" fill="#E4405F" />
    <path d="M85 0H0V20H85V0Z" fill="url(#paint0_linear_214_80)" />
  </g>
  <g>
    <text fill="#010101" fill-opacity="0.3" xml:space="preserve" style="white-space: pre"
      font-family="Inter" font-size="11" letter-spacing="0em"><tspan font-family="Verdana,Geneva,DejaVu Sans,sans-serif" x="24.6289" y="14.5">Instagram</tspan></text>
    <text fill="white" xml:space="preserve" style="white-space: pre" font-family="Inter"
      font-size="11" letter-spacing="0em"><tspan font-family="Verdana,Geneva,DejaVu Sans,sans-serif" x="24.6289" y="13.5">Instagram</tspan></text>
    <path
      d="M12 3C10.0983 3 9.86092 3.00875 9.11425 3.042C8.36875 3.077 7.86125 3.19425 7.415 3.3675C6.95475 3.546 6.56392 3.78575 6.17483 4.17483C5.78575 4.56392 5.54542 4.95417 5.3675 5.415C5.19425 5.86125 5.07642 6.36875 5.042 7.11425C5.007 7.86092 5 8.09833 5 10C5 11.9017 5.00875 12.1391 5.042 12.8857C5.077 13.6307 5.19425 14.1387 5.3675 14.585C5.546 15.0447 5.78575 15.4361 6.17483 15.8252C6.56392 16.2137 6.95417 16.4546 7.415 16.6325C7.86183 16.8052 8.36933 16.9236 9.11425 16.958C9.86092 16.993 10.0983 17 12 17C13.9017 17 14.1391 16.9912 14.8857 16.958C15.6307 16.923 16.1387 16.8052 16.585 16.6325C17.0447 16.454 17.4361 16.2137 17.8252 15.8252C18.2137 15.4361 18.4546 15.0464 18.6325 14.585C18.8052 14.1387 18.9236 13.6307 18.958 12.8857C18.993 12.1391 19 11.9017 19 10C19 8.09833 18.9912 7.86092 18.958 7.11425C18.923 6.36933 18.8052 5.86067 18.6325 5.415C18.454 4.95475 18.2137 4.56392 17.8252 4.17483C17.4361 3.78575 17.0464 3.54542 16.585 3.3675C16.1387 3.19425 15.6307 3.07642 14.8857 3.042C14.1391 3.007 13.9017 3 12 3ZM12 4.26C13.8684 4.26 14.0912 4.26933 14.8292 4.30142C15.5117 4.3335 15.8821 4.44667 16.1282 4.5435C16.4561 4.67008 16.6882 4.82175 16.9344 5.06617C17.1788 5.31117 17.3305 5.54392 17.4571 5.87175C17.5527 6.11792 17.6671 6.48833 17.698 7.17083C17.7312 7.90933 17.7388 8.131 17.7388 10C17.7388 11.869 17.7301 12.0912 17.6957 12.8292C17.6601 13.5117 17.5463 13.8821 17.4501 14.1282C17.3194 14.4561 17.1707 14.6882 16.9257 14.9344C16.6812 15.1788 16.445 15.3305 16.1207 15.4571C15.8757 15.5527 15.4994 15.6671 14.8169 15.698C14.0737 15.7312 13.855 15.7388 11.9825 15.7388C10.1094 15.7388 9.89067 15.7301 9.14808 15.6957C8.465 15.6601 8.08875 15.5463 7.84375 15.4501C7.51183 15.3194 7.28375 15.1707 7.03933 14.9257C6.79375 14.6812 6.63683 14.445 6.51433 14.1207C6.41808 13.8757 6.30492 13.4994 6.26933 12.8169C6.24308 12.0819 6.23375 11.855 6.23375 9.99125C6.23375 8.12692 6.24308 7.89942 6.26933 7.15567C6.30492 6.47317 6.41808 6.0975 6.51433 5.8525C6.63683 5.52 6.79375 5.2925 7.03933 5.04692C7.28375 4.8025 7.51183 4.645 7.84375 4.52308C8.08875 4.42625 8.45683 4.3125 9.13933 4.2775C9.88308 4.25125 10.1018 4.2425 11.9737 4.2425L12 4.26ZM12 6.4055C10.0137 6.4055 8.4055 8.0155 8.4055 10C8.4055 11.9862 10.0155 13.5945 12 13.5945C13.9862 13.5945 15.5945 11.9845 15.5945 10C15.5945 8.01375 13.9845 6.4055 12 6.4055ZM12 12.3333C10.7108 12.3333 9.66667 11.2892 9.66667 10C9.66667 8.71083 10.7108 7.66667 12 7.66667C13.2892 7.66667 14.3333 8.71083 14.3333 10C14.3333 11.2892 13.2892 12.3333 12 12.3333ZM16.5768 6.26375C16.5768 6.7275 16.2 7.10375 15.7368 7.10375C15.2731 7.10375 14.8968 6.72692 14.8968 6.26375C14.8968 5.80058 15.2737 5.42433 15.7368 5.42433C16.1994 5.42375 16.5768 5.80058 16.5768 6.26375Z"
      fill="white" />
  </g>
  <defs>
    <linearGradient id="paint0_linear_214_80" x1="0" y1="0" x2="0" y2="400"
      gradientUnits="userSpaceOnUse">
      <stop stop-color="#BBBBBB" stop-opacity="0.1" />
      <stop offset="1" stop-opacity="0.1" />
    </linearGradient>
  </defs>
</svg>
