<svg width="77" height="28" viewBox="0 0 77 28" fill="none" xmlns="http://www.w3.org/2000/svg">
<g clip-path="url(#clip0_220_294)">
<path d="M63 0H14C6.26801 0 0 6.26801 0 14C0 21.732 6.26801 28 14 28H63C70.732 28 77 21.732 77 14C77 6.26801 70.732 0 63 0Z" fill="#ED8B00"/>
<path d="M39.6461 10.7273H41.166V15.7983C41.166 16.267 41.0606 16.6742 40.8499 17.0199C40.6416 17.3655 40.3516 17.6319 39.9799 17.8189C39.6082 18.0059 39.1762 18.0994 38.6838 18.0994C38.2458 18.0994 37.8481 18.0225 37.4906 17.8686C37.1355 17.7124 36.8537 17.4756 36.6454 17.1584C36.4371 16.8388 36.3341 16.4375 36.3365 15.9545H37.867C37.8717 16.1463 37.9108 16.3108 37.9842 16.4482C38.0599 16.5831 38.1629 16.6873 38.2931 16.7607C38.4257 16.8317 38.582 16.8672 38.7619 16.8672C38.9513 16.8672 39.1111 16.8269 39.2413 16.7464C39.3739 16.6636 39.4745 16.5429 39.5431 16.3842C39.6118 16.2256 39.6461 16.0303 39.6461 15.7983V10.7273ZM43.6909 18H42.0431L44.5538 10.7273H46.5353L49.0424 18H47.3947L45.573 12.3892H45.5161L43.6909 18ZM43.5879 15.1413H47.4799V16.3416H43.5879V15.1413ZM50.3235 10.7273L52.0813 16.2528H52.1488L53.9101 10.7273H55.6147L53.1076 18H51.126L48.6154 10.7273H50.3235ZM56.7768 18H55.1291L57.6397 10.7273H59.6213L62.1284 18H60.4806L58.6589 12.3892H58.6021L56.7768 18ZM56.6738 15.1413H60.5659V16.3416H56.6738V15.1413Z" fill="white"/>
<path d="M20.5427 18.9219C17.6292 19.6938 22.306 21.2916 26.0116 19.8195C25.652 19.6864 25.305 19.5242 24.9744 19.3348C23.6879 19.6136 22.3589 19.6684 21.0519 19.4964C19.8167 19.3617 20.5427 18.9219 20.5427 18.9219ZM25.5684 17.4139C23.9089 17.7575 22.2011 17.8363 20.5145 17.6473C19.2792 17.5216 20.0901 16.9561 20.0901 16.9561C16.8843 17.9614 21.8722 19.1104 26.351 17.8537C26.0598 17.7627 25.7928 17.6126 25.5684 17.4139ZM27.2845 8.68018C27.2845 8.68018 20.8068 10.2151 23.8995 13.608C24.0201 13.7457 24.11 13.9054 24.1637 14.0773C24.2174 14.2492 24.2337 14.4297 24.2116 14.6078C24.1896 14.7859 24.1296 14.9578 24.0354 15.1131C23.9412 15.2684 23.8147 15.4038 23.6637 15.511C23.6637 15.511 25.9833 14.371 24.9178 12.9438C23.8523 11.5166 23.164 10.9511 27.2845 8.68018Z" fill="white"/>
<path d="M28.8024 20.385C28.8024 20.385 29.3304 20.7979 28.2083 21.121C26.068 21.7404 19.3168 21.9289 17.4404 21.121C16.7615 20.8428 18.025 20.4568 18.3833 20.376C18.5957 20.3238 18.8146 20.2997 19.0339 20.3042C18.2796 19.8016 14.178 21.2916 16.9501 21.7224C24.5405 22.9522 30.7542 21.2198 28.8024 20.385ZM26.2 16.0047C26.4772 15.8377 26.7672 15.6907 27.0674 15.5648C27.0674 15.5648 25.6436 15.8072 24.2387 15.9239C22.7279 16.0627 21.2074 16.0777 19.6939 15.9688C17.4498 15.6905 20.8914 14.8737 20.8914 14.8737C19.8557 14.8661 18.8335 15.097 17.9119 15.5469C15.9695 16.4714 22.7112 16.8754 26.2 16.0047ZM27.058 18.1948C27.0374 18.2253 27.012 18.2526 26.9826 18.2756C31.6971 17.0908 29.981 14.1017 27.718 14.8557C27.5932 14.8994 27.4849 14.9776 27.4069 15.0801C27.4069 15.0801 27.5389 15.0353 27.8123 14.9724C28.9627 14.748 30.5656 16.4355 27.058 18.1948ZM23.0224 14.8737C22.3246 13.3747 19.9485 12.0552 23.0224 9.74835C26.8789 6.86702 24.9082 5 24.9082 5C25.7002 7.97108 22.0795 8.86869 20.816 10.7178C19.9391 11.9834 21.2592 13.3388 23.0224 14.8737Z" fill="white"/>
<path d="M27.1806 22.3418C24.3319 22.8061 21.4249 22.8485 18.5625 22.4675C18.5625 22.4675 18.9962 22.8085 21.2403 22.9432C24.6442 23.1496 29.8679 22.8355 29.9999 21.3006C29.9999 21.3006 29.7548 21.875 27.1806 22.3418Z" fill="white"/>
</g>
<defs>
<clipPath id="clip0_220_294">
<rect width="77" height="28" fill="white"/>
</clipPath>
</defs>
</svg>
