<svg width="127" height="28" viewBox="0 0 127 28" fill="none" xmlns="http://www.w3.org/2000/svg">
<g clip-path="url(#clip0_220_289)">
<path d="M112.5 0H14C6.26801 0 0 6.26801 0 14C0 21.732 6.26801 28 14 28H112.5C120.232 28 126.5 21.732 126.5 14C126.5 6.26801 120.232 0 112.5 0Z" fill="#323330"/>
<path d="M45.6964 10.7273H47.2163V15.7983C47.2163 16.267 47.1109 16.6742 46.9002 17.0199C46.6919 17.3655 46.4019 17.6319 46.0302 17.8189C45.6585 18.0059 45.2264 18.0994 44.734 18.0994C44.296 18.0994 43.8983 18.0225 43.5408 17.8686C43.1857 17.7124 42.904 17.4756 42.6957 17.1584C42.4873 16.8388 42.3844 16.4375 42.3867 15.9545H43.9173C43.922 16.1463 43.9611 16.3108 44.0344 16.4482C44.1102 16.5831 44.2132 16.6873 44.3434 16.7607C44.476 16.8317 44.6322 16.8672 44.8121 16.8672C45.0015 16.8672 45.1613 16.8269 45.2915 16.7464C45.4241 16.6636 45.5247 16.5429 45.5934 16.3842C45.6621 16.2256 45.6964 16.0303 45.6964 15.7983V10.7273ZM49.7411 18H48.0934L50.604 10.7273H52.5856L55.0927 18H53.445L51.6232 12.3892H51.5664L49.7411 18ZM49.6381 15.1413H53.5302V16.3416H49.6381V15.1413ZM56.3738 10.7273L58.1316 16.2528H58.199L59.9604 10.7273H61.665L59.1578 18H57.1763L54.6657 10.7273H56.3738ZM62.8271 18H61.1793L63.69 10.7273H65.6715L68.1786 18H66.5309L64.7092 12.3892H64.6523L62.8271 18ZM62.7241 15.1413H66.6161V16.3416H62.7241V15.1413ZM72.8333 12.8189C72.8049 12.5324 72.6829 12.3099 72.4675 12.1513C72.2521 11.9927 71.9597 11.9134 71.5904 11.9134C71.3394 11.9134 71.1275 11.9489 70.9547 12.0199C70.7819 12.0885 70.6493 12.1844 70.557 12.3075C70.467 12.4306 70.4221 12.5703 70.4221 12.7266C70.4173 12.8568 70.4445 12.9704 70.5037 13.0675C70.5653 13.1645 70.6493 13.2486 70.7559 13.3196C70.8624 13.3883 70.9855 13.4486 71.1252 13.5007C71.2649 13.5504 71.414 13.593 71.5726 13.6286L72.226 13.7848C72.5433 13.8558 72.8345 13.9505 73.0996 14.0689C73.3648 14.1873 73.5944 14.3329 73.7885 14.5057C73.9827 14.6785 74.133 14.8821 74.2395 15.1165C74.3484 15.3509 74.4041 15.6196 74.4064 15.9226C74.4041 16.3677 74.2904 16.7536 74.0655 17.0803C73.843 17.4046 73.521 17.6567 73.0996 17.8366C72.6806 18.0142 72.1751 18.103 71.5833 18.103C70.9962 18.103 70.4848 18.013 70.0492 17.8331C69.6159 17.6532 69.2774 17.3868 69.0336 17.0341C68.7921 16.679 68.6654 16.2398 68.6536 15.7166H70.1415C70.1581 15.9605 70.2279 16.1641 70.351 16.3274C70.4765 16.4884 70.6434 16.6103 70.8517 16.6932C71.0624 16.7737 71.3004 16.8139 71.5655 16.8139C71.8259 16.8139 72.052 16.776 72.2438 16.7003C72.4379 16.6245 72.5882 16.5192 72.6948 16.3842C72.8013 16.2493 72.8546 16.0942 72.8546 15.919C72.8546 15.7557 72.806 15.6184 72.709 15.5071C72.6143 15.3958 72.4746 15.3011 72.29 15.223C72.1077 15.1449 71.8839 15.0739 71.6188 15.0099L70.8269 14.8111C70.2137 14.6619 69.7296 14.4287 69.3745 14.1115C69.0194 13.7943 68.843 13.367 68.8453 12.8295C68.843 12.3892 68.9602 12.0045 69.1969 11.6754C69.436 11.3464 69.7639 11.0895 70.1806 10.9048C70.5972 10.7202 71.0707 10.6278 71.601 10.6278C72.1408 10.6278 72.6119 10.7202 73.0144 10.9048C73.4192 11.0895 73.7341 11.3464 73.959 11.6754C74.1839 12.0045 74.2999 12.3857 74.307 12.8189H72.8333ZM81.8576 13.2734H80.3022C80.2738 13.0722 80.2158 12.8935 80.1282 12.7372C80.0406 12.5786 79.9281 12.4437 79.7908 12.3324C79.6535 12.2211 79.4949 12.1359 79.315 12.0767C79.1374 12.0175 78.9445 11.9879 78.7362 11.9879C78.3597 11.9879 78.0318 12.0814 77.7525 12.2685C77.4731 12.4531 77.2565 12.723 77.1026 13.0781C76.9487 13.4309 76.8718 13.8594 76.8718 14.3636C76.8718 14.8821 76.9487 15.3177 77.1026 15.6705C77.2589 16.0232 77.4767 16.2895 77.756 16.4695C78.0354 16.6494 78.3585 16.7393 78.7255 16.7393C78.9315 16.7393 79.122 16.7121 79.2972 16.6577C79.4748 16.6032 79.6322 16.5239 79.7695 16.4197C79.9068 16.3132 80.0205 16.1842 80.1104 16.0327C80.2028 15.8812 80.2667 15.7083 80.3022 15.5142L81.8576 15.5213C81.8174 15.8551 81.7167 16.1771 81.5558 16.4872C81.3971 16.795 81.1829 17.0708 80.913 17.3146C80.6455 17.5561 80.3259 17.7479 79.9542 17.8899C79.5849 18.0296 79.167 18.0994 78.7006 18.0994C78.052 18.0994 77.4719 17.9527 76.9606 17.6591C76.4516 17.3655 76.0491 16.9406 75.7532 16.3842C75.4596 15.8279 75.3129 15.1544 75.3129 14.3636C75.3129 13.5705 75.462 12.8958 75.7603 12.3395C76.0586 11.7831 76.4634 11.3594 76.9748 11.0682C77.4862 10.7746 78.0614 10.6278 78.7006 10.6278C79.122 10.6278 79.5127 10.687 79.8725 10.8054C80.2347 10.9238 80.5555 11.0966 80.8349 11.3239C81.1142 11.5488 81.3415 11.8246 81.5167 12.1513C81.6942 12.478 81.8079 12.852 81.8576 13.2734ZM82.9602 18V10.7273H85.8295C86.3788 10.7273 86.8475 10.8255 87.2358 11.022C87.6264 11.2161 87.9235 11.492 88.1271 11.8494C88.3331 12.2045 88.4361 12.6224 88.4361 13.103C88.4361 13.5859 88.3319 14.0014 88.1236 14.3494C87.9152 14.6951 87.6134 14.9602 87.218 15.1449C86.825 15.3295 86.3492 15.4219 85.7905 15.4219H83.8693V14.1861H85.5419C85.8355 14.1861 86.0793 14.1458 86.2734 14.0653C86.4676 13.9848 86.612 13.8641 86.7067 13.7031C86.8037 13.5421 86.8523 13.3421 86.8523 13.103C86.8523 12.8615 86.8037 12.6579 86.7067 12.4922C86.612 12.3265 86.4664 12.201 86.2699 12.1158C86.0758 12.0282 85.8307 11.9844 85.5348 11.9844H84.4979V18H82.9602ZM86.8878 14.6903L88.6953 18H86.9979L85.2294 14.6903H86.8878ZM91.0604 10.7273V18H89.5227V10.7273H91.0604ZM92.3255 18V10.7273H95.1948C95.7464 10.7273 96.2163 10.8326 96.6046 11.0433C96.9928 11.2517 97.2888 11.5417 97.4924 11.9134C97.6983 12.2827 97.8013 12.7088 97.8013 13.1918C97.8013 13.6747 97.6971 14.1009 97.4888 14.4702C97.2805 14.8395 96.9786 15.1271 96.5833 15.3331C96.1903 15.5391 95.7144 15.642 95.1557 15.642H93.3269V14.4098H94.9071C95.2031 14.4098 95.4469 14.3589 95.6387 14.2571C95.8328 14.1529 95.9772 14.0097 96.0719 13.8274C96.169 13.6428 96.2175 13.4309 96.2175 13.1918C96.2175 12.9503 96.169 12.7396 96.0719 12.5597C95.9772 12.3774 95.8328 12.2365 95.6387 12.1371C95.4445 12.0353 95.1983 11.9844 94.9 11.9844H93.8631V18H92.3255ZM98.5231 11.995V10.7273H104.496V11.995H102.27V18H100.75V11.995H98.5231Z" fill="white"/>
<path d="M16 6H32V22H16V6ZM30.6893 18.184C30.5727 17.454 30.0973 16.8407 28.6873 16.2687C28.1967 16.0387 27.6513 15.8787 27.4893 15.5087C27.4287 15.2887 27.4193 15.1687 27.4587 15.0387C27.5587 14.608 28.0687 14.4787 28.4687 14.5987C28.7287 14.6787 28.9687 14.8787 29.1193 15.1987C29.8087 14.748 29.8087 14.748 30.2893 14.4487C30.1093 14.1687 30.02 14.048 29.8987 13.9287C29.4787 13.4587 28.9193 13.2187 28.0093 13.2393L27.5393 13.2987C27.0887 13.4087 26.6593 13.6487 26.3993 13.9687C25.6393 14.8293 25.8587 16.3293 26.7787 16.9493C27.6887 17.6293 29.0193 17.7787 29.1893 18.4193C29.3493 19.1993 28.6093 19.4493 27.8787 19.3593C27.338 19.2393 27.0387 18.9687 26.7087 18.4687L25.4887 19.1693C25.6287 19.4893 25.7887 19.6287 26.0287 19.9087C27.1887 21.0793 30.0887 21.0193 30.6093 19.2393C30.6287 19.1793 30.7693 18.7693 30.6587 18.1393L30.6893 18.184ZM24.7007 13.354H23.202C23.202 14.646 23.196 15.93 23.196 17.224C23.196 18.0453 23.238 18.7993 23.104 19.0313C22.884 19.4907 22.3173 19.432 22.06 19.3513C21.796 19.2207 21.662 19.0407 21.5067 18.7813C21.4647 18.7113 21.4333 18.6507 21.422 18.6507L20.2053 19.4007C20.4087 19.8207 20.7053 20.182 21.088 20.412C21.658 20.752 22.424 20.862 23.226 20.682C23.748 20.5313 24.198 20.2213 24.4333 19.7413C24.7733 19.1213 24.7013 18.3613 24.698 17.5107C24.706 16.1413 24.698 14.7713 24.698 13.3913L24.7007 13.354Z" fill="#F7DF1E"/>
</g>
<defs>
<clipPath id="clip0_220_289">
<rect width="126.5" height="28" fill="white"/>
</clipPath>
</defs>
</svg>
