<svg width="71" height="28" viewBox="0 0 71 28" fill="none" xmlns="http://www.w3.org/2000/svg">
<g clip-path="url(#clip0_220_254)">
<path d="M56.75 0H14C6.26801 0 0 6.26801 0 14C0 21.732 6.26801 28 14 28H56.75C64.482 28 70.75 21.732 70.75 14C70.75 6.26801 64.482 0 56.75 0Z" fill="black"/>
<path d="M39.672 10.7273H41.1919V15.7983C41.1919 16.267 41.0865 16.6742 40.8758 17.0199C40.6675 17.3655 40.3775 17.6319 40.0058 17.8189C39.6341 18.0059 39.202 18.0994 38.7096 18.0994C38.2716 18.0994 37.8739 18.0225 37.5164 17.8686C37.1613 17.7124 36.8796 17.4756 36.6713 17.1584C36.4629 16.8388 36.3599 16.4375 36.3623 15.9545H37.8928C37.8976 16.1463 37.9366 16.3108 38.01 16.4482C38.0858 16.5831 38.1888 16.6873 38.319 16.7607C38.4516 16.8317 38.6078 16.8672 38.7877 16.8672C38.9771 16.8672 39.1369 16.8269 39.2671 16.7464C39.3997 16.6636 39.5003 16.5429 39.569 16.3842C39.6376 16.2256 39.672 16.0303 39.672 15.7983V10.7273ZM44.1002 18L42.0193 10.7273H43.699L44.9028 15.7805H44.9632L46.2913 10.7273H47.7295L49.0541 15.7912H49.118L50.3218 10.7273H52.0015L49.9205 18H48.422L47.037 13.245H46.9802L45.5988 18H44.1002ZM52.5475 11.995V10.7273H58.5205V11.995H56.2939V18H54.7741V11.995H52.5475Z" fill="white"/>
<path d="M17.7976 6V10.304L19 11.952L20.2024 10.304V6H17.7976ZM20.2024 10.304V12.352L22.1423 11.712L24.6914 8.24L22.7355 6.816L20.2024 10.304ZM22.1423 11.712L20.9399 13.376L22.8958 14L27 12.672L26.2465 10.384L22.1423 11.712ZM22.8958 14L20.9399 14.624L22.1423 16.288L26.2465 17.616L27 15.328L22.8958 14ZM22.1423 16.288L20.2024 15.648V17.696L22.7355 21.184L24.6914 19.76L22.1423 16.288ZM20.2024 17.696L19 16.048L17.7976 17.696V22H20.2024V17.696ZM17.7976 17.696V15.648L15.8577 16.288L13.3086 19.76L15.2645 21.184L17.7976 17.696ZM15.8577 16.288L17.0601 14.624L15.1042 14L11 15.328L11.7535 17.616L15.8577 16.288ZM15.1042 14L17.0601 13.376L15.8577 11.712L11.7535 10.384L11 12.672L15.1042 14ZM15.8577 11.712L17.7976 12.352V10.304L15.2645 6.816L13.3086 8.24L15.8577 11.712Z" fill="#F5F5F5"/>
</g>
<defs>
<clipPath id="clip0_220_254">
<rect width="70.75" height="28" fill="white"/>
</clipPath>
</defs>
</svg>
