<svg width="123" height="28" viewBox="0 0 123 28" fill="none" xmlns="http://www.w3.org/2000/svg">
<g clip-path="url(#clip0_220_284)">
<path d="M109 0H14C6.26801 0 0 6.26801 0 14C0 21.732 6.26801 28 14 28H109C116.732 28 123 21.732 123 14C123 6.26801 116.732 0 109 0Z" fill="black"/>
<path d="M43.8186 10.7273H45.7149L47.7178 15.6136H47.803L49.8058 10.7273H51.7021V18H50.2107V13.2663H50.1503L48.2682 17.9645H47.2526L45.3705 13.2486H45.3101V18H43.8186V10.7273ZM54.2226 18H52.5748L55.0855 10.7273H57.067L59.5741 18H57.9264L56.1047 12.3892H56.0479L54.2226 18ZM54.1196 15.1413H58.0116V16.3416H54.1196V15.1413ZM60.4495 18V10.7273H63.3188C63.868 10.7273 64.3368 10.8255 64.7251 11.022C65.1157 11.2161 65.4128 11.492 65.6164 11.8494C65.8224 12.2045 65.9253 12.6224 65.9253 13.103C65.9253 13.5859 65.8212 14.0014 65.6128 14.3494C65.4045 14.6951 65.1027 14.9602 64.7073 15.1449C64.3143 15.3295 63.8385 15.4219 63.2797 15.4219H61.3586V14.1861H63.0312C63.3247 14.1861 63.5686 14.1458 63.7627 14.0653C63.9568 13.9848 64.1012 13.8641 64.1959 13.7031C64.293 13.5421 64.3415 13.3421 64.3415 13.103C64.3415 12.8615 64.293 12.6579 64.1959 12.4922C64.1012 12.3265 63.9556 12.201 63.7591 12.1158C63.565 12.0282 63.32 11.9844 63.0241 11.9844H61.9871V18H60.4495ZM64.377 14.6903L66.1846 18H64.4871L62.7187 14.6903H64.377ZM67.012 18V10.7273H68.5496V13.9339H68.6455L71.2627 10.7273H73.1057L70.4069 13.9837L73.1377 18H71.2982L69.306 15.0099L68.5496 15.9332V18H67.012ZM76.4846 18H73.9065V10.7273H76.5059C77.2375 10.7273 77.8672 10.8729 78.3952 11.1641C78.9231 11.4529 79.3291 11.8684 79.6132 12.4105C79.8997 12.9527 80.0429 13.6013 80.0429 14.3565C80.0429 15.1141 79.8997 15.7652 79.6132 16.3097C79.3291 16.8542 78.9207 17.272 78.3881 17.5632C77.8577 17.8544 77.2233 18 76.4846 18ZM75.4442 16.6825H76.4207C76.8753 16.6825 77.2576 16.602 77.5677 16.4411C77.8802 16.2777 78.1146 16.0256 78.2709 15.6847C78.4295 15.3414 78.5088 14.8987 78.5088 14.3565C78.5088 13.8191 78.4295 13.38 78.2709 13.0391C78.1146 12.6982 77.8814 12.4472 77.5713 12.2862C77.2612 12.1252 76.8788 12.0447 76.4243 12.0447H75.4442V16.6825ZM87.8651 14.3636C87.8651 15.1567 87.7148 15.8314 87.4142 16.3878C87.1159 16.9441 86.7087 17.3691 86.1926 17.6626C85.6788 17.9538 85.1012 18.0994 84.4596 18.0994C83.8133 18.0994 83.2333 17.9527 82.7195 17.6591C82.2058 17.3655 81.7998 16.9406 81.5015 16.3842C81.2032 15.8279 81.0541 15.1544 81.0541 14.3636C81.0541 13.5705 81.2032 12.8958 81.5015 12.3395C81.7998 11.7831 82.2058 11.3594 82.7195 11.0682C83.2333 10.7746 83.8133 10.6278 84.4596 10.6278C85.1012 10.6278 85.6788 10.7746 86.1926 11.0682C86.7087 11.3594 87.1159 11.7831 87.4142 12.3395C87.7148 12.8958 87.8651 13.5705 87.8651 14.3636ZM86.3062 14.3636C86.3062 13.8499 86.2293 13.4167 86.0754 13.0639C85.9239 12.7112 85.7096 12.4437 85.4326 12.2614C85.1556 12.0791 84.8313 11.9879 84.4596 11.9879C84.0879 11.9879 83.7636 12.0791 83.4866 12.2614C83.2096 12.4437 82.9942 12.7112 82.8403 13.0639C82.6888 13.4167 82.613 13.8499 82.613 14.3636C82.613 14.8774 82.6888 15.3106 82.8403 15.6634C82.9942 16.0161 83.2096 16.2836 83.4866 16.4659C83.7636 16.6482 84.0879 16.7393 84.4596 16.7393C84.8313 16.7393 85.1556 16.6482 85.4326 16.4659C85.7096 16.2836 85.9239 16.0161 86.0754 15.6634C86.2293 15.3106 86.3062 14.8774 86.3062 14.3636ZM90.3678 18L88.2868 10.7273H89.9665L91.1704 15.7805H91.2307L92.5589 10.7273H93.9971L95.3216 15.7912H95.3856L96.5894 10.7273H98.2691L96.1881 18H94.6895L93.3046 13.245H93.2478L91.8664 18H90.3678ZM105.175 10.7273V18H103.847L100.683 13.4226H100.63V18H99.0921V10.7273H100.441L103.581 15.3011H103.645V10.7273H105.175Z" fill="white"/>
<path d="M34.1258 22H11.8742C11.628 22 11.3843 21.9515 11.157 21.8573C10.9296 21.7632 10.723 21.6251 10.5489 21.4511C10.3749 21.2771 10.2368 21.0705 10.1427 20.8431C10.0485 20.6157 10 20.372 10 20.1259V7.87407C10 7.37704 10.1975 6.90036 10.5489 6.5489C10.9004 6.19745 11.3771 6 11.8742 6H34.1258C34.372 6 34.6157 6.04847 34.843 6.14266C35.0704 6.23684 35.277 6.37488 35.4511 6.5489C35.6251 6.72293 35.7632 6.92952 35.8573 7.15689C35.9515 7.38427 36 7.62796 36 7.87407V20.1238C36.0001 20.37 35.9518 20.6138 35.8576 20.8413C35.7635 21.0688 35.6255 21.2755 35.4515 21.4496C35.2774 21.6238 35.0708 21.7619 34.8433 21.8562C34.6158 21.9504 34.372 22 34.1258 22ZM16.2498 18.2497V13.3749L18.7501 16.5002L21.2493 13.3749V18.2497H23.7497V9.75139H21.2493L18.7501 12.8766L16.2498 9.75139H13.7483V18.2519L16.2498 18.2497ZM33.0013 14H30.4999V9.7503H28.0007V14H25.5003L29.2497 18.3754L33.0013 14Z" fill="white"/>
</g>
<defs>
<clipPath id="clip0_220_284">
<rect width="123" height="28" fill="white"/>
</clipPath>
</defs>
</svg>
