<svg width="111" height="28" viewBox="0 0 111 28" fill="none" xmlns="http://www.w3.org/2000/svg">
<g clip-path="url(#clip0_220_189)">
<path d="M96.75 0H14C6.26801 0 0 6.26801 0 14C0 21.732 6.26801 28 14 28H96.75C104.482 28 110.75 21.732 110.75 14C110.75 6.26801 104.482 0 96.75 0Z" fill="#4EA94B"/>
<path d="M43.8108 10.7273H45.7071L47.71 15.6136H47.7952L49.798 10.7273H51.6943V18H50.2029V13.2663H50.1425L48.2604 17.9645H47.2448L45.3627 13.2486H45.3023V18H43.8108V10.7273ZM59.6444 14.3636C59.6444 15.1567 59.4941 15.8314 59.1934 16.3878C58.8952 16.9441 58.488 17.3691 57.9719 17.6626C57.4581 17.9538 56.8805 18.0994 56.2389 18.0994C55.5926 18.0994 55.0126 17.9527 54.4988 17.6591C53.9851 17.3655 53.5791 16.9406 53.2808 16.3842C52.9825 15.8279 52.8334 15.1544 52.8334 14.3636C52.8334 13.5705 52.9825 12.8958 53.2808 12.3395C53.5791 11.7831 53.9851 11.3594 54.4988 11.0682C55.0126 10.7746 55.5926 10.6278 56.2389 10.6278C56.8805 10.6278 57.4581 10.7746 57.9719 11.0682C58.488 11.3594 58.8952 11.7831 59.1934 12.3395C59.4941 12.8958 59.6444 13.5705 59.6444 14.3636ZM58.0855 14.3636C58.0855 13.8499 58.0086 13.4167 57.8547 13.0639C57.7032 12.7112 57.4889 12.4437 57.2119 12.2614C56.9349 12.0791 56.6106 11.9879 56.2389 11.9879C55.8672 11.9879 55.5429 12.0791 55.2659 12.2614C54.9889 12.4437 54.7735 12.7112 54.6196 13.0639C54.4681 13.4167 54.3923 13.8499 54.3923 14.3636C54.3923 14.8774 54.4681 15.3106 54.6196 15.6634C54.7735 16.0161 54.9889 16.2836 55.2659 16.4659C55.5429 16.6482 55.8672 16.7393 56.2389 16.7393C56.6106 16.7393 56.9349 16.6482 57.2119 16.4659C57.4889 16.2836 57.7032 16.0161 57.8547 15.6634C58.0086 15.3106 58.0855 14.8774 58.0855 14.3636ZM66.8666 10.7273V18H65.5384L62.3744 13.4226H62.3211V18H60.7835V10.7273H62.1329L65.2721 15.3011H65.336V10.7273H66.8666ZM72.9594 13.0781C72.9097 12.9053 72.8399 12.7526 72.7499 12.62C72.6599 12.4851 72.5499 12.3714 72.4197 12.2791C72.2918 12.1844 72.145 12.1122 71.9793 12.0625C71.816 12.0128 71.6349 11.9879 71.436 11.9879C71.0643 11.9879 70.7376 12.0803 70.4559 12.2649C70.1765 12.4496 69.9587 12.7183 69.8025 13.071C69.6462 13.4214 69.5681 13.8499 69.5681 14.3565C69.5681 14.8632 69.645 15.294 69.7989 15.6491C69.9528 16.0043 70.1706 16.2753 70.4523 16.4624C70.734 16.647 71.0667 16.7393 71.4502 16.7393C71.7982 16.7393 72.0953 16.6778 72.3415 16.5547C72.5901 16.4292 72.7795 16.2528 72.9097 16.0256C73.0423 15.7983 73.1086 15.5296 73.1086 15.2195L73.4211 15.2656H71.5461V14.108H74.5894V15.0241C74.5894 15.6634 74.4545 16.2126 74.1846 16.6719C73.9147 17.1288 73.543 17.4815 73.0695 17.7301C72.596 17.9763 72.0539 18.0994 71.4431 18.0994C70.7613 18.0994 70.1623 17.9491 69.6462 17.6484C69.1301 17.3454 68.7277 16.9157 68.4388 16.3594C68.1524 15.8007 68.0091 15.1378 68.0091 14.3707C68.0091 13.7812 68.0944 13.2557 68.2648 12.794C68.4376 12.33 68.6791 11.937 68.9893 11.6151C69.2994 11.2931 69.6604 11.0481 70.0724 10.88C70.4843 10.7119 70.9305 10.6278 71.4111 10.6278C71.8231 10.6278 72.2066 10.6882 72.5617 10.8089C72.9168 10.9273 73.2317 11.0954 73.5063 11.3132C73.7833 11.531 74.0094 11.7902 74.1846 12.0909C74.3598 12.3892 74.4722 12.7183 74.5219 13.0781H72.9594ZM82.4276 14.3636C82.4276 15.1567 82.2773 15.8314 81.9767 16.3878C81.6784 16.9441 81.2712 17.3691 80.7551 17.6626C80.2413 17.9538 79.6637 18.0994 79.0221 18.0994C78.3758 18.0994 77.7958 17.9527 77.282 17.6591C76.7683 17.3655 76.3623 16.9406 76.064 16.3842C75.7657 15.8279 75.6166 15.1544 75.6166 14.3636C75.6166 13.5705 75.7657 12.8958 76.064 12.3395C76.3623 11.7831 76.7683 11.3594 77.282 11.0682C77.7958 10.7746 78.3758 10.6278 79.0221 10.6278C79.6637 10.6278 80.2413 10.7746 80.7551 11.0682C81.2712 11.3594 81.6784 11.7831 81.9767 12.3395C82.2773 12.8958 82.4276 13.5705 82.4276 14.3636ZM80.8687 14.3636C80.8687 13.8499 80.7918 13.4167 80.6379 13.0639C80.4864 12.7112 80.2721 12.4437 79.9951 12.2614C79.7181 12.0791 79.3938 11.9879 79.0221 11.9879C78.6504 11.9879 78.3261 12.0791 78.0491 12.2614C77.7721 12.4437 77.5567 12.7112 77.4028 13.0639C77.2513 13.4167 77.1755 13.8499 77.1755 14.3636C77.1755 14.8774 77.2513 15.3106 77.4028 15.6634C77.5567 16.0161 77.7721 16.2836 78.0491 16.4659C78.3261 16.6482 78.6504 16.7393 79.0221 16.7393C79.3938 16.7393 79.7181 16.6482 79.9951 16.4659C80.2721 16.2836 80.4864 16.0161 80.6379 15.6634C80.7918 15.3106 80.8687 14.8774 80.8687 14.3636ZM86.1448 18H83.5667V10.7273H86.1661C86.8976 10.7273 87.5274 10.8729 88.0553 11.1641C88.5832 11.4529 88.9893 11.8684 89.2733 12.4105C89.5598 12.9527 89.703 13.6013 89.703 14.3565C89.703 15.1141 89.5598 15.7652 89.2733 16.3097C88.9893 16.8542 88.5809 17.272 88.0482 17.5632C87.5179 17.8544 86.8834 18 86.1448 18ZM85.1043 16.6825H86.0809C86.5354 16.6825 86.9178 16.602 87.2279 16.4411C87.5404 16.2777 87.7748 16.0256 87.931 15.6847C88.0896 15.3414 88.1689 14.8987 88.1689 14.3565C88.1689 13.8191 88.0896 13.38 87.931 13.0391C87.7748 12.6982 87.5416 12.4472 87.2314 12.2862C86.9213 12.1252 86.539 12.0447 86.0844 12.0447H85.1043V16.6825ZM90.8421 18V10.7273H93.754C94.289 10.7273 94.7353 10.8066 95.0928 10.9652C95.4503 11.1238 95.719 11.344 95.8989 11.6257C96.0788 11.9051 96.1688 12.227 96.1688 12.5916C96.1688 12.8757 96.1119 13.1255 95.9983 13.3409C95.8847 13.554 95.7284 13.7292 95.5296 13.8665C95.3331 14.0014 95.1082 14.0973 94.8548 14.1541V14.2251C95.1318 14.237 95.3911 14.3151 95.6325 14.4595C95.8764 14.6039 96.0741 14.8063 96.2256 15.0668C96.3771 15.3248 96.4529 15.6326 96.4529 15.9901C96.4529 16.3759 96.357 16.7204 96.1652 17.0234C95.9758 17.3241 95.6953 17.562 95.3236 17.7372C94.9519 17.9124 94.4938 18 93.9493 18H90.8421ZM92.3797 16.7429H93.6333C94.0618 16.7429 94.3743 16.6612 94.5708 16.4979C94.7673 16.3321 94.8655 16.112 94.8655 15.8374C94.8655 15.6361 94.817 15.4586 94.7199 15.3047C94.6228 15.1508 94.4843 15.0301 94.3044 14.9425C94.1269 14.8549 93.915 14.8111 93.6688 14.8111H92.3797V16.7429ZM92.3797 13.7706H93.5196C93.7303 13.7706 93.9173 13.7339 94.0807 13.6605C94.2464 13.5848 94.3766 13.4782 94.4713 13.3409C94.5684 13.2036 94.6169 13.0391 94.6169 12.8473C94.6169 12.5845 94.5234 12.3726 94.3364 12.2116C94.1517 12.0507 93.8889 11.9702 93.548 11.9702H92.3797V13.7706Z" fill="white"/>
<path d="M27.8348 11.9625C26.7797 7.3125 24.2854 5.78417 24.0174 5.2C23.7837 4.87167 23.575 4.405 23.4039 4C23.3738 4.4125 23.358 4.57083 22.9673 4.98667C22.3638 5.45833 19.2626 8.055 19.0105 13.3367C18.7751 18.2633 22.575 21.1992 23.0908 21.5733L23.1493 21.615C23.2567 22.4081 23.3486 23.2033 23.4248 24H23.8263C23.9214 23.14 24.0634 22.2867 24.252 21.4417C24.6001 21.195 24.7562 21.0558 24.9616 20.8642C25.934 19.9661 26.7069 18.8743 27.2302 17.6593C27.7534 16.4443 28.0154 15.1332 27.9993 13.8108C28.0076 13.1325 27.9133 12.4258 27.8348 11.9625ZM23.3805 18.7917C23.3805 18.7917 23.3805 11.8825 23.6101 11.8833C23.7879 11.8833 24.0191 20.7958 24.0191 20.7958C23.7011 20.7583 23.3805 19.3292 23.3805 18.7917Z" fill="white"/>
</g>
<defs>
<clipPath id="clip0_220_189">
<rect width="110.75" height="28" fill="white"/>
</clipPath>
</defs>
</svg>
