<svg width="89" height="28" viewBox="0 0 89 28" fill="none" xmlns="http://www.w3.org/2000/svg">
<g clip-path="url(#clip0_220_184)">
<path d="M74.25 0H14C6.26801 0 0 6.26801 0 14C0 21.732 6.26801 28 14 28H74.25C81.982 28 88.25 21.732 88.25 14C88.25 6.26801 81.982 0 74.25 0Z" fill="#0000FF"/>
<path d="M38.9094 10.7273H40.8058L42.8086 15.6136H42.8938L44.8967 10.7273H46.793V18H45.3015V13.2663H45.2411L43.359 17.9645H42.3434L40.4613 13.2486H40.4009V18H38.9094V10.7273ZM47.6337 10.7273H49.356L51.0144 13.8594H51.0854L52.7438 10.7273H54.4661L51.8134 15.429V18H50.2864V15.429L47.6337 10.7273ZM59.2512 12.8189C59.2228 12.5324 59.1009 12.3099 58.8855 12.1513C58.67 11.9927 58.3777 11.9134 58.0083 11.9134C57.7574 11.9134 57.5455 11.9489 57.3727 12.0199C57.1999 12.0885 57.0673 12.1844 56.975 12.3075C56.885 12.4306 56.84 12.5703 56.84 12.7266C56.8353 12.8568 56.8625 12.9704 56.9217 13.0675C56.9833 13.1645 57.0673 13.2486 57.1738 13.3196C57.2804 13.3883 57.4035 13.4486 57.5431 13.5007C57.6828 13.5504 57.832 13.593 57.9906 13.6286L58.644 13.7848C58.9612 13.8558 59.2524 13.9505 59.5176 14.0689C59.7827 14.1873 60.0124 14.3329 60.2065 14.5057C60.4006 14.6785 60.551 14.8821 60.6575 15.1165C60.7664 15.3509 60.822 15.6196 60.8244 15.9226C60.822 16.3677 60.7084 16.7536 60.4835 17.0803C60.2609 17.4046 59.939 17.6567 59.5176 17.8366C59.0985 18.0142 58.5931 18.103 58.0012 18.103C57.4141 18.103 56.9028 18.013 56.4672 17.8331C56.0339 17.6532 55.6954 17.3868 55.4515 17.0341C55.21 16.679 55.0834 16.2398 55.0716 15.7166H56.5595C56.5761 15.9605 56.6459 16.1641 56.769 16.3274C56.8945 16.4884 57.0614 16.6103 57.2697 16.6932C57.4804 16.7737 57.7183 16.8139 57.9835 16.8139C58.2439 16.8139 58.47 16.776 58.6618 16.7003C58.8559 16.6245 59.0062 16.5192 59.1127 16.3842C59.2193 16.2493 59.2725 16.0942 59.2725 15.919C59.2725 15.7557 59.224 15.6184 59.127 15.5071C59.0323 15.3958 58.8926 15.3011 58.7079 15.223C58.5256 15.1449 58.3019 15.0739 58.0368 15.0099L57.2449 14.8111C56.6317 14.6619 56.1475 14.4287 55.7924 14.1115C55.4373 13.7943 55.2609 13.367 55.2633 12.8295C55.2609 12.3892 55.3781 12.0045 55.6149 11.6754C55.854 11.3464 56.1819 11.0895 56.5985 10.9048C57.0152 10.7202 57.4887 10.6278 58.019 10.6278C58.5588 10.6278 59.0299 10.7202 59.4324 10.9048C59.8372 11.0895 60.152 11.3464 60.377 11.6754C60.6019 12.0045 60.7179 12.3857 60.725 12.8189H59.2512ZM64.6037 15.4716H65.9105L66.5675 16.3168L67.2138 17.0696L68.4318 18.5966H66.9972L66.1591 17.5668L65.7294 16.956L64.6037 15.4716ZM68.5419 14.3636C68.5419 15.1567 68.3916 15.8314 68.0909 16.3878C67.7926 16.9441 67.3854 17.3691 66.8693 17.6626C66.3556 17.9538 65.7779 18.0994 65.1364 18.0994C64.4901 18.0994 63.91 17.9527 63.3963 17.6591C62.8826 17.3655 62.4766 16.9406 62.1783 16.3842C61.88 15.8279 61.7308 15.1544 61.7308 14.3636C61.7308 13.5705 61.88 12.8958 62.1783 12.3395C62.4766 11.7831 62.8826 11.3594 63.3963 11.0682C63.91 10.7746 64.4901 10.6278 65.1364 10.6278C65.7779 10.6278 66.3556 10.7746 66.8693 11.0682C67.3854 11.3594 67.7926 11.7831 68.0909 12.3395C68.3916 12.8958 68.5419 13.5705 68.5419 14.3636ZM66.983 14.3636C66.983 13.8499 66.906 13.4167 66.7521 13.0639C66.6006 12.7112 66.3864 12.4437 66.1094 12.2614C65.8324 12.0791 65.508 11.9879 65.1364 11.9879C64.7647 11.9879 64.4403 12.0791 64.1634 12.2614C63.8864 12.4437 63.6709 12.7112 63.517 13.0639C63.3655 13.4167 63.2898 13.8499 63.2898 14.3636C63.2898 14.8774 63.3655 15.3106 63.517 15.6634C63.6709 16.0161 63.8864 16.2836 64.1634 16.4659C64.4403 16.6482 64.7647 16.7393 65.1364 16.7393C65.508 16.7393 65.8324 16.6482 66.1094 16.4659C66.3864 16.2836 66.6006 16.0161 66.7521 15.6634C66.906 15.3106 66.983 14.8774 66.983 14.3636ZM69.6809 18V10.7273H71.2186V16.7322H74.3365V18H69.6809Z" fill="white"/>
<path d="M26.405 7.61987C26.29 7.61987 26.212 7.63361 26.131 7.65227V7.66503H26.145C26.199 7.76714 26.291 7.84175 26.359 7.93306C26.413 8.03811 26.459 8.14316 26.513 8.24723L26.527 8.2325C26.621 8.1677 26.667 8.06363 26.667 7.90557C26.627 7.85942 26.621 7.81328 26.587 7.76812C26.547 7.70234 26.461 7.66994 26.407 7.61791L26.405 7.61987ZM15.77 20.5735H14.843C14.8169 19.1271 14.7268 17.6825 14.573 16.2438H14.565L13.155 20.5735H12.45L11.05 16.2438H11.04C10.9305 17.6848 10.8655 19.1287 10.845 20.5735H10C10.055 18.6433 10.192 16.8329 10.41 15.1442H11.56L12.895 19.1342H12.903L14.25 15.1442H15.345C15.587 17.1225 15.729 18.9339 15.773 20.5735H15.77ZM19.787 16.5678C19.409 18.5756 18.911 20.0364 18.295 20.9466C17.813 21.6495 17.285 22 16.712 22C16.559 22 16.372 21.9548 16.146 21.8645V21.3795C16.256 21.3962 16.386 21.405 16.532 21.405C16.8 21.405 17.015 21.3314 17.179 21.1871C17.376 21.0104 17.474 20.812 17.474 20.5931C17.474 20.4409 17.397 20.1317 17.244 19.6663L16.23 16.5678H17.14L17.867 18.8848C18.031 19.411 18.1 19.7782 18.072 19.9874C18.472 18.9427 18.75 17.8009 18.907 16.5678H19.787ZM32.112 20.5735H29.482V15.1442H30.367V19.9059H32.112V20.5735ZM28.792 20.706L27.776 20.2151C27.866 20.1405 27.953 20.06 28.031 19.9697C28.464 19.4729 28.679 18.7346 28.679 17.7577C28.679 15.9611 27.961 15.0618 26.524 15.0618C25.82 15.0618 25.27 15.2895 24.874 15.7461C24.444 16.2448 24.228 16.9792 24.228 17.9502C24.228 18.9044 24.418 19.6054 24.802 20.0512C25.152 20.4537 25.679 20.655 26.385 20.655C26.649 20.655 26.891 20.6226 27.11 20.5587L28.435 21.3167L28.795 20.706H28.792ZM25.5 19.4866C25.275 19.1332 25.163 18.5638 25.163 17.7823C25.163 16.4147 25.587 15.7304 26.433 15.7304C26.876 15.7304 27.203 15.8943 27.41 16.2212C27.634 16.5766 27.746 17.1402 27.746 17.9128C27.746 19.2913 27.322 19.9824 26.476 19.9824C26.031 19.9824 25.706 19.8185 25.498 19.4916L25.5 19.4866ZM23.842 19.0694C23.842 19.5308 23.67 19.9098 23.326 20.2043C22.982 20.4989 22.523 20.6461 21.942 20.6461C21.399 20.6461 20.878 20.4773 20.369 20.1405L20.606 19.6732C21.044 19.8892 21.439 19.9952 21.796 19.9952C22.128 19.9952 22.389 19.9235 22.579 19.7792C22.674 19.7089 22.7506 19.6176 22.8028 19.5127C22.8549 19.4077 22.881 19.2922 22.879 19.1754C22.879 18.8514 22.649 18.5765 22.231 18.3458C21.843 18.1367 21.068 17.7008 21.068 17.7008C20.646 17.3994 20.436 17.0764 20.436 16.5452C20.436 16.1034 20.593 15.75 20.906 15.48C21.221 15.2071 21.626 15.0726 22.126 15.0726C22.638 15.0726 23.106 15.2061 23.526 15.4751L23.313 15.9424C22.9774 15.7977 22.6155 15.7209 22.249 15.7166C21.966 15.7166 21.747 15.7834 21.595 15.9189C21.5179 15.9816 21.4557 16.0602 21.4128 16.1491C21.37 16.2379 21.3475 16.335 21.347 16.4333C21.347 16.7553 21.581 17.0322 22.013 17.2678C22.406 17.4789 23.2 17.9256 23.2 17.9256C23.633 18.2251 23.848 18.5441 23.848 19.0723L23.842 19.0694ZM33.224 13.324C32.689 13.3103 32.274 13.3633 31.927 13.5086C31.827 13.5479 31.667 13.5479 31.653 13.6725C31.708 13.7246 31.716 13.81 31.763 13.8826C31.843 14.0142 31.981 14.1899 32.109 14.2822C32.249 14.3902 32.389 14.4943 32.536 14.5866C32.796 14.7437 33.091 14.8369 33.346 14.995C33.491 15.0873 33.639 15.2041 33.786 15.3023C33.859 15.3514 33.906 15.4397 34 15.4712V15.4515C33.954 15.3926 33.94 15.3072 33.895 15.2414C33.828 15.1756 33.761 15.1167 33.695 15.0519C33.4987 14.7979 33.2644 14.5745 33 14.3892C32.786 14.2459 32.318 14.0456 32.23 13.8051L32.217 13.7913C32.363 13.7786 32.537 13.7265 32.677 13.6873C32.904 13.6284 33.112 13.6411 33.347 13.5832C33.453 13.5567 33.56 13.5243 33.667 13.4909V13.432C33.547 13.3142 33.457 13.1542 33.333 13.0442C32.9869 12.7472 32.6178 12.477 32.229 12.2362C32.019 12.1046 31.753 12.0202 31.532 11.9083C31.452 11.869 31.318 11.8494 31.272 11.7836C31.152 11.6403 31.082 11.4498 30.997 11.279C30.8006 10.905 30.6182 10.5241 30.45 10.1372C30.33 9.87993 30.257 9.62368 30.11 9.38806C29.42 8.27177 28.673 7.59533 27.524 6.93361C27.277 6.79616 26.981 6.73725 26.668 6.6646C26.501 6.65674 26.334 6.64496 26.168 6.63809C26.058 6.59195 25.952 6.46726 25.858 6.40737C25.478 6.17174 24.494 5.66122 24.214 6.33668C24.034 6.76278 24.481 7.18298 24.636 7.39897C24.751 7.54918 24.896 7.72099 24.976 7.88986C25.023 8.00375 25.036 8.12058 25.083 8.23937C25.189 8.52802 25.29 8.85004 25.43 9.12003C25.503 9.25748 25.583 9.4018 25.677 9.5255C25.731 9.59717 25.823 9.63056 25.844 9.74837C25.75 9.88189 25.744 10.0763 25.69 10.2393C25.45 10.9825 25.544 11.9014 25.884 12.4483C25.991 12.6112 26.246 12.9725 26.587 12.8341C26.887 12.7163 26.821 12.3432 26.907 12.0143C26.927 11.9358 26.914 11.8837 26.955 11.8307V11.8455C27.049 12.03 27.143 12.2058 27.229 12.3903C27.435 12.7124 27.795 13.0462 28.096 13.269C28.256 13.3868 28.383 13.5911 28.583 13.6637V13.6441H28.568C28.525 13.5871 28.468 13.5596 28.414 13.5135C28.2872 13.3916 28.1702 13.2603 28.064 13.1208C27.7822 12.7428 27.5324 12.3429 27.317 11.925C27.207 11.7188 27.115 11.4969 27.027 11.2937C26.987 11.2151 26.987 11.0973 26.92 11.0581C26.82 11.2014 26.673 11.3261 26.6 11.5028C26.473 11.7856 26.46 12.1331 26.412 12.4944C26.385 12.5013 26.398 12.4944 26.385 12.5082C26.171 12.4571 26.098 12.2391 26.018 12.0565C25.818 11.5902 25.785 10.8411 25.958 10.3041C26.005 10.1666 26.205 9.73266 26.125 9.6011C26.083 9.47642 25.951 9.40475 25.878 9.30362C25.7841 9.17201 25.7037 9.03158 25.638 8.8844C25.478 8.51722 25.398 8.11076 25.224 7.74357C25.144 7.57373 25.004 7.39602 24.89 7.23992C24.763 7.0632 24.623 6.93851 24.522 6.7294C24.489 6.65773 24.442 6.53893 24.495 6.46039C24.509 6.40737 24.537 6.38675 24.589 6.37203C24.677 6.30134 24.924 6.39363 25.011 6.4329C25.258 6.53108 25.466 6.62336 25.673 6.76081C25.767 6.82561 25.868 6.9503 25.988 6.98269H26.128C26.342 7.02884 26.583 6.99644 26.783 7.05436C27.138 7.16629 27.458 7.32926 27.745 7.50598C28.6293 8.0606 29.3486 8.83487 29.83 9.75033C29.91 9.90153 29.945 10.04 30.018 10.197C30.158 10.521 30.331 10.848 30.473 11.1611C30.613 11.4704 30.748 11.7856 30.949 12.0418C31.049 12.1793 31.451 12.2509 31.631 12.3226C31.764 12.3815 31.971 12.4355 32.091 12.5072C32.321 12.6446 32.545 12.8017 32.761 12.9529C32.871 13.0275 33.204 13.1915 33.224 13.324Z" fill="white"/>
</g>
<defs>
<clipPath id="clip0_220_184">
<rect width="88.25" height="28" fill="white"/>
</clipPath>
</defs>
</svg>
