<svg width="78" height="28" viewBox="0 0 78 28" fill="none" xmlns="http://www.w3.org/2000/svg">
<g clip-path="url(#clip0_220_244)">
<path d="M64 0H14C6.26801 0 0 6.26801 0 14C0 21.732 6.26801 28 14 28H64C71.732 28 78 21.732 78 14C78 6.26801 71.732 0 64 0Z" fill="black"/>
<path d="M43.0629 10.7273V18H41.7347L38.5707 13.4226H38.5174V18H36.9798V10.7273H38.3292L41.4684 15.3011H41.5323V10.7273H43.0629ZM44.3333 18V10.7273H49.2338V11.995H45.8709V13.728H48.9817V14.9957H45.8709V16.7322H49.248V18H44.3333ZM51.8981 10.7273L53.3647 13.206H53.4215L54.8952 10.7273H56.6317L54.4123 14.3636L56.6815 18H54.913L53.4215 15.5178H53.3647L51.8732 18H50.1119L52.3881 14.3636L50.1545 10.7273H51.8981ZM57.3278 11.995V10.7273H63.3008V11.995H61.0742V18H59.5543V11.995H57.3278Z" fill="white"/>
<path d="M19.7149 6C19.5974 6 19.5084 6.00087 19.476 6.00447C19.4416 6.008 19.3321 6.01847 19.2336 6.02633C16.961 6.2312 14.8324 7.45721 13.4842 9.34156C12.7335 10.3894 12.2533 11.5778 12.072 12.8367C12.0079 13.2761 12 13.4059 12 14.0017C12 14.5975 12.008 14.7273 12.072 15.1667C12.5067 18.1708 14.6448 20.6947 17.5445 21.6298C18.0638 21.7972 18.6112 21.9113 19.2337 21.9801C19.4761 22.0068 20.5239 22.0068 20.7663 21.9801C21.8408 21.8613 22.7512 21.5955 23.6488 21.1373C23.7865 21.0669 23.8131 21.0481 23.7944 21.0324C23.7818 21.0231 23.1952 20.2365 22.4915 19.2857L21.2121 17.5577L19.609 15.1855C18.7269 13.8812 18.0012 12.8148 17.9949 12.8148C17.9886 12.8131 17.9824 13.8673 17.9792 15.1541C17.9748 17.4076 17.973 17.4983 17.9448 17.5515C17.9042 17.6282 17.8728 17.6594 17.8072 17.6938C17.7572 17.7187 17.7134 17.7234 17.4772 17.7234H17.2066L17.1347 17.6781C17.0901 17.6502 17.0539 17.6107 17.0299 17.564L16.997 17.4936L17.0006 14.3582L17.005 11.2212L17.0534 11.1602C17.0785 11.1274 17.1317 11.0852 17.1692 11.0649C17.2333 11.0336 17.2584 11.0304 17.5289 11.0304C17.848 11.0304 17.9012 11.0429 17.984 11.1336C18.0076 11.1587 18.8756 12.4661 19.9141 14.0408C20.9655 15.6347 22.0176 17.2282 23.0704 18.8212L24.3372 20.7401L24.4012 20.6979C24.969 20.3288 25.5695 19.8033 26.045 19.256C27.0569 18.0941 27.7092 16.6774 27.9281 15.1667C27.9922 14.7273 28 14.5973 28 14.0017C28 13.4059 27.992 13.2761 27.9281 12.8366C27.4933 9.83257 25.3553 7.30861 22.4556 6.37354C21.9441 6.20774 21.3999 6.09353 20.7899 6.02473C20.6773 6.013 20.0675 6.00027 19.7149 6ZM22.4273 10.8114C22.6588 10.8114 22.6994 10.8149 22.7511 10.8427C22.8262 10.8802 22.8871 10.9522 22.9091 11.0272C22.9215 11.0678 22.9247 11.9374 22.9215 13.8968L22.917 16.7085L22.4213 15.9485L21.9239 15.1885V13.1445C21.9239 11.8231 21.9301 11.0802 21.9395 11.0443C21.9645 10.9568 22.0192 10.8879 22.0944 10.8473C22.1584 10.8144 22.1817 10.8114 22.4273 10.8114Z" fill="white"/>
</g>
<defs>
<clipPath id="clip0_220_244">
<rect width="78" height="28" fill="white"/>
</clipPath>
</defs>
</svg>
