<svg width="101" height="28" viewBox="0 0 101 28" fill="none" xmlns="http://www.w3.org/2000/svg">
<g clip-path="url(#clip0_220_239)">
<path d="M86.75 0H14C6.26801 0 0 6.26801 0 14C0 21.732 6.26801 28 14 28H86.75C94.482 28 100.75 21.732 100.75 14C100.75 6.26801 94.482 0 86.75 0Z" fill="#6DA55F"/>
<path d="M45.8109 10.7273V18H44.4828L41.3187 13.4226H41.2654V18H39.7278V10.7273H41.0772L44.2164 15.3011H44.2804V10.7273H45.8109ZM53.7646 14.3636C53.7646 15.1567 53.6142 15.8314 53.3136 16.3878C53.0153 16.9441 52.6081 17.3691 52.092 17.6626C51.5782 17.9538 51.0006 18.0994 50.359 18.0994C49.7127 18.0994 49.1327 17.9527 48.619 17.6591C48.1052 17.3655 47.6992 16.9406 47.4009 16.3842C47.1026 15.8279 46.9535 15.1544 46.9535 14.3636C46.9535 13.5705 47.1026 12.8958 47.4009 12.3395C47.6992 11.7831 48.1052 11.3594 48.619 11.0682C49.1327 10.7746 49.7127 10.6278 50.359 10.6278C51.0006 10.6278 51.5782 10.7746 52.092 11.0682C52.6081 11.3594 53.0153 11.7831 53.3136 12.3395C53.6142 12.8958 53.7646 13.5705 53.7646 14.3636ZM52.2056 14.3636C52.2056 13.8499 52.1287 13.4167 51.9748 13.0639C51.8233 12.7112 51.609 12.4437 51.332 12.2614C51.055 12.0791 50.7307 11.9879 50.359 11.9879C49.9873 11.9879 49.663 12.0791 49.386 12.2614C49.109 12.4437 48.8936 12.7112 48.7397 13.0639C48.5882 13.4167 48.5124 13.8499 48.5124 14.3636C48.5124 14.8774 48.5882 15.3106 48.7397 15.6634C48.8936 16.0161 49.109 16.2836 49.386 16.4659C49.663 16.6482 49.9873 16.7393 50.359 16.7393C50.7307 16.7393 51.055 16.6482 51.332 16.4659C51.609 16.2836 51.8233 16.0161 51.9748 15.6634C52.1287 15.3106 52.2056 14.8774 52.2056 14.3636ZM57.4817 18H54.9036V10.7273H57.503C58.2346 10.7273 58.8643 10.8729 59.3922 11.1641C59.9202 11.4529 60.3262 11.8684 60.6103 12.4105C60.8967 12.9527 61.04 13.6013 61.04 14.3565C61.04 15.1141 60.8967 15.7652 60.6103 16.3097C60.3262 16.8542 59.9178 17.272 59.3851 17.5632C58.8548 17.8544 58.2203 18 57.4817 18ZM56.4412 16.6825H57.4178C57.8723 16.6825 58.2547 16.602 58.5648 16.4411C58.8773 16.2777 59.1117 16.0256 59.2679 15.6847C59.4266 15.3414 59.5059 14.8987 59.5059 14.3565C59.5059 13.8191 59.4266 13.38 59.2679 13.0391C59.1117 12.6982 58.8785 12.4472 58.5684 12.2862C58.2582 12.1252 57.8759 12.0447 57.4213 12.0447H56.4412V16.6825ZM62.179 18V10.7273H67.0795V11.995H63.7166V13.728H66.8274V14.9957H63.7166V16.7322H67.0938V18H62.179ZM69.1578 18.0923C68.9235 18.0923 68.7222 18.0095 68.5542 17.8438C68.3884 17.6757 68.3056 17.4744 68.3056 17.2401C68.3056 17.008 68.3884 16.8092 68.5542 16.6435C68.7222 16.4777 68.9235 16.3949 69.1578 16.3949C69.3851 16.3949 69.584 16.4777 69.7544 16.6435C69.9249 16.8092 70.0101 17.008 70.0101 17.2401C70.0101 17.3963 69.9699 17.5395 69.8894 17.6697C69.8113 17.7976 69.7083 17.9006 69.5804 17.9787C69.4526 18.0545 69.3117 18.0923 69.1578 18.0923ZM74.1925 10.7273H75.7124V15.7983C75.7124 16.267 75.607 16.6742 75.3963 17.0199C75.188 17.3655 74.898 17.6319 74.5263 17.8189C74.1546 18.0059 73.7225 18.0994 73.2301 18.0994C72.7921 18.0994 72.3944 18.0225 72.0369 17.8686C71.6818 17.7124 71.4001 17.4756 71.1918 17.1584C70.9834 16.8388 70.8804 16.4375 70.8828 15.9545H72.4134C72.4181 16.1463 72.4571 16.3108 72.5305 16.4482C72.6063 16.5831 72.7093 16.6873 72.8395 16.7607C72.9721 16.8317 73.1283 16.8672 73.3082 16.8672C73.4976 16.8672 73.6574 16.8269 73.7876 16.7464C73.9202 16.6636 74.0208 16.5429 74.0895 16.3842C74.1581 16.2256 74.1925 16.0303 74.1925 15.7983V10.7273ZM80.929 12.8189C80.9006 12.5324 80.7786 12.3099 80.5632 12.1513C80.3478 11.9927 80.0554 11.9134 79.6861 11.9134C79.4351 11.9134 79.2232 11.9489 79.0504 12.0199C78.8776 12.0885 78.745 12.1844 78.6527 12.3075C78.5627 12.4306 78.5178 12.5703 78.5178 12.7266C78.513 12.8568 78.5402 12.9704 78.5994 13.0675C78.661 13.1645 78.745 13.2486 78.8516 13.3196C78.9581 13.3883 79.0812 13.4486 79.2209 13.5007C79.3606 13.5504 79.5097 13.593 79.6683 13.6286L80.3217 13.7848C80.639 13.8558 80.9302 13.9505 81.1953 14.0689C81.4605 14.1873 81.6901 14.3329 81.8842 14.5057C82.0784 14.6785 82.2287 14.8821 82.3352 15.1165C82.4441 15.3509 82.4998 15.6196 82.5021 15.9226C82.4998 16.3677 82.3861 16.7536 82.1612 17.0803C81.9387 17.4046 81.6167 17.6567 81.1953 17.8366C80.7763 18.0142 80.2708 18.103 79.679 18.103C79.0919 18.103 78.5805 18.013 78.1449 17.8331C77.7116 17.6532 77.3731 17.3868 77.1293 17.0341C76.8878 16.679 76.7611 16.2398 76.7493 15.7166H78.2372C78.2538 15.9605 78.3236 16.1641 78.4467 16.3274C78.5722 16.4884 78.7391 16.6103 78.9474 16.6932C79.1581 16.7737 79.3961 16.8139 79.6612 16.8139C79.9216 16.8139 80.1477 16.776 80.3395 16.7003C80.5336 16.6245 80.6839 16.5192 80.7905 16.3842C80.897 16.2493 80.9503 16.0942 80.9503 15.919C80.9503 15.7557 80.9018 15.6184 80.8047 15.5071C80.71 15.3958 80.5703 15.3011 80.3857 15.223C80.2034 15.1449 79.9796 15.0739 79.7145 15.0099L78.9226 14.8111C78.3094 14.6619 77.8253 14.4287 77.4702 14.1115C77.1151 13.7943 76.9387 13.367 76.9411 12.8295C76.9387 12.3892 77.0559 12.0045 77.2926 11.6754C77.5317 11.3464 77.8596 11.0895 78.2763 10.9048C78.6929 10.7202 79.1664 10.6278 79.6967 10.6278C80.2365 10.6278 80.7076 10.7202 81.1101 10.9048C81.5149 11.0895 81.8298 11.3464 82.0547 11.6754C82.2796 12.0045 82.3956 12.3857 82.4027 12.8189H80.929Z" fill="white"/>
<path d="M21.999 22C21.7879 22 21.5774 21.944 21.3925 21.8353L19.4612 20.6773C19.1731 20.514 19.3139 20.456 19.4086 20.422C19.7934 20.2867 19.871 20.2554 20.2821 20.0194C20.3249 19.9947 20.3815 20.004 20.4256 20.0307L21.9096 20.9233C21.9635 20.9533 22.0391 20.9533 22.0885 20.9233L27.8738 17.5394C27.9278 17.508 27.962 17.4454 27.962 17.3807V10.6141C27.962 10.5481 27.9271 10.4861 27.8719 10.4528L22.0891 7.07149C22.0359 7.04016 21.9648 7.04016 21.9109 7.07149L16.1294 10.4535C16.0735 10.4861 16.038 10.5501 16.038 10.6141V17.3807C16.038 17.4454 16.0735 17.5067 16.1294 17.5374L17.7141 18.4654C18.5738 18.9014 19.1007 18.388 19.1007 17.872V11.1914C19.1007 11.0968 19.1757 11.0228 19.2691 11.0228H20.0026C20.094 11.0228 20.1703 11.0974 20.1703 11.1914V17.872C20.1703 19.0354 19.5454 19.702 18.4574 19.702C18.1232 19.702 17.8595 19.702 17.1247 19.3347L15.6065 18.45C15.2315 18.2307 15 17.82 15 17.3807V10.6141C15 10.1748 15.2322 9.76413 15.6065 9.54546L21.3919 6.1575C21.7583 5.9475 22.2444 5.9475 22.6075 6.1575L28.3922 9.54546C28.7671 9.76479 29 10.1748 29 10.6141V17.3807C29 17.82 28.7671 18.2294 28.3922 18.45L22.6075 21.8353C22.4233 21.944 22.2135 22 21.999 22ZM26.6701 15.3287C26.6701 14.0621 25.8254 13.7248 24.0474 13.4868C22.251 13.2461 22.0681 13.1214 22.0681 12.6954C22.0681 12.3434 22.2227 11.8734 23.5534 11.8734C24.742 11.8734 25.1801 12.1328 25.3604 12.9448C25.3762 13.0214 25.4452 13.0774 25.5229 13.0774H26.2734C26.3201 13.0774 26.3642 13.0568 26.3958 13.0234C26.4273 12.9874 26.4444 12.9414 26.4398 12.8928C26.3234 11.4941 25.4064 10.8421 23.5534 10.8421C21.9036 10.8421 20.9196 11.5474 20.9196 12.7308C20.9196 14.0141 21.8984 14.3687 23.4817 14.5274C25.3762 14.7154 25.5229 14.9961 25.5229 15.3734C25.5229 16.0287 25.0039 16.3081 23.7849 16.3081C22.2542 16.3081 21.9174 15.9187 21.8043 15.1467C21.7911 15.0641 21.7214 15.0034 21.6379 15.0034H20.89C20.7972 15.0034 20.7229 15.0781 20.7229 15.1721C20.7229 16.1601 21.2531 17.3374 23.7849 17.3374C25.6189 17.338 26.6701 16.6067 26.6701 15.3287Z" fill="white"/>
</g>
<defs>
<clipPath id="clip0_220_239">
<rect width="100.75" height="28" fill="white"/>
</clipPath>
</defs>
</svg>
