<svg width="73" height="28" viewBox="0 0 73 28" fill="none" xmlns="http://www.w3.org/2000/svg">
<g clip-path="url(#clip0_220_249)">
<path d="M58.75 0H14C6.26801 0 0 6.26801 0 14C0 21.732 6.26801 28 14 28H58.75C66.482 28 72.75 21.732 72.75 14C72.75 6.26801 66.482 0 58.75 0Z" fill="black"/>
<path d="M42.7259 10.7273V18H41.3978L38.2338 13.4226H38.1805V18H36.6428V10.7273H37.9923L41.1315 15.3011H41.1954V10.7273H42.7259ZM43.9964 18V10.7273H46.8657C47.4173 10.7273 47.8872 10.8326 48.2755 11.0433C48.6637 11.2517 48.9597 11.5417 49.1633 11.9134C49.3692 12.2827 49.4722 12.7088 49.4722 13.1918C49.4722 13.6747 49.368 14.1009 49.1597 14.4702C48.9514 14.8395 48.6495 15.1271 48.2542 15.3331C47.8612 15.5391 47.3853 15.642 46.8266 15.642H44.9978V14.4098H46.578C46.874 14.4098 47.1178 14.3589 47.3096 14.2571C47.5037 14.1529 47.6481 14.0097 47.7428 13.8274C47.8399 13.6428 47.8884 13.4309 47.8884 13.1918C47.8884 12.9503 47.8399 12.7396 47.7428 12.5597C47.6481 12.3774 47.5037 12.2365 47.3096 12.1371C47.1154 12.0353 46.8692 11.9844 46.5709 11.9844H45.534V18H43.9964ZM50.471 10.7273H52.3673L54.3701 15.6136H54.4553L56.4582 10.7273H58.3545V18H56.863V13.2663H56.8026L54.9205 17.9645H53.9049L52.0228 13.2486H51.9624V18H50.471V10.7273Z" fill="white"/>
<path d="M13.1753 6C12.524 6 12 6.524 12 7.17533V20.8247C12 21.476 12.524 22 13.1753 22H26.8247C27.476 22 28 21.476 28 20.8247V7.17533C28 6.524 27.476 6 26.8247 6H13.1753ZM15.42 9.54867L24.6447 9.56133L24.6387 18.7853H22.3293L22.336 11.864H20.032L20.0267 18.78H15.4087L15.42 9.54867Z" fill="white"/>
</g>
<defs>
<clipPath id="clip0_220_249">
<rect width="72.75" height="28" fill="white"/>
</clipPath>
</defs>
</svg>
