<svg width="121" height="28" viewBox="0 0 121 28" fill="none" xmlns="http://www.w3.org/2000/svg">
<g clip-path="url(#clip0_220_159)">
<path d="M106.25 0H14C6.26801 0 0 6.26801 0 14C0 21.732 6.26802 28 14 28H106.25C113.982 28 120.25 21.732 120.25 14C120.25 6.26801 113.982 0 106.25 0Z" fill="black"/>
<path d="M42.8772 18V10.7273H45.7465C46.2981 10.7273 46.7681 10.8326 47.1563 11.0433C47.5446 11.2517 47.8405 11.5417 48.0441 11.9134C48.2501 12.2827 48.3531 12.7088 48.3531 13.1918C48.3531 13.6747 48.2489 14.1009 48.0406 14.4702C47.8322 14.8395 47.5304 15.1271 47.135 15.3331C46.742 15.5391 46.2662 15.642 45.7075 15.642H43.8786V14.4098H45.4589C45.7548 14.4098 45.9987 14.3589 46.1904 14.2571C46.3846 14.1529 46.529 14.0097 46.6237 13.8274C46.7207 13.6428 46.7693 13.4309 46.7693 13.1918C46.7693 12.9503 46.7207 12.7396 46.6237 12.5597C46.529 12.3774 46.3846 12.2365 46.1904 12.1371C45.9963 12.0353 45.7501 11.9844 45.4518 11.9844H44.4149V18H42.8772ZM56.0351 14.3636C56.0351 15.1567 55.8847 15.8314 55.5841 16.3878C55.2858 16.9441 54.8786 17.3691 54.3625 17.6626C53.8488 17.9538 53.2711 18.0994 52.6295 18.0994C51.9832 18.0994 51.4032 17.9527 50.8895 17.6591C50.3757 17.3655 49.9697 16.9406 49.6714 16.3842C49.3731 15.8279 49.224 15.1544 49.224 14.3636C49.224 13.5705 49.3731 12.8958 49.6714 12.3395C49.9697 11.7831 50.3757 11.3594 50.8895 11.0682C51.4032 10.7746 51.9832 10.6278 52.6295 10.6278C53.2711 10.6278 53.8488 10.7746 54.3625 11.0682C54.8786 11.3594 55.2858 11.7831 55.5841 12.3395C55.8847 12.8958 56.0351 13.5705 56.0351 14.3636ZM54.4761 14.3636C54.4761 13.8499 54.3992 13.4167 54.2453 13.0639C54.0938 12.7112 53.8795 12.4437 53.6025 12.2614C53.3256 12.0791 53.0012 11.9879 52.6295 11.9879C52.2578 11.9879 51.9335 12.0791 51.6565 12.2614C51.3795 12.4437 51.1641 12.7112 51.0102 13.0639C50.8587 13.4167 50.7829 13.8499 50.7829 14.3636C50.7829 14.8774 50.8587 15.3106 51.0102 15.6634C51.1641 16.0161 51.3795 16.2836 51.6565 16.4659C51.9335 16.6482 52.2578 16.7393 52.6295 16.7393C53.0012 16.7393 53.3256 16.6482 53.6025 16.4659C53.8795 16.2836 54.0938 16.0161 54.2453 15.6634C54.3992 15.3106 54.4761 14.8774 54.4761 14.3636ZM57.1741 18V10.7273H60.0434C60.5927 10.7273 61.0614 10.8255 61.4497 11.022C61.8403 11.2161 62.1374 11.492 62.341 11.8494C62.547 12.2045 62.6499 12.6224 62.6499 13.103C62.6499 13.5859 62.5458 14.0014 62.3374 14.3494C62.1291 14.6951 61.8273 14.9602 61.4319 15.1449C61.0389 15.3295 60.5631 15.4219 60.0044 15.4219H58.0832V14.1861H59.7558C60.0493 14.1861 60.2932 14.1458 60.4873 14.0653C60.6814 13.9848 60.8258 13.8641 60.9205 13.7031C61.0176 13.5421 61.0661 13.3421 61.0661 13.103C61.0661 12.8615 61.0176 12.6579 60.9205 12.4922C60.8258 12.3265 60.6802 12.201 60.4838 12.1158C60.2896 12.0282 60.0446 11.9844 59.7487 11.9844H58.7117V18H57.1741ZM61.1017 14.6903L62.9092 18H61.2117L59.4433 14.6903H61.1017ZM63.4596 11.995V10.7273H69.4326V11.995H67.2061V18H65.6862V11.995H63.4596ZM70.4163 18V10.7273H75.2316V11.995H71.9539V13.728H74.912V14.9957H71.9539V18H70.4163ZM82.9491 14.3636C82.9491 15.1567 82.7988 15.8314 82.4981 16.3878C82.1998 16.9441 81.7926 17.3691 81.2765 17.6626C80.7628 17.9538 80.1852 18.0994 79.5436 18.0994C78.8973 18.0994 78.3173 17.9527 77.8035 17.6591C77.2898 17.3655 76.8838 16.9406 76.5855 16.3842C76.2872 15.8279 76.1381 15.1544 76.1381 14.3636C76.1381 13.5705 76.2872 12.8958 76.5855 12.3395C76.8838 11.7831 77.2898 11.3594 77.8035 11.0682C78.3173 10.7746 78.8973 10.6278 79.5436 10.6278C80.1852 10.6278 80.7628 10.7746 81.2765 11.0682C81.7926 11.3594 82.1998 11.7831 82.4981 12.3395C82.7988 12.8958 82.9491 13.5705 82.9491 14.3636ZM81.3902 14.3636C81.3902 13.8499 81.3132 13.4167 81.1594 13.0639C81.0078 12.7112 80.7936 12.4437 80.5166 12.2614C80.2396 12.0791 79.9153 11.9879 79.5436 11.9879C79.1719 11.9879 78.8476 12.0791 78.5706 12.2614C78.2936 12.4437 78.0782 12.7112 77.9243 13.0639C77.7728 13.4167 77.697 13.8499 77.697 14.3636C77.697 14.8774 77.7728 15.3106 77.9243 15.6634C78.0782 16.0161 78.2936 16.2836 78.5706 16.4659C78.8476 16.6482 79.1719 16.7393 79.5436 16.7393C79.9153 16.7393 80.2396 16.6482 80.5166 16.4659C80.7936 16.2836 81.0078 16.0161 81.1594 15.6634C81.3132 15.3106 81.3902 14.8774 81.3902 14.3636ZM84.0882 18V10.7273H85.6258V16.7322H88.7437V18H84.0882ZM91.2996 10.7273V18H89.762V10.7273H91.2996ZM99.248 14.3636C99.248 15.1567 99.0976 15.8314 98.797 16.3878C98.4987 16.9441 98.0915 17.3691 97.5754 17.6626C97.0616 17.9538 96.484 18.0994 95.8424 18.0994C95.1961 18.0994 94.6161 17.9527 94.1024 17.6591C93.5886 17.3655 93.1826 16.9406 92.8843 16.3842C92.586 15.8279 92.4369 15.1544 92.4369 14.3636C92.4369 13.5705 92.586 12.8958 92.8843 12.3395C93.1826 11.7831 93.5886 11.3594 94.1024 11.0682C94.6161 10.7746 95.1961 10.6278 95.8424 10.6278C96.484 10.6278 97.0616 10.7746 97.5754 11.0682C98.0915 11.3594 98.4987 11.7831 98.797 12.3395C99.0976 12.8958 99.248 13.5705 99.248 14.3636ZM97.689 14.3636C97.689 13.8499 97.6121 13.4167 97.4582 13.0639C97.3067 12.7112 97.0924 12.4437 96.8154 12.2614C96.5384 12.0791 96.2141 11.9879 95.8424 11.9879C95.4707 11.9879 95.1464 12.0791 94.8694 12.2614C94.5924 12.4437 94.377 12.7112 94.2231 13.0639C94.0716 13.4167 93.9958 13.8499 93.9958 14.3636C93.9958 14.8774 94.0716 15.3106 94.2231 15.6634C94.377 16.0161 94.5924 16.2836 94.8694 16.4659C95.1464 16.6482 95.4707 16.7393 95.8424 16.7393C96.2141 16.7393 96.5384 16.6482 96.8154 16.4659C97.0924 16.2836 97.3067 16.0161 97.4582 15.6634C97.6121 15.3106 97.689 14.8774 97.689 14.3636Z" fill="white"/>
<path d="M28.6346 8.28307C28.1465 7.78116 27.5893 7.35179 26.98 7.00801C26.2959 6.64714 25.0653 6.04302 23.3179 6.00226C22.8286 5.9909 22.3466 6.02231 21.8686 6.09849C21.3886 6.17467 20.9366 6.29362 20.4566 6.47272C19.7786 6.72466 19.1259 7.12429 18.7405 7.51121C19.1292 7.27799 19.7246 7.02137 20.4406 6.84829C21.2551 6.65632 22.0982 6.61847 22.9266 6.73669C24.4873 6.9639 25.7119 7.65957 26.58 8.4909C26.9122 8.80608 27.203 9.16247 27.4453 9.55145C28.424 11.1433 28.332 13.1441 27.568 14.3242C27.0013 15.201 25.7879 16.0243 24.6546 16.015C24.2659 15.9996 23.6959 15.9134 23.1546 15.6367C21.4019 14.7392 21.1406 12.5039 22.4092 11.4226C21.9879 11.3317 21.1959 11.5095 20.6452 12.3335C20.1506 13.0732 20.1786 14.2153 20.4839 15.0253C20.2886 14.6259 20.1559 14.1988 20.0906 13.7589C19.9633 12.8927 20.0587 12.0082 20.3679 11.1894C20.5858 10.6068 20.901 10.0656 21.2999 9.58887C21.8972 8.87449 22.5719 8.43944 23.1333 8.24899C22.7732 7.93423 22.1926 7.7558 21.5192 7.73642C20.5399 7.70702 19.2179 8.02645 18.1332 8.92795C17.5945 9.37562 17.1472 9.92339 16.8159 10.5412C16.5125 11.0998 16.3552 11.6498 16.3512 11.6625C16.4325 10.6969 16.8205 9.66171 17.1832 8.95268C16.6565 9.22867 15.9652 10.0674 15.5765 10.9856C15.0632 12.2426 14.8665 13.7382 15.0932 15.3293C15.7372 19.1171 19.0265 22 22.9886 22C27.4133 22 31 18.4047 31 13.9707C31.0019 12.9128 30.7938 11.865 30.3877 10.8886C29.9816 9.91207 29.3856 9.02637 28.6346 8.28307Z" fill="#FF7139"/>
</g>
<defs>
<clipPath id="clip0_220_159">
<rect width="120.25" height="28" fill="white"/>
</clipPath>
</defs>
</svg>
