<svg width="113" height="28" viewBox="0 0 113 28" fill="none" xmlns="http://www.w3.org/2000/svg">
<g clip-path="url(#clip0_220_179)">
<path d="M99 0H14C6.26801 0 0 6.26801 0 14C0 21.732 6.26801 28 14 28H99C106.732 28 113 21.732 113 14C113 6.26801 106.732 0 99 0Z" fill="#316192"/>
<path d="M43.1106 18V10.7273H45.9799C46.5315 10.7273 47.0015 10.8326 47.3897 11.0433C47.778 11.2517 48.0739 11.5417 48.2775 11.9134C48.4835 12.2827 48.5865 12.7088 48.5865 13.1918C48.5865 13.6747 48.4823 14.1009 48.274 14.4702C48.0656 14.8395 47.7638 15.1271 47.3684 15.3331C46.9754 15.5391 46.4996 15.642 45.9409 15.642H44.112V14.4098H45.6923C45.9882 14.4098 46.2321 14.3589 46.4238 14.2571C46.618 14.1529 46.7624 14.0097 46.8571 13.8274C46.9541 13.6428 47.0027 13.4309 47.0027 13.1918C47.0027 12.9503 46.9541 12.7396 46.8571 12.5597C46.7624 12.3774 46.618 12.2365 46.4238 12.1371C46.2297 12.0353 45.9835 11.9844 45.6852 11.9844H44.6483V18H43.1106ZM56.2685 14.3636C56.2685 15.1567 56.1181 15.8314 55.8175 16.3878C55.5192 16.9441 55.112 17.3691 54.5959 17.6626C54.0821 17.9538 53.5045 18.0994 52.8629 18.0994C52.2166 18.0994 51.6366 17.9527 51.1229 17.6591C50.6091 17.3655 50.2031 16.9406 49.9048 16.3842C49.6065 15.8279 49.4574 15.1544 49.4574 14.3636C49.4574 13.5705 49.6065 12.8958 49.9048 12.3395C50.2031 11.7831 50.6091 11.3594 51.1229 11.0682C51.6366 10.7746 52.2166 10.6278 52.8629 10.6278C53.5045 10.6278 54.0821 10.7746 54.5959 11.0682C55.112 11.3594 55.5192 11.7831 55.8175 12.3395C56.1181 12.8958 56.2685 13.5705 56.2685 14.3636ZM54.7095 14.3636C54.7095 13.8499 54.6326 13.4167 54.4787 13.0639C54.3272 12.7112 54.1129 12.4437 53.8359 12.2614C53.5589 12.0791 53.2346 11.9879 52.8629 11.9879C52.4912 11.9879 52.1669 12.0791 51.8899 12.2614C51.6129 12.4437 51.3975 12.7112 51.2436 13.0639C51.0921 13.4167 51.0163 13.8499 51.0163 14.3636C51.0163 14.8774 51.0921 15.3106 51.2436 15.6634C51.3975 16.0161 51.6129 16.2836 51.8899 16.4659C52.1669 16.6482 52.4912 16.7393 52.8629 16.7393C53.2346 16.7393 53.5589 16.6482 53.8359 16.4659C54.1129 16.2836 54.3272 16.0161 54.4787 15.6634C54.6326 15.3106 54.7095 14.8774 54.7095 14.3636ZM61.3528 12.8189C61.3244 12.5324 61.2025 12.3099 60.987 12.1513C60.7716 11.9927 60.4792 11.9134 60.1099 11.9134C59.859 11.9134 59.6471 11.9489 59.4743 12.0199C59.3014 12.0885 59.1689 12.1844 59.0765 12.3075C58.9866 12.4306 58.9416 12.5703 58.9416 12.7266C58.9368 12.8568 58.9641 12.9704 59.0233 13.0675C59.0848 13.1645 59.1689 13.2486 59.2754 13.3196C59.3819 13.3883 59.505 13.4486 59.6447 13.5007C59.7844 13.5504 59.9335 13.593 60.0922 13.6286L60.7456 13.7848C61.0628 13.8558 61.354 13.9505 61.6191 14.0689C61.8843 14.1873 62.1139 14.3329 62.3081 14.5057C62.5022 14.6785 62.6525 14.8821 62.7591 15.1165C62.868 15.3509 62.9236 15.6196 62.926 15.9226C62.9236 16.3677 62.81 16.7536 62.585 17.0803C62.3625 17.4046 62.0405 17.6567 61.6191 17.8366C61.2001 18.0142 60.6947 18.103 60.1028 18.103C59.5157 18.103 59.0043 18.013 58.5687 17.8331C58.1355 17.6532 57.7969 17.3868 57.5531 17.0341C57.3116 16.679 57.185 16.2398 57.1731 15.7166H58.661C58.6776 15.9605 58.7475 16.1641 58.8706 16.3274C58.996 16.4884 59.1629 16.6103 59.3713 16.6932C59.582 16.7737 59.8199 16.8139 60.085 16.8139C60.3455 16.8139 60.5716 16.776 60.7633 16.7003C60.9574 16.6245 61.1078 16.5192 61.2143 16.3842C61.3208 16.2493 61.3741 16.0942 61.3741 15.919C61.3741 15.7557 61.3256 15.6184 61.2285 15.5071C61.1338 15.3958 60.9941 15.3011 60.8095 15.223C60.6272 15.1449 60.4035 15.0739 60.1383 15.0099L59.3464 14.8111C58.7333 14.6619 58.2491 14.4287 57.894 14.1115C57.5389 13.7943 57.3625 13.367 57.3649 12.8295C57.3625 12.3892 57.4797 12.0045 57.7164 11.6754C57.9556 11.3464 58.2834 11.0895 58.7001 10.9048C59.1168 10.7202 59.5903 10.6278 60.1206 10.6278C60.6603 10.6278 61.1315 10.7202 61.5339 10.9048C61.9387 11.0895 62.2536 11.3464 62.4785 11.6754C62.7034 12.0045 62.8194 12.3857 62.8265 12.8189H61.3528ZM63.6832 11.995V10.7273H69.6562V11.995H67.4297V18H65.9098V11.995H63.6832ZM75.1303 13.0781C75.0806 12.9053 75.0108 12.7526 74.9208 12.62C74.8308 12.4851 74.7208 12.3714 74.5906 12.2791C74.4627 12.1844 74.3159 12.1122 74.1502 12.0625C73.9869 12.0128 73.8058 11.9879 73.6069 11.9879C73.2352 11.9879 72.9085 12.0803 72.6268 12.2649C72.3474 12.4496 72.1296 12.7183 71.9734 13.071C71.8171 13.4214 71.739 13.8499 71.739 14.3565C71.739 14.8632 71.8159 15.294 71.9698 15.6491C72.1237 16.0043 72.3415 16.2753 72.6232 16.4624C72.9049 16.647 73.2376 16.7393 73.6211 16.7393C73.9691 16.7393 74.2662 16.6778 74.5124 16.5547C74.761 16.4292 74.9504 16.2528 75.0806 16.0256C75.2132 15.7983 75.2795 15.5296 75.2795 15.2195L75.592 15.2656H73.717V14.108H76.7603V15.0241C76.7603 15.6634 76.6254 16.2126 76.3555 16.6719C76.0856 17.1288 75.7139 17.4815 75.2404 17.7301C74.7669 17.9763 74.2248 18.0994 73.614 18.0994C72.9322 18.0994 72.3332 17.9491 71.8171 17.6484C71.301 17.3454 70.8986 16.9157 70.6097 16.3594C70.3233 15.8007 70.18 15.1378 70.18 14.3707C70.18 13.7812 70.2653 13.2557 70.4357 12.794C70.6085 12.33 70.85 11.937 71.1602 11.6151C71.4703 11.2931 71.8313 11.0481 72.2433 10.88C72.6552 10.7119 73.1014 10.6278 73.582 10.6278C73.994 10.6278 74.3775 10.6882 74.7326 10.8089C75.0877 10.9273 75.4026 11.0954 75.6772 11.3132C75.9542 11.531 76.1803 11.7902 76.3555 12.0909C76.5307 12.3892 76.6431 12.7183 76.6928 13.0781H75.1303ZM77.9153 18V10.7273H80.7846C81.3339 10.7273 81.8026 10.8255 82.1909 11.022C82.5815 11.2161 82.8786 11.492 83.0822 11.8494C83.2882 12.2045 83.3912 12.6224 83.3912 13.103C83.3912 13.5859 83.287 14.0014 83.0787 14.3494C82.8703 14.6951 82.5685 14.9602 82.1731 15.1449C81.7801 15.3295 81.3043 15.4219 80.7456 15.4219H78.8244V14.1861H80.497C80.7905 14.1861 81.0344 14.1458 81.2285 14.0653C81.4226 13.9848 81.5671 13.8641 81.6618 13.7031C81.7588 13.5421 81.8074 13.3421 81.8074 13.103C81.8074 12.8615 81.7588 12.6579 81.6618 12.4922C81.5671 12.3265 81.4215 12.201 81.225 12.1158C81.0308 12.0282 80.7858 11.9844 80.4899 11.9844H79.4529V18H77.9153ZM81.8429 14.6903L83.6504 18H81.9529L80.1845 14.6903H81.8429ZM84.4778 18V10.7273H89.3784V11.995H86.0154V13.728H89.1262V14.9957H86.0154V16.7322H89.3926V18H84.4778ZM94.5462 12.8189C94.5178 12.5324 94.3958 12.3099 94.1804 12.1513C93.965 11.9927 93.6726 11.9134 93.3033 11.9134C93.0523 11.9134 92.8404 11.9489 92.6676 12.0199C92.4948 12.0885 92.3622 12.1844 92.2699 12.3075C92.1799 12.4306 92.1349 12.5703 92.1349 12.7266C92.1302 12.8568 92.1574 12.9704 92.2166 13.0675C92.2782 13.1645 92.3622 13.2486 92.4688 13.3196C92.5753 13.3883 92.6984 13.4486 92.8381 13.5007C92.9777 13.5504 93.1269 13.593 93.2855 13.6286L93.9389 13.7848C94.2562 13.8558 94.5473 13.9505 94.8125 14.0689C95.0777 14.1873 95.3073 14.3329 95.5014 14.5057C95.6955 14.6785 95.8459 14.8821 95.9524 15.1165C96.0613 15.3509 96.117 15.6196 96.1193 15.9226C96.117 16.3677 96.0033 16.7536 95.7784 17.0803C95.5559 17.4046 95.2339 17.6567 94.8125 17.8366C94.3935 18.0142 93.888 18.103 93.2962 18.103C92.709 18.103 92.1977 18.013 91.7621 17.8331C91.3288 17.6532 90.9903 17.3868 90.7464 17.0341C90.505 16.679 90.3783 16.2398 90.3665 15.7166H91.8544C91.871 15.9605 91.9408 16.1641 92.0639 16.3274C92.1894 16.4884 92.3563 16.6103 92.5646 16.6932C92.7753 16.7737 93.0133 16.8139 93.2784 16.8139C93.5388 16.8139 93.7649 16.776 93.9567 16.7003C94.1508 16.6245 94.3011 16.5192 94.4077 16.3842C94.5142 16.2493 94.5675 16.0942 94.5675 15.919C94.5675 15.7557 94.5189 15.6184 94.4219 15.5071C94.3272 15.3958 94.1875 15.3011 94.0028 15.223C93.8205 15.1449 93.5968 15.0739 93.3317 15.0099L92.5398 14.8111C91.9266 14.6619 91.4425 14.4287 91.0874 14.1115C90.7322 13.7943 90.5559 13.367 90.5582 12.8295C90.5559 12.3892 90.6731 12.0045 90.9098 11.6754C91.1489 11.3464 91.4768 11.0895 91.8935 10.9048C92.3101 10.7202 92.7836 10.6278 93.3139 10.6278C93.8537 10.6278 94.3248 10.7202 94.7273 10.9048C95.1321 11.0895 95.447 11.3464 95.6719 11.6754C95.8968 12.0045 96.0128 12.3857 96.0199 12.8189H94.5462Z" fill="white"/>
<path d="M32.9837 15.8152C32.9748 15.7873 32.9626 15.7606 32.9473 15.7358C32.8573 15.5603 32.6386 15.5079 32.2951 15.5811C31.2247 15.8085 30.8102 15.6685 30.66 15.5683C31.5288 14.2029 32.2429 12.5537 32.6288 11.0152C32.8045 10.3147 33.1456 8.66607 32.7079 7.8608C32.6799 7.80568 32.6473 7.75325 32.6102 7.70413C31.7754 6.60573 30.5503 6.01653 29.0672 6.00033C28.0995 5.9898 27.2735 6.23107 27.0498 6.31993C26.939 6.29864 26.8276 6.28049 26.7158 6.26553C26.4355 6.21327 26.1516 6.18478 25.8668 6.18033C25.1014 6.16807 24.44 6.35647 23.8923 6.74073C23.3373 6.52667 20.792 5.64407 19.2168 6.79327C18.337 7.43507 17.9309 8.5822 18.0096 10.2029C18.0361 10.7482 18.3378 12.4255 18.8139 14.0319C19.1116 15.0363 19.4216 15.8332 19.7419 16.4199C20.0999 17.0827 20.4708 17.4821 20.8517 17.6129C21.1414 17.7123 21.5851 17.709 22.0547 17.1277C22.5734 16.4853 23.0843 15.9105 23.3136 15.6564C23.5953 15.8134 23.9005 15.8981 24.2135 15.9079C24.2136 15.9088 24.2137 15.9097 24.2138 15.9106C24.1593 15.9775 24.1059 16.0454 24.0538 16.1142C23.8344 16.401 23.7887 16.4607 23.0825 16.6104C22.8817 16.6531 22.3481 16.7663 22.3403 17.1514C22.3387 17.233 22.3616 17.3053 22.3998 17.3693C22.5467 17.6513 22.9965 17.7757 23.0569 17.7913C23.9209 18.0137 24.6783 17.8527 25.2396 17.3389C25.2286 18.8262 25.2898 20.2838 25.4632 20.7305C25.6065 21.0991 25.9564 22.0001 27.0618 22C27.224 22 27.4026 21.9806 27.5989 21.9373C28.7525 21.6825 29.2535 21.1575 29.4473 20C29.5446 19.4195 29.7073 18.0831 29.7961 17.2659C29.8071 17.219 29.8192 17.1854 29.833 17.1751C29.8335 17.1747 29.8781 17.1437 30.1096 17.1955C30.119 17.1976 30.1286 17.1992 30.1383 17.2001L30.3026 17.2149L30.3123 17.2156C30.8605 17.2412 31.5498 17.1205 31.951 16.9284C32.3678 16.7292 33.1201 16.2402 32.9837 15.8152ZM19.2661 13.9177C18.7847 12.2938 18.5035 10.6609 18.4812 10.2031C18.4109 8.75547 18.7513 7.7478 19.4927 7.20793C20.6818 6.3422 22.626 6.8474 23.4471 7.12127C23.445 7.1234 23.4428 7.12533 23.4407 7.12753C22.1305 8.4902 22.1616 10.8182 22.1648 10.9605C22.1647 11.0154 22.1691 11.0931 22.1753 11.2001C22.1978 11.5916 22.2398 12.3203 22.1277 13.1457C22.0235 13.9126 22.2531 14.6633 22.7575 15.2051C22.8097 15.2612 22.8642 15.3139 22.9205 15.3634C22.696 15.611 22.2081 16.1585 21.6888 16.8018C21.3213 17.2568 21.0675 17.1696 20.9841 17.1409C20.7303 17.0538 20.4577 16.7495 20.1825 16.2594C19.872 15.7001 19.5587 14.9049 19.2661 13.9177ZM23.1552 17.3091C23.0444 17.2805 22.9435 17.2336 22.8754 17.1909C22.933 17.1647 23.0291 17.1308 23.1883 17.097C24.0191 16.9209 24.1474 16.7966 24.4276 16.4302C24.4919 16.3462 24.5646 16.2511 24.6654 16.1351C24.6871 16.1101 24.7034 16.0806 24.7132 16.0486C24.8237 15.9477 24.8895 15.9753 24.996 16.0208C25.097 16.0639 25.1953 16.1941 25.2352 16.3376C25.2541 16.4053 25.2753 16.5339 25.206 16.6339C24.6205 17.4777 23.7677 17.4668 23.1552 17.3091ZM24.5109 14.6504L24.4769 14.7444C24.3908 14.9821 24.3107 15.2031 24.2611 15.4131C23.829 15.4117 23.4086 15.2216 23.0889 14.8781C22.6824 14.4414 22.4978 13.8339 22.5823 13.2112C22.7007 12.3393 22.657 11.58 22.6335 11.1721C22.6302 11.115 22.6273 11.065 22.6256 11.0255C22.817 10.8508 23.7041 10.3614 24.3366 10.5106C24.6253 10.5787 24.8012 10.7811 24.8743 11.1293C25.2528 12.9318 24.9244 13.6831 24.6605 14.2868C24.6061 14.4112 24.5548 14.5287 24.5109 14.6504ZM29.2782 17.6987C29.2673 17.8166 29.2551 17.9494 29.2382 18.096L29.1437 18.3882C29.1362 18.4114 29.1322 18.4356 29.1319 18.46C29.1281 18.7765 29.097 18.8926 29.0575 19.0395C29.0164 19.1923 28.9699 19.3656 28.9413 19.7445C28.8701 20.6874 28.3728 21.229 27.3764 21.4489C26.3953 21.6656 26.2212 21.1177 26.0679 20.6344C26.0522 20.5837 26.0356 20.5334 26.0181 20.4833C25.8786 20.0928 25.8944 19.5421 25.9162 18.7799C25.9269 18.4058 25.9001 17.5124 25.7024 17.0158C25.7052 16.8203 25.7093 16.6219 25.7147 16.4213C25.7154 16.3959 25.712 16.3705 25.7048 16.3462C25.6985 16.2993 25.689 16.253 25.6764 16.2075C25.597 15.922 25.4036 15.6831 25.1716 15.5841C25.0794 15.5448 24.9102 15.4727 24.7069 15.5262C24.7502 15.3422 24.8254 15.1345 24.9069 14.9096L24.9412 14.8149C24.9797 14.7083 25.0279 14.5978 25.0791 14.4808C25.3552 13.8491 25.7333 12.9839 25.3229 11.0293C25.1692 10.2973 24.6558 9.9398 23.8776 10.0228C23.411 10.0725 22.9842 10.2664 22.7713 10.3775C22.7286 10.3998 22.6864 10.423 22.6445 10.4469C22.704 9.70933 22.9285 8.33087 23.7683 7.45873C23.8306 7.39401 23.8962 7.3326 23.9646 7.27473C23.9986 7.26791 24.0306 7.25323 24.0583 7.2318C24.5454 6.8514 25.1553 6.66473 25.8723 6.6768C26.1372 6.68127 26.3914 6.6994 26.6325 6.7308C27.8879 6.96707 28.7327 7.69533 29.2454 8.31927C29.7726 8.9608 30.0581 9.60693 30.172 9.95547C29.3153 9.86573 28.7325 10.04 28.4371 10.4748C27.7945 11.4207 28.7887 13.2567 29.2665 14.1391C29.3541 14.3008 29.4298 14.4405 29.4536 14.4999C29.6091 14.8883 29.8106 15.1475 29.9577 15.3367C30.0028 15.3947 30.0465 15.451 30.0797 15.5001C29.8203 15.5771 29.3541 15.7551 29.3966 16.6447C29.3886 16.7489 29.3692 16.9427 29.3426 17.1879C29.3128 17.3264 29.2971 17.4948 29.2782 17.6987ZM29.8548 16.618C29.8285 16.0636 30.029 16.0057 30.2411 15.9443C30.2704 15.9361 30.2996 15.927 30.3285 15.9173C30.3558 15.9422 30.3849 15.9652 30.4154 15.9859C30.7846 16.2369 31.4398 16.2668 32.362 16.0755C32.2315 16.1935 32.0261 16.3418 31.7448 16.4763C31.4795 16.6031 31.0355 16.6983 30.6136 16.7187C30.1477 16.7411 29.9106 16.6649 29.8548 16.618ZM30.2235 10.4372C30.2196 10.6711 30.1884 10.8833 30.1552 11.105C30.1196 11.3434 30.0827 11.5899 30.0734 11.8891C30.0642 12.1803 30.0996 12.4831 30.1337 12.7759C30.2028 13.3672 30.2736 13.9761 29.9994 14.5768C29.9539 14.4937 29.9133 14.4079 29.8779 14.3197C29.8438 14.2347 29.7699 14.098 29.6675 13.9089C29.2689 13.1729 28.3355 11.4492 28.8133 10.7459C29.059 10.3841 29.6814 10.3685 30.2235 10.4372ZM30.3713 15.113C30.3531 15.089 30.3346 15.0652 30.3161 15.0414L30.2931 15.0118C30.7633 14.2121 30.6713 13.421 30.5895 12.7195C30.5559 12.4316 30.5242 12.1597 30.5322 11.9044C30.5406 11.6337 30.5753 11.4015 30.6089 11.177C30.6503 10.9003 30.6923 10.6141 30.6807 10.2767C30.6894 10.2413 30.6929 10.1995 30.6884 10.1499C30.6588 9.8262 30.3 8.85787 29.5687 7.9812C29.1754 7.50967 28.6044 6.98307 27.8279 6.62153C28.1679 6.55047 28.626 6.48587 29.1385 6.4976C30.4667 6.528 31.5175 7.03993 32.2618 8.0192C32.2776 8.04046 32.292 8.06278 32.305 8.086C32.7731 8.98973 32.1261 12.2694 30.3713 15.113ZM24.6634 11.0355C24.6472 11.1551 24.4634 11.3172 24.2613 11.3172C24.2437 11.3172 24.2262 11.316 24.2089 11.3135C24.0876 11.2961 23.9651 11.2175 23.8814 11.1031C23.8517 11.0627 23.8035 10.9844 23.8131 10.9135C23.8166 10.8867 23.83 10.8478 23.8729 10.8143C23.9495 10.7547 24.1007 10.7325 24.2676 10.7565C24.4724 10.7859 24.6836 10.8857 24.6634 11.0355ZM29.7977 10.7613C29.8049 10.8141 29.7659 10.8953 29.6985 10.9681C29.6543 11.0159 29.5613 11.0988 29.4345 11.1169C29.4184 11.1192 29.4022 11.1203 29.3859 11.1203C29.1959 11.1203 29.0354 10.9641 29.0229 10.8725C29.0074 10.7549 29.1939 10.6655 29.3862 10.6379C29.5785 10.6103 29.7818 10.6437 29.7977 10.7613Z" fill="white"/>
</g>
<defs>
<clipPath id="clip0_220_179">
<rect width="113" height="28" fill="white"/>
</clipPath>
</defs>
</svg>
