<svg width="123" height="28" viewBox="0 0 123 28" fill="none" xmlns="http://www.w3.org/2000/svg">
<g clip-path="url(#clip0_220_224)">
<path d="M109 0H14C6.26801 0 0 6.26801 0 14C0 21.732 6.26802 28 14 28H109C116.732 28 123 21.732 123 14C123 6.26801 116.732 0 109 0Z" fill="#20232A"/>
<path d="M36.9475 18V10.7273H39.8169C40.3661 10.7273 40.8348 10.8255 41.2231 11.022C41.6137 11.2161 41.9108 11.492 42.1144 11.8494C42.3204 12.2045 42.4234 12.6224 42.4234 13.103C42.4234 13.5859 42.3192 14.0014 42.1109 14.3494C41.9026 14.6951 41.6007 14.9602 41.2053 15.1449C40.8124 15.3295 40.3365 15.4219 39.7778 15.4219H37.8566V14.1861H39.5292C39.8228 14.1861 40.0666 14.1458 40.2607 14.0653C40.4549 13.9848 40.5993 13.8641 40.694 13.7031C40.791 13.5421 40.8396 13.3421 40.8396 13.103C40.8396 12.8615 40.791 12.6579 40.694 12.4922C40.5993 12.3265 40.4537 12.201 40.2572 12.1158C40.0631 12.0282 39.818 11.9844 39.5221 11.9844H38.4852V18H36.9475ZM40.8751 14.6903L42.6826 18H40.9852L39.2167 14.6903H40.8751ZM43.51 18V10.7273H48.4106V11.995H45.0477V13.728H48.1585V14.9957H45.0477V16.7322H48.4248V18H43.51ZM50.8866 18H49.2389L51.7496 10.7273H53.7311L56.2382 18H54.5905L52.7687 12.3892H52.7119L50.8866 18ZM50.7836 15.1413H54.6757V16.3416H50.7836V15.1413ZM63.1887 13.2734H61.6333C61.6048 13.0722 61.5468 12.8935 61.4593 12.7372C61.3717 12.5786 61.2592 12.4437 61.1219 12.3324C60.9846 12.2211 60.826 12.1359 60.646 12.0767C60.4685 12.0175 60.2755 11.9879 60.0672 11.9879C59.6908 11.9879 59.3629 12.0814 59.0835 12.2685C58.8042 12.4531 58.5876 12.723 58.4337 13.0781C58.2798 13.4309 58.2029 13.8594 58.2029 14.3636C58.2029 14.8821 58.2798 15.3177 58.4337 15.6705C58.5899 16.0232 58.8077 16.2895 59.0871 16.4695C59.3664 16.6494 59.6896 16.7393 60.0566 16.7393C60.2625 16.7393 60.4531 16.7121 60.6283 16.6577C60.8058 16.6032 60.9633 16.5239 61.1006 16.4197C61.2379 16.3132 61.3515 16.1842 61.4415 16.0327C61.5338 15.8812 61.5977 15.7083 61.6333 15.5142L63.1887 15.5213C63.1484 15.8551 63.0478 16.1771 62.8868 16.4872C62.7282 16.795 62.5139 17.0708 62.2441 17.3146C61.9765 17.5561 61.6569 17.7479 61.2852 17.8899C60.9159 18.0296 60.4981 18.0994 60.0317 18.0994C59.383 18.0994 58.803 17.9527 58.2916 17.6591C57.7826 17.3655 57.3802 16.9406 57.0843 16.3842C56.7907 15.8279 56.6439 15.1544 56.6439 14.3636C56.6439 13.5705 56.7931 12.8958 57.0914 12.3395C57.3896 11.7831 57.7945 11.3594 58.3058 11.0682C58.8172 10.7746 59.3925 10.6278 60.0317 10.6278C60.4531 10.6278 60.8437 10.687 61.2036 10.8054C61.5658 10.9238 61.8866 11.0966 62.1659 11.3239C62.4453 11.5488 62.6726 11.8246 62.8477 12.1513C63.0253 12.478 63.1389 12.852 63.1887 13.2734ZM64.0143 11.995V10.7273H69.9873V11.995H67.7607V18H66.2409V11.995H64.0143ZM79.3685 10.7273V18H78.0404L74.8763 13.4226H74.8231V18H73.2854V10.7273H74.6349L77.7741 15.3011H77.838V10.7273H79.3685ZM81.8925 18H80.2448L82.7554 10.7273H84.7369L87.2441 18H85.5963L83.7746 12.3892H83.7178L81.8925 18ZM81.7895 15.1413H85.6816V16.3416H81.7895V15.1413ZM86.9537 11.995V10.7273H92.9268V11.995H90.7002V18H89.1803V11.995H86.9537ZM95.4481 10.7273V18H93.9104V10.7273H95.4481ZM98.0271 10.7273L99.7849 16.2528H99.8524L101.614 10.7273H103.318L100.811 18H98.8296L96.319 10.7273H98.0271ZM104.194 18V10.7273H109.094V11.995H105.731V13.728H108.842V14.9957H105.731V16.7322H109.108V18H104.194Z" fill="white"/>
<path d="M18.6725 14.0019C18.6725 14.4456 18.4959 14.8712 18.1816 15.1851C17.8672 15.499 17.4409 15.6754 16.9962 15.6756C16.5515 15.6756 16.1249 15.4993 15.8104 15.1854C15.4959 14.8715 15.3192 14.4458 15.3192 14.0019C15.3192 13.5581 15.4958 13.1325 15.8102 12.8186C16.1245 12.5048 16.5509 12.3283 16.9955 12.3281C17.4403 12.3281 17.8668 12.5045 18.1813 12.8184C18.4958 13.1322 18.6725 13.558 18.6725 14.0019ZM20.6585 6C19.649 6 18.3282 6.7186 16.9925 7.96267C15.6575 6.72533 14.336 6.01497 13.3273 6.01497C13.0198 6.01497 12.74 6.08458 12.4978 6.22306C11.4665 6.81665 11.2355 8.66629 11.768 10.9875C9.485 11.6911 8 12.8162 8 14.0019C8 15.192 9.4925 16.3201 11.7823 17.0185C11.2543 19.3487 11.4898 21.2013 12.5233 21.7942C12.7633 21.9341 13.0407 22 13.3497 22C14.3585 22 15.68 21.2814 17.0157 20.0358C18.3507 21.2739 19.6723 21.9843 20.681 21.9843C20.9885 21.9843 21.2682 21.9169 21.5105 21.7784C22.541 21.1856 22.7727 19.336 22.2402 17.014C24.515 16.3164 26 15.1891 26 14.0019C26 12.8117 24.5075 11.6836 22.2178 10.9838C22.7458 8.65581 22.5102 6.80168 21.4767 6.20809C21.2382 6.07036 20.9615 6.00075 20.6585 6ZM20.6547 6.81591V6.8204C20.8235 6.8204 20.9592 6.85333 21.0732 6.91546C21.5727 7.2014 21.7895 8.28903 21.6207 9.68805C21.5802 10.0324 21.5142 10.3954 21.4332 10.7659C20.7132 10.5893 19.9287 10.4538 19.103 10.3662C18.608 9.6888 18.0943 9.0735 17.5768 8.53455C18.7708 7.42671 19.892 6.8189 20.6555 6.81665L20.6547 6.81591ZM13.3273 6.83088C14.0863 6.83088 15.2128 7.4357 16.4098 8.53754C15.8953 9.07649 15.3822 9.68805 14.8947 10.3655C14.0645 10.4531 13.2792 10.5885 12.56 10.7682C12.476 10.4014 12.4138 10.0466 12.3695 9.70526C12.197 8.30699 12.41 7.22012 12.905 6.93043C13.0475 6.86306 13.205 6.83462 13.3273 6.83088ZM16.9887 9.11392C17.33 9.46423 17.6713 9.85647 18.0088 10.2846C17.6788 10.2697 17.3413 10.2592 17 10.2592C16.655 10.2592 16.3138 10.2667 15.98 10.2846C16.31 9.85647 16.6512 9.46498 16.9887 9.11392ZM17 11.0796C17.555 11.0796 18.1077 11.105 18.6515 11.1492C18.956 11.5848 19.253 12.0497 19.5388 12.5415C19.8178 13.0205 20.0712 13.5071 20.3022 13.9981C20.0712 14.4884 19.8178 14.9787 19.5425 15.4578C19.2575 15.9518 18.9628 16.4219 18.6575 16.8575C18.1115 16.9047 17.558 16.9309 17 16.9309C16.445 16.9309 15.8923 16.9047 15.3485 16.8613C15.044 16.4256 14.747 15.96 14.4612 15.469C14.1822 14.9899 13.9288 14.5034 13.6978 14.0124C13.925 13.5206 14.1822 13.0295 14.4575 12.5497C14.7425 12.0557 15.0372 11.5871 15.3425 11.1514C15.8885 11.1035 16.442 11.0781 17 11.0781V11.0796ZM14.2737 11.2697C14.0937 11.5519 13.9137 11.8408 13.7457 12.138C13.577 12.4299 13.4195 12.7234 13.2695 13.0168C13.0708 12.5258 12.902 12.0362 12.7625 11.5594C13.2425 11.4471 13.7487 11.3468 14.2737 11.2697ZM19.7188 11.2697C20.24 11.3468 20.7425 11.4419 21.2233 11.5594C21.0883 12.0325 20.9195 12.519 20.7283 13.0063C20.5783 12.7144 20.4207 12.4202 20.2482 12.1275C20.0795 11.8341 19.8995 11.5482 19.7195 11.2697H19.7188ZM22.016 11.775C22.379 11.8873 22.724 12.0123 23.0472 12.1477C24.3462 12.7017 25.1863 13.4262 25.1863 14.0011C25.1825 14.576 24.3425 15.3036 23.0435 15.8538C22.7285 15.9885 22.3835 16.1098 22.0272 16.2228C21.8172 15.5057 21.5428 14.7586 21.2023 13.9921C21.5398 13.2309 21.8097 12.4876 22.016 11.7735V11.775ZM11.9698 11.778C12.1783 12.4966 12.4535 13.2429 12.7948 14.0086C12.4573 14.7699 12.1858 15.5132 11.9803 16.2273C11.6173 16.115 11.2723 15.9892 10.9528 15.853C9.65375 15.3013 8.81375 14.576 8.81375 14.0011C8.81375 13.4262 9.65375 12.6972 10.9528 12.1477C11.2678 12.013 11.6128 11.8917 11.9698 11.778ZM20.7283 14.9817C20.927 15.4735 21.0957 15.9638 21.2352 16.4399C20.7552 16.5574 20.2482 16.6569 19.7232 16.7318C19.9032 16.4511 20.0833 16.1614 20.252 15.865C20.4208 15.5731 20.5775 15.2751 20.7283 14.9817ZM13.2695 14.9967C13.4195 15.2901 13.577 15.5828 13.7495 15.8762C13.922 16.1681 14.0983 16.4541 14.2783 16.7318C13.757 16.6554 13.2545 16.5596 12.7737 16.4429C12.9087 15.9713 13.0783 15.4832 13.2688 14.9959L13.2695 14.9967ZM21.44 17.2326C21.524 17.6016 21.59 17.9571 21.6305 18.2977C21.803 19.696 21.59 20.7829 21.095 21.0733C20.9847 21.1407 20.8415 21.1691 20.6727 21.1691C19.9137 21.1691 18.7872 20.5651 17.5902 19.4625C18.1047 18.9235 18.6178 18.3127 19.1053 17.636C19.9355 17.5477 20.7208 17.4122 21.44 17.2326ZM12.5675 17.24C13.2875 17.4152 14.072 17.5507 14.8977 17.6383C15.3927 18.3157 15.9065 18.931 16.424 19.4692C15.2278 20.5793 14.105 21.1871 13.3415 21.1871C13.1765 21.1833 13.037 21.1497 12.9267 21.0883C12.4272 20.8038 12.2105 19.7155 12.3793 18.3164C12.4198 17.9721 12.4865 17.6098 12.5675 17.24ZM15.9875 17.7191C16.3175 17.7341 16.655 17.7446 16.9962 17.7446C17.3412 17.7446 17.6825 17.7371 18.0162 17.7191C17.6862 18.1473 17.345 18.5388 17.0075 18.8906C16.6663 18.5388 16.325 18.1473 15.9875 17.7191Z" fill="#61DAFB"/>
</g>
<defs>
<clipPath id="clip0_220_224">
<rect width="123" height="28" fill="white"/>
</clipPath>
</defs>
</svg>
