<svg width="87" height="28" viewBox="0 0 87 28" fill="none" xmlns="http://www.w3.org/2000/svg">
<g clip-path="url(#clip0_220_229)">
<path d="M72.25 0H14C6.26801 0 0 6.26801 0 14C0 21.732 6.26801 28 14 28H72.25C79.982 28 86.25 21.732 86.25 14C86.25 6.26801 79.982 0 72.25 0Z" fill="#20232A"/>
<path d="M38.1204 18V10.7273H40.9897C41.5389 10.7273 42.0077 10.8255 42.396 11.022C42.7866 11.2161 43.0837 11.492 43.2873 11.8494C43.4933 12.2045 43.5962 12.6224 43.5962 13.103C43.5962 13.5859 43.4921 14.0014 43.2837 14.3494C43.0754 14.6951 42.7736 14.9602 42.3782 15.1449C41.9852 15.3295 41.5094 15.4219 40.9506 15.4219H39.0295V14.1861H40.7021C40.9956 14.1861 41.2395 14.1458 41.4336 14.0653C41.6277 13.9848 41.7721 13.8641 41.8668 13.7031C41.9639 13.5421 42.0124 13.3421 42.0124 13.103C42.0124 12.8615 41.9639 12.6579 41.8668 12.4922C41.7721 12.3265 41.6265 12.201 41.43 12.1158C41.2359 12.0282 40.9909 11.9844 40.695 11.9844H39.658V18H38.1204ZM42.0479 14.6903L43.8555 18H42.158L40.3896 14.6903H42.0479ZM44.6829 18V10.7273H49.5835V11.995H46.2205V13.728H49.3313V14.9957H46.2205V16.7322H49.5977V18H44.6829ZM52.0595 18H50.4118L52.9224 10.7273H54.9039L57.411 18H55.7633L53.9416 12.3892H53.8848L52.0595 18ZM51.9565 15.1413H55.8485V16.3416H51.9565V15.1413ZM64.3615 13.2734H62.8061C62.7777 13.0722 62.7197 12.8935 62.6321 12.7372C62.5445 12.5786 62.4321 12.4437 62.2947 12.3324C62.1574 12.2211 61.9988 12.1359 61.8189 12.0767C61.6413 12.0175 61.4484 11.9879 61.2401 11.9879C60.8636 11.9879 60.5357 12.0814 60.2564 12.2685C59.977 12.4531 59.7604 12.723 59.6065 13.0781C59.4527 13.4309 59.3757 13.8594 59.3757 14.3636C59.3757 14.8821 59.4527 15.3177 59.6065 15.6705C59.7628 16.0232 59.9806 16.2895 60.2599 16.4695C60.5393 16.6494 60.8625 16.7393 61.2294 16.7393C61.4354 16.7393 61.6259 16.7121 61.8011 16.6577C61.9787 16.6032 62.1361 16.5239 62.2734 16.4197C62.4107 16.3132 62.5244 16.1842 62.6143 16.0327C62.7067 15.8812 62.7706 15.7083 62.8061 15.5142L64.3615 15.5213C64.3213 15.8551 64.2206 16.1771 64.0597 16.4872C63.901 16.795 63.6868 17.0708 63.4169 17.3146C63.1494 17.5561 62.8298 17.7479 62.4581 17.8899C62.0888 18.0296 61.6709 18.0994 61.2045 18.0994C60.5559 18.0994 59.9759 17.9527 59.4645 17.6591C58.9555 17.3655 58.553 16.9406 58.2571 16.3842C57.9635 15.8279 57.8168 15.1544 57.8168 14.3636C57.8168 13.5705 57.9659 12.8958 58.2642 12.3395C58.5625 11.7831 58.9673 11.3594 59.4787 11.0682C59.9901 10.7746 60.5653 10.6278 61.2045 10.6278C61.6259 10.6278 62.0166 10.687 62.3764 10.8054C62.7386 10.9238 63.0594 11.0966 63.3388 11.3239C63.6181 11.5488 63.8454 11.8246 64.0206 12.1513C64.1982 12.478 64.3118 12.852 64.3615 13.2734ZM65.1871 11.995V10.7273H71.1602V11.995H68.9336V18H67.4137V11.995H65.1871Z" fill="white"/>
<path d="M23.6725 14.0019C23.6725 14.4456 23.4959 14.8712 23.1816 15.1851C22.8672 15.499 22.4409 15.6754 21.9962 15.6756C21.5515 15.6756 21.1249 15.4993 20.8104 15.1854C20.4959 14.8715 20.3192 14.4458 20.3192 14.0019C20.3192 13.5581 20.4958 13.1325 20.8102 12.8186C21.1245 12.5048 21.5509 12.3283 21.9955 12.3281C22.4403 12.3281 22.8668 12.5045 23.1813 12.8184C23.4958 13.1322 23.6725 13.558 23.6725 14.0019ZM25.6585 6C24.649 6 23.3282 6.7186 21.9925 7.96267C20.6575 6.72533 19.336 6.01497 18.3273 6.01497C18.0198 6.01497 17.74 6.08458 17.4978 6.22306C16.4665 6.81665 16.2355 8.66629 16.768 10.9875C14.485 11.6911 13 12.8162 13 14.0019C13 15.192 14.4925 16.3201 16.7823 17.0185C16.2543 19.3487 16.4898 21.2013 17.5233 21.7942C17.7633 21.9341 18.0407 22 18.3497 22C19.3585 22 20.68 21.2814 22.0157 20.0358C23.3507 21.2739 24.6723 21.9843 25.681 21.9843C25.9885 21.9843 26.2682 21.9169 26.5105 21.7784C27.541 21.1856 27.7727 19.336 27.2402 17.014C29.515 16.3164 31 15.1891 31 14.0019C31 12.8117 29.5075 11.6836 27.2178 10.9838C27.7458 8.65581 27.5102 6.80168 26.4767 6.20809C26.2382 6.07036 25.9615 6.00075 25.6585 6ZM25.6547 6.81591V6.8204C25.8235 6.8204 25.9592 6.85333 26.0732 6.91546C26.5727 7.2014 26.7895 8.28903 26.6207 9.68805C26.5802 10.0324 26.5142 10.3954 26.4332 10.7659C25.7132 10.5893 24.9287 10.4538 24.103 10.3662C23.608 9.6888 23.0943 9.0735 22.5768 8.53455C23.7708 7.42671 24.892 6.8189 25.6555 6.81665L25.6547 6.81591ZM18.3273 6.83088C19.0863 6.83088 20.2128 7.4357 21.4098 8.53754C20.8953 9.07649 20.3822 9.68805 19.8947 10.3655C19.0645 10.4531 18.2792 10.5885 17.56 10.7682C17.476 10.4014 17.4138 10.0466 17.3695 9.70526C17.197 8.30699 17.41 7.22012 17.905 6.93043C18.0475 6.86306 18.205 6.83462 18.3273 6.83088ZM21.9887 9.11392C22.33 9.46423 22.6713 9.85647 23.0088 10.2846C22.6788 10.2697 22.3413 10.2592 22 10.2592C21.655 10.2592 21.3138 10.2667 20.98 10.2846C21.31 9.85647 21.6512 9.46498 21.9887 9.11392ZM22 11.0796C22.555 11.0796 23.1077 11.105 23.6515 11.1492C23.956 11.5848 24.253 12.0497 24.5388 12.5415C24.8178 13.0205 25.0712 13.5071 25.3022 13.9981C25.0712 14.4884 24.8178 14.9787 24.5425 15.4578C24.2575 15.9518 23.9628 16.4219 23.6575 16.8575C23.1115 16.9047 22.558 16.9309 22 16.9309C21.445 16.9309 20.8923 16.9047 20.3485 16.8613C20.044 16.4256 19.747 15.96 19.4612 15.469C19.1822 14.9899 18.9288 14.5034 18.6978 14.0124C18.925 13.5206 19.1822 13.0295 19.4575 12.5497C19.7425 12.0557 20.0372 11.5871 20.3425 11.1514C20.8885 11.1035 21.442 11.0781 22 11.0781V11.0796ZM19.2737 11.2697C19.0937 11.5519 18.9137 11.8408 18.7457 12.138C18.577 12.4299 18.4195 12.7234 18.2695 13.0168C18.0708 12.5258 17.902 12.0362 17.7625 11.5594C18.2425 11.4471 18.7487 11.3468 19.2737 11.2697ZM24.7188 11.2697C25.24 11.3468 25.7425 11.4419 26.2233 11.5594C26.0883 12.0325 25.9195 12.519 25.7283 13.0063C25.5783 12.7144 25.4207 12.4202 25.2482 12.1275C25.0795 11.8341 24.8995 11.5482 24.7195 11.2697H24.7188ZM27.016 11.775C27.379 11.8873 27.724 12.0123 28.0472 12.1477C29.3462 12.7017 30.1863 13.4262 30.1863 14.0011C30.1825 14.576 29.3425 15.3036 28.0435 15.8538C27.7285 15.9885 27.3835 16.1098 27.0272 16.2228C26.8172 15.5057 26.5428 14.7586 26.2023 13.9921C26.5398 13.2309 26.8097 12.4876 27.016 11.7735V11.775ZM16.9698 11.778C17.1783 12.4966 17.4535 13.2429 17.7948 14.0086C17.4573 14.7699 17.1858 15.5132 16.9803 16.2273C16.6173 16.115 16.2723 15.9892 15.9528 15.853C14.6538 15.3013 13.8138 14.576 13.8138 14.0011C13.8138 13.4262 14.6538 12.6972 15.9528 12.1477C16.2678 12.013 16.6128 11.8917 16.9698 11.778ZM25.7283 14.9817C25.927 15.4735 26.0957 15.9638 26.2352 16.4399C25.7552 16.5574 25.2482 16.6569 24.7232 16.7318C24.9032 16.4511 25.0833 16.1614 25.252 15.865C25.4208 15.5731 25.5775 15.2751 25.7283 14.9817ZM18.2695 14.9967C18.4195 15.2901 18.577 15.5828 18.7495 15.8762C18.922 16.1681 19.0983 16.4541 19.2783 16.7318C18.757 16.6554 18.2545 16.5596 17.7737 16.4429C17.9087 15.9713 18.0783 15.4832 18.2688 14.9959L18.2695 14.9967ZM26.44 17.2326C26.524 17.6016 26.59 17.9571 26.6305 18.2977C26.803 19.696 26.59 20.7829 26.095 21.0733C25.9847 21.1407 25.8415 21.1691 25.6727 21.1691C24.9137 21.1691 23.7872 20.5651 22.5902 19.4625C23.1047 18.9235 23.6178 18.3127 24.1053 17.636C24.9355 17.5477 25.7208 17.4122 26.44 17.2326ZM17.5675 17.24C18.2875 17.4152 19.072 17.5507 19.8977 17.6383C20.3927 18.3157 20.9065 18.931 21.424 19.4692C20.2278 20.5793 19.105 21.1871 18.3415 21.1871C18.1765 21.1833 18.037 21.1497 17.9267 21.0883C17.4272 20.8038 17.2105 19.7155 17.3793 18.3164C17.4198 17.9721 17.4865 17.6098 17.5675 17.24ZM20.9875 17.7191C21.3175 17.7341 21.655 17.7446 21.9962 17.7446C22.3412 17.7446 22.6825 17.7371 23.0162 17.7191C22.6862 18.1473 22.345 18.5388 22.0075 18.8906C21.6663 18.5388 21.325 18.1473 20.9875 17.7191Z" fill="#61DAFB"/>
</g>
<defs>
<clipPath id="clip0_220_229">
<rect width="86.25" height="28" fill="white"/>
</clipPath>
</defs>
</svg>
