<svg width="144" height="28" viewBox="0 0 144 28" fill="none" xmlns="http://www.w3.org/2000/svg">
<g clip-path="url(#clip0_220_219)">
<path d="M130 0H14C6.26801 0 0 6.26801 0 14C0 21.732 6.26801 28 14 28H130C137.732 28 144 21.732 144 14C144 6.26801 137.732 0 130 0Z" fill="#CA4245"/>
<path d="M49.9407 18V10.7273H52.81C53.3593 10.7273 53.828 10.8255 54.2163 11.022C54.6069 11.2161 54.904 11.492 55.1076 11.8494C55.3136 12.2045 55.4165 12.6224 55.4165 13.103C55.4165 13.5859 55.3124 14.0014 55.104 14.3494C54.8957 14.6951 54.5939 14.9602 54.1985 15.1449C53.8055 15.3295 53.3297 15.4219 52.771 15.4219H50.8498V14.1861H52.5224C52.8159 14.1861 53.0598 14.1458 53.2539 14.0653C53.448 13.9848 53.5924 13.8641 53.6871 13.7031C53.7842 13.5421 53.8327 13.3421 53.8327 13.103C53.8327 12.8615 53.7842 12.6579 53.6871 12.4922C53.5924 12.3265 53.4469 12.201 53.2504 12.1158C53.0562 12.0282 52.8112 11.9844 52.5153 11.9844H51.4783V18H49.9407ZM53.8683 14.6903L55.6758 18H53.9783L52.2099 14.6903H53.8683ZM56.5032 18V10.7273H61.4038V11.995H58.0408V13.728H61.1516V14.9957H58.0408V16.7322H61.418V18H56.5032ZM63.8798 18H62.2321L64.7427 10.7273H66.7243L69.2314 18H67.5836L65.7619 12.3892H65.7051L63.8798 18ZM63.7768 15.1413H67.6689V16.3416H63.7768V15.1413ZM76.1818 13.2734H74.6264C74.598 13.0722 74.54 12.8935 74.4524 12.7372C74.3648 12.5786 74.2524 12.4437 74.1151 12.3324C73.9777 12.2211 73.8191 12.1359 73.6392 12.0767C73.4616 12.0175 73.2687 11.9879 73.0604 11.9879C72.6839 11.9879 72.3561 12.0814 72.0767 12.2685C71.7973 12.4531 71.5807 12.723 71.4268 13.0781C71.273 13.4309 71.196 13.8594 71.196 14.3636C71.196 14.8821 71.273 15.3177 71.4268 15.6705C71.5831 16.0232 71.8009 16.2895 72.0803 16.4695C72.3596 16.6494 72.6828 16.7393 73.0497 16.7393C73.2557 16.7393 73.4463 16.7121 73.6214 16.6577C73.799 16.6032 73.9564 16.5239 74.0938 16.4197C74.2311 16.3132 74.3447 16.1842 74.4347 16.0327C74.527 15.8812 74.5909 15.7083 74.6264 15.5142L76.1818 15.5213C76.1416 15.8551 76.041 16.1771 75.88 16.4872C75.7214 16.795 75.5071 17.0708 75.2372 17.3146C74.9697 17.5561 74.6501 17.7479 74.2784 17.8899C73.9091 18.0296 73.4912 18.0994 73.0249 18.0994C72.3762 18.0994 71.7962 17.9527 71.2848 17.6591C70.7758 17.3655 70.3733 16.9406 70.0774 16.3842C69.7839 15.8279 69.6371 15.1544 69.6371 14.3636C69.6371 13.5705 69.7862 12.8958 70.0845 12.3395C70.3828 11.7831 70.7876 11.3594 71.299 11.0682C71.8104 10.7746 72.3857 10.6278 73.0249 10.6278C73.4463 10.6278 73.8369 10.687 74.1967 10.8054C74.5589 10.9238 74.8797 11.0966 75.1591 11.3239C75.4384 11.5488 75.6657 11.8246 75.8409 12.1513C76.0185 12.478 76.1321 12.852 76.1818 13.2734ZM77.0075 11.995V10.7273H82.9805V11.995H80.7539V18H79.234V11.995H77.0075ZM86.2786 18V10.7273H89.1479C89.6971 10.7273 90.1659 10.8255 90.5542 11.022C90.9448 11.2161 91.2419 11.492 91.4455 11.8494C91.6515 12.2045 91.7544 12.6224 91.7544 13.103C91.7544 13.5859 91.6503 14.0014 91.4419 14.3494C91.2336 14.6951 90.9318 14.9602 90.5364 15.1449C90.1434 15.3295 89.6676 15.4219 89.1088 15.4219H87.1877V14.1861H88.8603C89.1538 14.1861 89.3977 14.1458 89.5918 14.0653C89.7859 13.9848 89.9303 13.8641 90.025 13.7031C90.1221 13.5421 90.1706 13.3421 90.1706 13.103C90.1706 12.8615 90.1221 12.6579 90.025 12.4922C89.9303 12.3265 89.7847 12.201 89.5882 12.1158C89.3941 12.0282 89.1491 11.9844 88.8532 11.9844H87.8162V18H86.2786ZM90.2061 14.6903L92.0137 18H90.3162L88.5478 14.6903H90.2061ZM99.5243 14.3636C99.5243 15.1567 99.374 15.8314 99.0733 16.3878C98.775 16.9441 98.3678 17.3691 97.8517 17.6626C97.338 17.9538 96.7604 18.0994 96.1188 18.0994C95.4725 18.0994 94.8925 17.9527 94.3787 17.6591C93.865 17.3655 93.459 16.9406 93.1607 16.3842C92.8624 15.8279 92.7132 15.1544 92.7132 14.3636C92.7132 13.5705 92.8624 12.8958 93.1607 12.3395C93.459 11.7831 93.865 11.3594 94.3787 11.0682C94.8925 10.7746 95.4725 10.6278 96.1188 10.6278C96.7604 10.6278 97.338 10.7746 97.8517 11.0682C98.3678 11.3594 98.775 11.7831 99.0733 12.3395C99.374 12.8958 99.5243 13.5705 99.5243 14.3636ZM97.9654 14.3636C97.9654 13.8499 97.8884 13.4167 97.7346 13.0639C97.583 12.7112 97.3688 12.4437 97.0918 12.2614C96.8148 12.0791 96.4905 11.9879 96.1188 11.9879C95.7471 11.9879 95.4228 12.0791 95.1458 12.2614C94.8688 12.4437 94.6533 12.7112 94.4995 13.0639C94.348 13.4167 94.2722 13.8499 94.2722 14.3636C94.2722 14.8774 94.348 15.3106 94.4995 15.6634C94.6533 16.0161 94.8688 16.2836 95.1458 16.4659C95.4228 16.6482 95.7471 16.7393 96.1188 16.7393C96.4905 16.7393 96.8148 16.6482 97.0918 16.4659C97.3688 16.2836 97.583 16.0161 97.7346 15.6634C97.8884 15.3106 97.9654 14.8774 97.9654 14.3636ZM105.156 10.7273H106.693V15.4503C106.693 15.9806 106.567 16.4446 106.313 16.8423C106.062 17.2401 105.711 17.5502 105.259 17.7727C104.806 17.9929 104.28 18.103 103.678 18.103C103.075 18.103 102.547 17.9929 102.094 17.7727C101.642 17.5502 101.291 17.2401 101.04 16.8423C100.789 16.4446 100.663 15.9806 100.663 15.4503V10.7273H102.201V15.3189C102.201 15.5959 102.261 15.8421 102.382 16.0575C102.505 16.273 102.678 16.4422 102.901 16.5653C103.123 16.6884 103.382 16.75 103.678 16.75C103.977 16.75 104.236 16.6884 104.456 16.5653C104.679 16.4422 104.85 16.273 104.971 16.0575C105.094 15.8421 105.156 15.5959 105.156 15.3189V10.7273ZM107.681 11.995V10.7273H113.654V11.995H111.428V18H109.908V11.995H107.681ZM114.638 18V10.7273H119.539V11.995H116.176V13.728H119.286V14.9957H116.176V16.7322H119.553V18H114.638ZM120.761 18V10.7273H123.63C124.18 10.7273 124.648 10.8255 125.037 11.022C125.427 11.2161 125.724 11.492 125.928 11.8494C126.134 12.2045 126.237 12.6224 126.237 13.103C126.237 13.5859 126.133 14.0014 125.924 14.3494C125.716 14.6951 125.414 14.9602 125.019 15.1449C124.626 15.3295 124.15 15.4219 123.591 15.4219H121.67V14.1861H123.343C123.636 14.1861 123.88 14.1458 124.074 14.0653C124.268 13.9848 124.413 13.8641 124.507 13.7031C124.605 13.5421 124.653 13.3421 124.653 13.103C124.653 12.8615 124.605 12.6579 124.507 12.4922C124.413 12.3265 124.267 12.201 124.071 12.1158C123.877 12.0282 123.632 11.9844 123.336 11.9844H122.299V18H120.761ZM124.689 14.6903L126.496 18H124.799L123.03 14.6903H124.689Z" fill="white"/>
<path d="M25.6229 7.0001C25.4038 6.99809 25.1854 7.02693 24.9739 7.0858C24.6843 7.15758 24.2427 7.44146 23.9812 7.71035C23.5542 8.1635 23.4708 8.36276 23.2917 9.28406C23.2083 9.73721 23.7187 10.816 24.1739 11.1417C24.6427 11.4812 25.3041 11.6794 26.325 11.793C27.8135 11.9644 28.2416 12.4743 28.2416 14.1466C28.2416 15.6217 27.8406 16.0181 26.2 16.1884C24.4219 16.3727 23.5125 17.0819 23.3198 18.4563C23.2094 19.293 23.7469 20.3418 24.4916 20.6964C26.1864 21.5191 27.7728 20.4843 28.1031 18.3438C28.3228 16.9683 28.751 16.5848 30.1843 16.4723C31.8384 16.3298 32.6936 15.7492 33.0103 14.558C33.2999 13.4653 32.6936 12.2472 31.6593 11.8219C31.3843 11.7084 30.7499 11.5669 30.253 11.5102C28.6958 11.3388 28.2958 11.056 28.1301 10.0211C27.8958 8.5888 27.7999 8.34776 27.3031 7.78213C27.092 7.53785 26.8334 7.34197 26.5439 7.20724C26.2544 7.07251 25.9406 7.00193 25.6229 7.0001ZM20.6386 11.6709C20.4646 11.6672 20.2909 11.6845 20.1209 11.7223C18.5907 12.0629 17.8605 13.9195 18.7146 15.2521C19.9417 17.1526 22.8229 16.2731 22.85 13.9912C22.8625 12.7132 21.8292 11.6955 20.6386 11.6709ZM15.1761 16.3459C15.0265 16.3496 14.8775 16.3683 14.7314 16.4016C12.4835 16.9115 12.4012 20.2861 14.6209 20.8817C15.173 21.037 15.2272 21.037 15.7782 20.8956C17.0188 20.555 17.7219 19.3358 17.3917 18.1028C17.1022 17.0101 16.2001 16.3202 15.1761 16.3459ZM35.8259 16.3545C35.5832 16.3566 35.329 16.4166 35.0092 16.528C33.5613 17.039 33.0655 18.7691 33.9884 20.1018C34.5686 20.9524 36.03 21.2352 36.9259 20.6546C38.4008 19.7183 38.3456 17.3797 36.829 16.6416C36.4331 16.4423 36.1384 16.3513 35.8259 16.3545Z" fill="white"/>
</g>
<defs>
<clipPath id="clip0_220_219">
<rect width="144" height="28" fill="white"/>
</clipPath>
</defs>
</svg>
