<svg width="89" height="28" viewBox="0 0 89 28" fill="none" xmlns="http://www.w3.org/2000/svg">
<g clip-path="url(#clip0_220_214)">
<path d="M74.25 0H14C6.26801 0 0 6.26801 0 14C0 21.732 6.26801 28 14 28H74.25C81.982 28 88.25 21.732 88.25 14C88.25 6.26801 81.982 0 74.25 0Z" fill="#593D88"/>
<path d="M38.93 18V10.7273H41.7993C42.3485 10.7273 42.8173 10.8255 43.2055 11.022C43.5961 11.2161 43.8933 11.492 44.0969 11.8494C44.3028 12.2045 44.4058 12.6224 44.4058 13.103C44.4058 13.5859 44.3016 14.0014 44.0933 14.3494C43.885 14.6951 43.5831 14.9602 43.1878 15.1449C42.7948 15.3295 42.3189 15.4219 41.7602 15.4219H39.839V14.1861H41.5116C41.8052 14.1861 42.049 14.1458 42.2432 14.0653C42.4373 13.9848 42.5817 13.8641 42.6764 13.7031C42.7735 13.5421 42.822 13.3421 42.822 13.103C42.822 12.8615 42.7735 12.6579 42.6764 12.4922C42.5817 12.3265 42.4361 12.201 42.2396 12.1158C42.0455 12.0282 41.8005 11.9844 41.5045 11.9844H40.4676V18H38.93ZM42.8575 14.6903L44.665 18H42.9676L41.1991 14.6903H42.8575ZM45.4925 18V10.7273H50.393V11.995H47.0301V13.728H50.1409V14.9957H47.0301V16.7322H50.4072V18H45.4925ZM54.1936 18H51.6155V10.7273H54.2149C54.9465 10.7273 55.5762 10.8729 56.1041 11.1641C56.6321 11.4529 57.0381 11.8684 57.3222 12.4105C57.6086 12.9527 57.7519 13.6013 57.7519 14.3565C57.7519 15.1141 57.6086 15.7652 57.3222 16.3097C57.0381 16.8542 56.6297 17.272 56.097 17.5632C55.5667 17.8544 54.9323 18 54.1936 18ZM53.1531 16.6825H54.1297C54.5843 16.6825 54.9666 16.602 55.2767 16.4411C55.5892 16.2777 55.8236 16.0256 55.9798 15.6847C56.1385 15.3414 56.2178 14.8987 56.2178 14.3565C56.2178 13.8191 56.1385 13.38 55.9798 13.0391C55.8236 12.6982 55.5904 12.4472 55.2803 12.2862C54.9701 12.1252 54.5878 12.0447 54.1333 12.0447H53.1531V16.6825ZM63.3831 10.7273H64.9207V15.4503C64.9207 15.9806 64.7941 16.4446 64.5407 16.8423C64.2898 17.2401 63.9382 17.5502 63.4861 17.7727C63.0339 17.9929 62.5071 18.103 61.9058 18.103C61.3021 18.103 60.7742 17.9929 60.322 17.7727C59.8698 17.5502 59.5183 17.2401 59.2673 16.8423C59.0164 16.4446 58.8909 15.9806 58.8909 15.4503V10.7273H60.4285V15.3189C60.4285 15.5959 60.4889 15.8421 60.6096 16.0575C60.7327 16.273 60.9056 16.4422 61.1281 16.5653C61.3506 16.6884 61.6099 16.75 61.9058 16.75C62.2041 16.75 62.4633 16.6884 62.6835 16.5653C62.906 16.4422 63.0777 16.273 63.1984 16.0575C63.3215 15.8421 63.3831 15.5959 63.3831 15.3189V10.7273ZM67.6276 10.7273L69.0942 13.206H69.151L70.6247 10.7273H72.3612L70.1418 14.3636L72.411 18H70.6425L69.151 15.5178H69.0942L67.6027 18H65.8414L68.1176 14.3636L65.884 10.7273H67.6276Z" fill="white"/>
<path d="M24.7822 17.1663C25.3985 17.1135 25.8752 16.5757 25.8447 15.9332C25.8114 15.2907 25.2809 14.7747 24.6342 14.7747H24.591C24.27 14.7861 23.9668 14.9234 23.7479 15.1566C23.529 15.3898 23.4124 15.6998 23.4237 16.0183C23.4449 16.355 23.5837 16.6292 23.7736 16.8288C23.0312 18.2615 21.9171 19.3146 20.2284 20.1996C19.093 20.7888 17.8938 21.0109 16.7265 20.8534C15.7504 20.7163 14.9868 20.284 14.5193 19.5888C13.8195 18.535 13.7558 17.3982 14.3387 16.2608C14.7637 15.4383 15.4005 14.8387 15.8255 14.5434C15.6972 14.1903 15.5977 13.8276 15.528 13.4587C12.3852 15.6928 12.7053 18.7466 13.6601 20.1898C14.3713 21.2429 15.8255 21.9163 17.4171 21.9163C17.8421 21.9163 18.2883 21.8854 18.7225 21.78C21.4829 21.2534 23.5731 19.6105 24.7723 17.188L24.7822 17.1663ZM28.5703 14.5329C26.927 12.6151 24.506 11.562 21.7464 11.562H21.3851C21.2059 11.1726 20.7922 10.9301 20.324 10.9301H20.2922C19.6242 10.9301 19.1036 11.4995 19.1256 12.1624C19.1468 12.7937 19.688 13.3209 20.3354 13.3209H20.3878C20.6174 13.3121 20.8396 13.2379 21.0279 13.1071C21.2162 12.9764 21.3626 12.7946 21.4496 12.5835H21.8427C23.4782 12.5835 25.0266 13.0573 26.4383 13.9838C27.5199 14.6903 28.2955 15.6169 28.7311 16.7234C29.1122 17.6288 29.0917 18.5139 28.6992 19.252C28.0936 20.4098 27.0743 21.0214 25.7271 21.0214C24.8778 21.0214 24.0505 20.7578 23.6255 20.5687C23.3705 20.7782 22.9455 21.1262 22.6381 21.3371C23.5717 21.7575 24.5166 22 25.4289 22C27.4986 22 29.0371 20.8422 29.6215 19.7251C30.2575 18.4612 30.2051 16.3339 28.5802 14.5118L28.5703 14.5329ZM17.597 17.5445C17.6182 18.1764 18.1587 18.703 18.8068 18.703H18.8493C19.0088 18.6994 19.166 18.6642 19.3116 18.5994C19.4571 18.5346 19.5882 18.4416 19.6969 18.3258C19.8057 18.2099 19.8901 18.0737 19.945 17.925C19.9999 17.7763 20.0242 17.6183 20.0166 17.4601C20.0166 16.8274 19.4648 16.3023 18.8174 16.3023H18.7749C18.7324 16.3023 18.6687 16.3023 18.6149 16.3227C17.7344 14.8478 17.3625 13.2668 17.5014 11.562C17.5864 10.277 18.0114 9.15993 18.7742 8.23339C19.4117 7.44323 20.6109 7.05237 21.4283 7.03269C23.7204 6.98981 24.676 9.82425 24.7496 10.9511L25.8107 11.2675C25.5663 7.8116 23.4024 6 21.3327 6C19.3891 6 17.597 7.40105 16.8745 9.45518C15.8878 12.1933 16.5352 14.8274 17.7457 16.9343C17.6395 17.0714 17.5758 17.3132 17.597 17.5445Z" fill="white"/>
</g>
<defs>
<clipPath id="clip0_220_214">
<rect width="88.25" height="28" fill="white"/>
</clipPath>
</defs>
</svg>
