<svg width="78" height="28" viewBox="0 0 78 28" fill="none" xmlns="http://www.w3.org/2000/svg">
<g clip-path="url(#clip0_220_279)">
<path d="M64 0H14C6.26801 0 0 6.26801 0 14C0 21.732 6.26801 28 14 28H64C71.732 28 78 21.732 78 14C78 6.26801 71.732 0 64 0Z" fill="black"/>
<path d="M36.0872 18V10.7273H38.9565C39.5057 10.7273 39.9745 10.8255 40.3627 11.022C40.7534 11.2161 41.0505 11.492 41.2541 11.8494C41.46 12.2045 41.563 12.6224 41.563 13.103C41.563 13.5859 41.4589 14.0014 41.2505 14.3494C41.0422 14.6951 40.7404 14.9602 40.345 15.1449C39.952 15.3295 39.4761 15.4219 38.9174 15.4219H36.9963V14.1861H38.6689C38.9624 14.1861 39.2063 14.1458 39.4004 14.0653C39.5945 13.9848 39.7389 13.8641 39.8336 13.7031C39.9307 13.5421 39.9792 13.3421 39.9792 13.103C39.9792 12.8615 39.9307 12.6579 39.8336 12.4922C39.7389 12.3265 39.5933 12.201 39.3968 12.1158C39.2027 12.0282 38.9577 11.9844 38.6618 11.9844H37.6248V18H36.0872ZM40.0147 14.6903L41.8223 18H40.1248L38.3564 14.6903H40.0147ZM47.1419 10.7273H48.6795V15.4503C48.6795 15.9806 48.5529 16.4446 48.2995 16.8423C48.0486 17.2401 47.697 17.5502 47.2449 17.7727C46.7927 17.9929 46.2659 18.103 45.6646 18.103C45.0609 18.103 44.533 17.9929 44.0808 17.7727C43.6286 17.5502 43.277 17.2401 43.0261 16.8423C42.7752 16.4446 42.6497 15.9806 42.6497 15.4503V10.7273H44.1873V15.3189C44.1873 15.5959 44.2477 15.8421 44.3684 16.0575C44.4915 16.273 44.6644 16.4422 44.8869 16.5653C45.1094 16.6884 45.3687 16.75 45.6646 16.75C45.9629 16.75 46.2221 16.6884 46.4423 16.5653C46.6648 16.4422 46.8365 16.273 46.9572 16.0575C47.0803 15.8421 47.1419 15.5959 47.1419 15.3189V10.7273ZM53.8899 12.8189C53.8615 12.5324 53.7396 12.3099 53.5241 12.1513C53.3087 11.9927 53.0163 11.9134 52.647 11.9134C52.3961 11.9134 52.1842 11.9489 52.0114 12.0199C51.8385 12.0885 51.706 12.1844 51.6136 12.3075C51.5237 12.4306 51.4787 12.5703 51.4787 12.7266C51.474 12.8568 51.5012 12.9704 51.5604 13.0675C51.6219 13.1645 51.706 13.2486 51.8125 13.3196C51.919 13.3883 52.0421 13.4486 52.1818 13.5007C52.3215 13.5504 52.4706 13.593 52.6293 13.6286L53.2827 13.7848C53.5999 13.8558 53.8911 13.9505 54.1562 14.0689C54.4214 14.1873 54.651 14.3329 54.8452 14.5057C55.0393 14.6785 55.1896 14.8821 55.2962 15.1165C55.4051 15.3509 55.4607 15.6196 55.4631 15.9226C55.4607 16.3677 55.3471 16.7536 55.1222 17.0803C54.8996 17.4046 54.5777 17.6567 54.1562 17.8366C53.7372 18.0142 53.2318 18.103 52.6399 18.103C52.0528 18.103 51.5414 18.013 51.1058 17.8331C50.6726 17.6532 50.334 17.3868 50.0902 17.0341C49.8487 16.679 49.7221 16.2398 49.7102 15.7166H51.1982C51.2147 15.9605 51.2846 16.1641 51.4077 16.3274C51.5331 16.4884 51.7 16.6103 51.9084 16.6932C52.1191 16.7737 52.357 16.8139 52.6222 16.8139C52.8826 16.8139 53.1087 16.776 53.3004 16.7003C53.4946 16.6245 53.6449 16.5192 53.7514 16.3842C53.858 16.2493 53.9112 16.0942 53.9112 15.919C53.9112 15.7557 53.8627 15.6184 53.7656 15.5071C53.6709 15.3958 53.5313 15.3011 53.3466 15.223C53.1643 15.1449 52.9406 15.0739 52.6754 15.0099L51.8835 14.8111C51.2704 14.6619 50.7862 14.4287 50.4311 14.1115C50.076 13.7943 49.8996 13.367 49.902 12.8295C49.8996 12.3892 50.0168 12.0045 50.2536 11.6754C50.4927 11.3464 50.8205 11.0895 51.2372 10.9048C51.6539 10.7202 52.1274 10.6278 52.6577 10.6278C53.1974 10.6278 53.6686 10.7202 54.071 10.9048C54.4759 11.0895 54.7907 11.3464 55.0156 11.6754C55.2405 12.0045 55.3565 12.3857 55.3636 12.8189H53.8899ZM56.2203 11.995V10.7273H62.1934V11.995H59.9668V18H58.4469V11.995H56.2203Z" fill="white"/>
<path d="M27.8899 13.8022L27.2183 13.3863C27.2127 13.321 27.2064 13.2557 27.1995 13.1905L27.7765 12.6524C27.805 12.6254 27.8262 12.5916 27.838 12.5541C27.8499 12.5167 27.8521 12.4769 27.8444 12.4384C27.8367 12.3999 27.8194 12.364 27.7941 12.334C27.7688 12.304 27.7363 12.2809 27.6996 12.2669L26.9619 11.9908C26.9436 11.927 26.9243 11.8635 26.9038 11.8004L27.3641 11.161C27.3872 11.1291 27.4017 11.0918 27.4063 11.0526C27.4109 11.0135 27.4054 10.9738 27.3903 10.9374C27.3752 10.901 27.351 10.8691 27.3201 10.8446C27.2892 10.8202 27.2526 10.8041 27.2137 10.7978L26.4361 10.6715C26.4058 10.6127 26.3745 10.5545 26.3423 10.4967L26.669 9.77903C26.6854 9.74325 26.6924 9.70382 26.6892 9.66456C26.686 9.6253 26.6728 9.58753 26.6507 9.55489C26.6287 9.52219 26.5988 9.4956 26.5638 9.47764C26.5287 9.45967 26.4897 9.45092 26.4503 9.45219L25.6606 9.47993C25.6201 9.42861 25.5785 9.37818 25.5358 9.32868L25.7173 8.55976C25.7263 8.52141 25.7253 8.48141 25.7145 8.44354C25.7037 8.40567 25.6835 8.37118 25.6556 8.34333C25.6278 8.31547 25.5933 8.29518 25.5555 8.28437C25.5176 8.27356 25.4776 8.27258 25.4393 8.28153L24.6705 8.46319C24.6203 8.42103 24.5697 8.37939 24.5186 8.33828L24.5463 7.54836C24.5482 7.50883 24.5398 7.46949 24.522 7.43416C24.5042 7.39882 24.4776 7.36868 24.4447 7.34667C24.4118 7.32466 24.3738 7.31153 24.3344 7.30854C24.295 7.30555 24.2554 7.31281 24.2196 7.32962L23.5023 7.65706C23.4441 7.62531 23.3861 7.59357 23.3274 7.56323L23.2005 6.78477C23.1939 6.74605 23.1776 6.70963 23.1531 6.67893C23.1286 6.64823 23.0968 6.62423 23.0605 6.6092C23.0242 6.59416 22.9847 6.58857 22.9457 6.59296C22.9067 6.59734 22.8694 6.61155 22.8374 6.63425L22.1976 7.09474C22.1345 7.07451 22.071 7.05539 22.0072 7.03739L21.7312 6.29941C21.7172 6.26272 21.6941 6.23019 21.6642 6.20485C21.6342 6.17951 21.5983 6.16219 21.5598 6.1545C21.5213 6.14681 21.4815 6.14901 21.444 6.1609C21.4066 6.17278 21.3728 6.19396 21.3458 6.22245L20.8079 6.80037C20.7427 6.79302 20.6775 6.78671 20.6121 6.78143L20.1964 6.10961C20.1757 6.0761 20.1468 6.04844 20.1125 6.02926C20.0781 6.01007 20.0394 6 20 6C19.9606 6 19.9219 6.01007 19.8875 6.02926C19.8532 6.04844 19.8243 6.0761 19.8036 6.10961L19.3879 6.78137C19.3225 6.78698 19.2573 6.79329 19.1921 6.80031L18.6535 6.22238C18.6267 6.19354 18.5929 6.17205 18.5554 6.15995C18.5179 6.14785 18.478 6.14555 18.4394 6.15326C18.4007 6.16098 18.3647 6.17845 18.3348 6.20402C18.3048 6.22959 18.2819 6.2624 18.2682 6.29934L17.9921 7.03725C17.928 7.05552 17.8652 7.07506 17.8018 7.0946L17.1626 6.63425C17.1306 6.61154 17.0933 6.59734 17.0543 6.59296C17.0152 6.58858 16.9758 6.59418 16.9395 6.60922C16.9032 6.62426 16.8713 6.64826 16.8468 6.67897C16.8224 6.70969 16.8061 6.74611 16.7995 6.78484L16.6726 7.56323C16.6138 7.59358 16.5556 7.62486 16.4978 7.65706L15.7803 7.32962C15.7445 7.31321 15.705 7.30626 15.6658 7.30943C15.6265 7.31259 15.5887 7.32577 15.5559 7.3477C15.5232 7.36963 15.4966 7.39958 15.4787 7.43471C15.4608 7.46983 15.4522 7.50896 15.4537 7.54836L15.4814 8.33828C15.43 8.37898 15.3794 8.42062 15.3295 8.46319L14.5608 8.28147C14.5224 8.2725 14.4825 8.27347 14.4446 8.28428C14.4067 8.29508 14.3723 8.31536 14.3444 8.34321C14.3166 8.37105 14.2963 8.40554 14.2855 8.44341C14.2747 8.48128 14.2737 8.52128 14.2827 8.55962L14.4636 9.32861C14.4217 9.37863 14.3799 9.42925 14.3394 9.47986L13.5497 9.45219C13.5103 9.45069 13.4712 9.4593 13.4361 9.4772C13.401 9.49511 13.371 9.52171 13.3491 9.55447C13.3272 9.58723 13.314 9.62506 13.3108 9.66436C13.3077 9.70366 13.3146 9.74311 13.331 9.77896L13.6584 10.4966C13.6261 10.5544 13.5949 10.6127 13.5646 10.6715L12.7871 10.7978C12.7484 10.8044 12.712 10.8207 12.6813 10.8452C12.6506 10.8696 12.6266 10.9015 12.6116 10.9378C12.5965 10.9741 12.5909 11.0136 12.5953 11.0526C12.5997 11.0916 12.6139 11.1289 12.6365 11.161L13.0968 11.8003C13.0768 11.8635 13.0574 11.927 13.0388 11.9907L12.3011 12.2668C12.2645 12.2808 12.2319 12.3039 12.2066 12.3339C12.1813 12.3639 12.1639 12.3998 12.1562 12.4383C12.1485 12.4768 12.1507 12.5166 12.1626 12.5541C12.1745 12.5915 12.1957 12.6253 12.2241 12.6523L12.8012 13.1905C12.7939 13.2556 12.7876 13.3209 12.7823 13.3862L12.1108 13.8021C12.077 13.8225 12.049 13.8514 12.0296 13.8858C12.0102 13.9202 12 13.959 12 13.9986C12 14.0381 12.0102 14.0769 12.0296 14.1114C12.049 14.1458 12.077 14.1746 12.1108 14.195L12.7823 14.6109C12.7877 14.6764 12.7945 14.7419 12.8012 14.8067L12.2241 15.3455C12.1953 15.3723 12.1738 15.4061 12.1617 15.4436C12.1496 15.4811 12.1473 15.5211 12.1551 15.5597C12.1628 15.5984 12.1803 15.6344 12.2058 15.6643C12.2314 15.6943 12.2642 15.7172 12.3011 15.7309L13.0388 16.0071C13.057 16.0713 13.0766 16.1347 13.0968 16.1975L12.6365 16.8368C12.6132 16.8688 12.5986 16.9062 12.5939 16.9454C12.5893 16.9847 12.5948 17.0245 12.61 17.061C12.6252 17.0975 12.6495 17.1295 12.6807 17.1538C12.7118 17.1782 12.7487 17.1941 12.7877 17.2001L13.5652 17.3263C13.5956 17.385 13.6267 17.4431 13.6591 17.5012L13.3318 18.2189C13.3154 18.2548 13.3084 18.2942 13.3116 18.3335C13.3147 18.3728 13.3279 18.4106 13.3498 18.4434C13.3718 18.4762 13.4017 18.5028 13.4368 18.5207C13.4719 18.5386 13.511 18.5472 13.5504 18.5457L14.3394 18.518C14.3806 18.5693 14.4217 18.6199 14.4642 18.6699L14.2834 19.4395C14.2744 19.4778 14.2753 19.5178 14.2861 19.5557C14.2969 19.5936 14.3172 19.628 14.345 19.6558C14.3729 19.6836 14.4074 19.7039 14.4453 19.7146C14.4832 19.7253 14.5231 19.7261 14.5614 19.717L15.3301 19.5361C15.3801 19.5786 15.4308 19.6198 15.4821 19.6603L15.4544 20.4502C15.4526 20.4897 15.4611 20.529 15.4789 20.5642C15.4968 20.5995 15.5234 20.6295 15.5563 20.6514C15.5891 20.6734 15.6271 20.6864 15.6664 20.6894C15.7058 20.6923 15.7453 20.6851 15.7811 20.6683L16.4985 20.3415C16.5565 20.3739 16.6145 20.405 16.6733 20.4354L16.8001 21.2131C16.8066 21.2519 16.8229 21.2884 16.8473 21.3192C16.8718 21.35 16.9036 21.3741 16.9399 21.3892C16.9762 21.4043 17.0157 21.4099 17.0548 21.4056C17.0939 21.4013 17.1312 21.3871 17.1633 21.3643L17.8024 20.9039C17.8656 20.9243 17.929 20.9436 17.9928 20.9619L18.2688 21.6999C18.2823 21.737 18.3052 21.77 18.3351 21.7957C18.3651 21.8214 18.4012 21.8389 18.4399 21.8467C18.4786 21.8544 18.5186 21.852 18.5561 21.8398C18.5937 21.8276 18.6274 21.8059 18.6542 21.7769L19.1928 21.1996C19.2576 21.207 19.3231 21.2132 19.3885 21.2192L19.8043 21.891C19.8251 21.9243 19.854 21.9518 19.8884 21.9709C19.9227 21.99 19.9614 22 20.0007 22C20.04 22 20.0786 21.99 20.113 21.9709C20.1473 21.9518 20.1763 21.9243 20.1971 21.891L20.6128 21.2192C20.6783 21.2132 20.7437 21.207 20.8085 21.1996L21.3465 21.7769C21.3735 21.8054 21.4073 21.8265 21.4447 21.8384C21.4821 21.8503 21.5219 21.8525 21.5604 21.8448C21.5989 21.8371 21.6348 21.8198 21.6648 21.7944C21.6947 21.7691 21.7178 21.7366 21.7318 21.6999L22.0079 20.9619C22.0717 20.9437 22.1351 20.9244 22.1982 20.9039L22.8374 21.3643C22.8693 21.3876 22.9067 21.4023 22.946 21.407C22.9852 21.4116 23.025 21.4061 23.0615 21.3909C23.098 21.3757 23.1299 21.3514 23.1543 21.3202C23.1786 21.2891 23.1946 21.2522 23.2005 21.2131L23.3274 20.4354C23.3861 20.405 23.4441 20.3733 23.5022 20.3415L24.2197 20.6683C24.2555 20.6845 24.2948 20.6913 24.334 20.6881C24.3731 20.6849 24.4108 20.6717 24.4435 20.6499C24.4761 20.6281 24.5027 20.5983 24.5207 20.5634C24.5387 20.5285 24.5475 20.4895 24.5463 20.4502L24.5187 19.6603C24.57 19.62 24.6203 19.5786 24.6698 19.5361L25.4386 19.717C25.4768 19.7259 25.5167 19.7249 25.5545 19.7142C25.5923 19.7034 25.6267 19.6832 25.6545 19.6554C25.6823 19.6277 25.7026 19.5933 25.7135 19.5555C25.7244 19.5178 25.7254 19.4779 25.7166 19.4396L25.5358 18.6699C25.5776 18.6199 25.6194 18.5693 25.66 18.5179L26.4496 18.5456C26.4892 18.5475 26.5285 18.5391 26.5638 18.5213C26.5991 18.5035 26.6293 18.4769 26.6513 18.444C26.6733 18.4111 26.6864 18.3731 26.6894 18.3337C26.6924 18.2942 26.6851 18.2547 26.6683 18.2188L26.3416 17.5013C26.3733 17.4431 26.405 17.3851 26.4354 17.3263L27.2129 17.2001C27.2516 17.1935 27.288 17.1772 27.3187 17.1527C27.3495 17.1282 27.3734 17.0963 27.3885 17.0601C27.4035 17.0238 27.4091 16.9843 27.4047 16.9452C27.4004 16.9062 27.3862 16.8689 27.3635 16.8368L26.9032 16.1975L26.9612 16.0071L27.6989 15.731C27.7359 15.7173 27.7687 15.6944 27.7943 15.6644C27.8198 15.6344 27.8373 15.5984 27.845 15.5597C27.8527 15.5211 27.8504 15.4811 27.8383 15.4436C27.8262 15.4061 27.8047 15.3723 27.7759 15.3455L27.1988 14.8067C27.2055 14.7419 27.2123 14.6764 27.2177 14.6109L27.8892 14.195C27.923 14.1746 27.951 14.1458 27.9704 14.1114C27.9898 14.0769 28 14.0381 28 13.9986C28 13.959 27.9898 13.9202 27.9704 13.8858C27.951 13.8514 27.923 13.8225 27.8892 13.8021L27.8899 13.8022ZM23.3956 19.3741C23.2728 19.3471 23.1656 19.2726 23.0976 19.1668C23.0295 19.061 23.0061 18.9326 23.0324 18.8096C23.0587 18.6866 23.1326 18.579 23.2379 18.5103C23.3433 18.4416 23.4715 18.4175 23.5947 18.4431C23.6566 18.4554 23.7155 18.4798 23.768 18.5151C23.8204 18.5503 23.8653 18.5957 23.9 18.6484C23.9347 18.7012 23.9586 18.7604 23.9702 18.8225C23.9819 18.8846 23.9811 18.9484 23.9678 19.0102C23.9545 19.072 23.9291 19.1305 23.893 19.1823C23.8569 19.2342 23.8109 19.2783 23.7575 19.3122C23.7042 19.3461 23.6447 19.369 23.5824 19.3796C23.5201 19.3902 23.4564 19.3884 23.3949 19.3741H23.3956ZM23.1675 17.8308C23.1118 17.8188 23.0543 17.8179 22.9983 17.8282C22.9423 17.8385 22.8889 17.8597 22.8411 17.8907C22.7933 17.9217 22.7521 17.9618 22.7198 18.0087C22.6876 18.0556 22.6649 18.1085 22.6531 18.1642L22.4149 19.2769C21.6792 19.611 20.8625 19.7968 20.002 19.7968C19.1511 19.798 18.3102 19.6127 17.5386 19.2539L17.3003 18.1413C17.2885 18.0856 17.2658 18.0328 17.2336 17.9859C17.2013 17.9389 17.1601 17.8989 17.1123 17.868C17.0645 17.837 17.0111 17.8159 16.9551 17.8057C16.8991 17.7955 16.8416 17.7964 16.786 17.8085L15.804 18.0191C15.6215 17.8311 15.452 17.6311 15.2965 17.4202H20.0749C20.1289 17.4202 20.1653 17.4108 20.1653 17.3615V15.6703C20.1653 15.621 20.1296 15.6116 20.0749 15.6116H18.6772V14.5394H20.189C20.3267 14.5394 20.9267 14.5786 21.1184 15.3455C21.1784 15.5812 21.31 16.3488 21.4005 16.5946C21.4902 16.87 21.856 17.4202 22.2462 17.4202H24.6273C24.6563 17.4198 24.6852 17.4169 24.7137 17.4115C24.5486 17.6359 24.3677 17.8482 24.1724 18.0468L23.1675 17.8308ZM16.5579 19.3511C16.4963 19.3654 16.4326 19.3673 16.3703 19.3567C16.308 19.3461 16.2485 19.3231 16.1952 19.2893C16.1419 19.2554 16.0958 19.2112 16.0597 19.1594C16.0236 19.1075 15.9982 19.049 15.9849 18.9872C15.9717 18.9255 15.9708 18.8617 15.9825 18.7996C15.9941 18.7374 16.018 18.6783 16.0527 18.6255C16.0875 18.5727 16.1323 18.5274 16.1848 18.4921C16.2372 18.4569 16.2961 18.4324 16.3581 18.4202C16.4806 18.3959 16.6077 18.4209 16.7121 18.4896C16.8164 18.5582 16.8895 18.6652 16.9157 18.7873C16.942 18.9095 16.9191 19.0371 16.8522 19.1425C16.7852 19.248 16.6795 19.3229 16.5579 19.3511ZM14.745 11.9975C14.7725 12.0549 14.7882 12.1173 14.7912 12.1808C14.7942 12.2444 14.7844 12.308 14.7624 12.3677C14.7404 12.4274 14.7066 12.4822 14.6631 12.5286C14.6196 12.5751 14.5672 12.6123 14.5091 12.6381C14.4509 12.664 14.3881 12.6779 14.3245 12.679C14.2609 12.6802 14.1977 12.6685 14.1386 12.6448C14.0796 12.6211 14.0259 12.5858 13.9807 12.5409C13.9355 12.4961 13.8998 12.4426 13.8757 12.3837C13.8289 12.2691 13.8285 12.1408 13.8747 12.026C13.9209 11.9112 14.01 11.8188 14.123 11.7686C14.2361 11.7184 14.3643 11.7142 14.4805 11.7569C14.5966 11.7997 14.6915 11.8859 14.745 11.9975ZM14.1882 13.3188L15.2114 12.8637C15.2634 12.8406 15.3104 12.8075 15.3496 12.7662C15.3889 12.7249 15.4196 12.6762 15.44 12.6231C15.4604 12.5699 15.4702 12.5132 15.4687 12.4563C15.4672 12.3993 15.4546 12.3432 15.4314 12.2912L15.2209 11.8146H16.0497V15.5508H14.3778C14.1717 14.8257 14.1075 14.0675 14.1889 13.3181L14.1882 13.3188ZM18.6778 12.9562V11.8551H20.6513C20.7533 11.8551 21.3708 11.9732 21.3708 12.435C21.3708 12.8185 20.8969 12.9562 20.5075 12.9562H18.6778ZM25.8496 13.9473C25.8496 14.0932 25.8442 14.2383 25.8334 14.3815H25.2334C25.1734 14.3815 25.149 14.4206 25.149 14.48V14.7554C25.149 15.4043 24.7832 15.5454 24.4626 15.5812C24.1575 15.6156 23.8194 15.4536 23.7776 15.2666C23.5973 14.2539 23.2977 14.0371 22.8239 13.6638C23.4117 13.2904 24.0233 12.7395 24.0233 12.0022C24.0233 11.2062 23.4773 10.7046 23.1053 10.4582C22.5836 10.1139 22.0059 10.0451 21.85 10.0451H15.6454C16.5029 9.08592 17.6528 8.43661 18.9168 8.19784L19.6484 8.96543C19.6876 9.00668 19.7345 9.03978 19.7866 9.06283C19.8386 9.08588 19.8946 9.09843 19.9515 9.09975C20.0084 9.10107 20.065 9.09113 20.118 9.07052C20.171 9.04991 20.2195 9.01902 20.2605 8.97963L21.0786 8.1965C21.9126 8.35298 22.7027 8.6891 23.3939 9.18153C24.0851 9.67397 24.661 10.3109 25.0816 11.0483L24.5213 12.3141C24.4749 12.4193 24.472 12.5385 24.5132 12.6458C24.5545 12.7531 24.6365 12.8397 24.7413 12.8867L25.8199 13.366C25.8388 13.5578 25.8482 13.7508 25.8482 13.9473H25.8496ZM19.6491 7.54569C19.7403 7.45867 19.8623 7.41145 19.9883 7.41443C20.0507 7.4159 20.1122 7.42965 20.1692 7.4549C20.2263 7.48014 20.2779 7.51639 20.3209 7.56156C20.364 7.60673 20.3978 7.65995 20.4203 7.71817C20.4428 7.77639 20.4536 7.83848 20.4522 7.90089C20.4507 7.9633 20.4369 8.02481 20.4117 8.0819C20.3865 8.139 20.3502 8.19056 20.3051 8.23365C20.2126 8.31347 20.0931 8.35468 19.9711 8.34877C19.8492 8.34286 19.7341 8.29027 19.6499 8.20188C19.5656 8.1135 19.5185 7.99609 19.5183 7.87394C19.5182 7.7518 19.565 7.63427 19.6491 7.54569ZM25.2084 12.0205C25.2336 11.9634 25.2698 11.9119 25.3149 11.8688C25.36 11.8257 25.4132 11.792 25.4714 11.7695C25.5296 11.7471 25.5917 11.7363 25.654 11.7379C25.7164 11.7395 25.7778 11.7534 25.8348 11.7788C25.9209 11.8168 25.9938 11.8795 26.0443 11.959C26.0948 12.0385 26.1206 12.1312 26.1184 12.2253C26.1162 12.3195 26.0861 12.4109 26.0319 12.4879C25.9778 12.565 25.902 12.6242 25.8142 12.6582C25.7264 12.6921 25.6305 12.6992 25.5386 12.6786C25.4467 12.658 25.363 12.6106 25.2981 12.5425C25.2332 12.4743 25.1899 12.3883 25.1739 12.2955C25.1578 12.2027 25.1696 12.1073 25.2078 12.0212L25.2084 12.0205Z" fill="white"/>
</g>
<defs>
<clipPath id="clip0_220_279">
<rect width="78" height="28" fill="white"/>
</clipPath>
</defs>
</svg>
