<svg width="78" height="28" viewBox="0 0 78 28" fill="none" xmlns="http://www.w3.org/2000/svg">
<g clip-path="url(#clip0_220_209)">
<path d="M64 0H14C6.26801 0 0 6.26801 0 14C0 21.732 6.26801 28 14 28H64C71.732 28 78 21.732 78 14C78 6.26801 71.732 0 64 0Z" fill="#FF69B4"/>
<path d="M40.2239 12.3189C40.1955 12.0324 40.0736 11.8099 39.8581 11.6513C39.6427 11.4927 39.3503 11.4134 38.981 11.4134C38.7301 11.4134 38.5182 11.4489 38.3453 11.5199C38.1725 11.5885 38.04 11.6844 37.9476 11.8075C37.8577 11.9306 37.8127 12.0703 37.8127 12.2266C37.8079 12.3568 37.8352 12.4704 37.8944 12.5675C37.9559 12.6645 38.04 12.7486 38.1465 12.8196C38.253 12.8883 38.3761 12.9486 38.5158 13.0007C38.6555 13.0504 38.8046 13.093 38.9632 13.1286L39.6167 13.2848C39.9339 13.3558 40.2251 13.4505 40.4902 13.5689C40.7554 13.6873 40.985 13.8329 41.1792 14.0057C41.3733 14.1785 41.5236 14.3821 41.6301 14.6165C41.7391 14.8509 41.7947 15.1196 41.7971 15.4226C41.7947 15.8677 41.681 16.2536 41.4561 16.5803C41.2336 16.9046 40.9116 17.1567 40.4902 17.3366C40.0712 17.5142 39.5658 17.603 38.9739 17.603C38.3868 17.603 37.8754 17.513 37.4398 17.3331C37.0066 17.1532 36.668 16.8868 36.4242 16.5341C36.1827 16.179 36.056 15.7398 36.0442 15.2166H37.5321C37.5487 15.4605 37.6185 15.6641 37.7417 15.8274C37.8671 15.9884 38.034 16.1103 38.2424 16.1932C38.4531 16.2737 38.691 16.3139 38.9561 16.3139C39.2166 16.3139 39.4426 16.276 39.6344 16.2003C39.8285 16.1245 39.9789 16.0192 40.0854 15.8842C40.1919 15.7493 40.2452 15.5942 40.2452 15.419C40.2452 15.2557 40.1967 15.1184 40.0996 15.0071C40.0049 14.8958 39.8652 14.8011 39.6806 14.723C39.4983 14.6449 39.2746 14.5739 39.0094 14.5099L38.2175 14.3111C37.6043 14.1619 37.1202 13.9287 36.7651 13.6115C36.41 13.2943 36.2336 12.867 36.236 12.3295C36.2336 11.8892 36.3508 11.5045 36.5875 11.1754C36.8266 10.8464 37.1545 10.5895 37.5712 10.4048C37.9879 10.2202 38.4614 10.1278 38.9917 10.1278C39.5314 10.1278 40.0025 10.2202 40.405 10.4048C40.8098 10.5895 41.1247 10.8464 41.3496 11.1754C41.5745 11.5045 41.6905 11.8857 41.6976 12.3189H40.2239ZM43.9189 17.5H42.2711L44.7818 10.2273H46.7633L49.2704 17.5H47.6227L45.801 11.8892H45.7441L43.9189 17.5ZM43.8159 14.6413H47.7079V15.8416H43.8159V14.6413ZM53.9251 12.3189C53.8967 12.0324 53.7747 11.8099 53.5593 11.6513C53.3439 11.4927 53.0515 11.4134 52.6822 11.4134C52.4312 11.4134 52.2193 11.4489 52.0465 11.5199C51.8737 11.5885 51.7411 11.6844 51.6488 11.8075C51.5588 11.9306 51.5138 12.0703 51.5138 12.2266C51.5091 12.3568 51.5363 12.4704 51.5955 12.5675C51.6571 12.6645 51.7411 12.7486 51.8477 12.8196C51.9542 12.8883 52.0773 12.9486 52.217 13.0007C52.3567 13.0504 52.5058 13.093 52.6644 13.1286L53.3178 13.2848C53.6351 13.3558 53.9263 13.4505 54.1914 13.5689C54.4566 13.6873 54.6862 13.8329 54.8803 14.0057C55.0745 14.1785 55.2248 14.3821 55.3313 14.6165C55.4402 14.8509 55.4959 15.1196 55.4982 15.4226C55.4959 15.8677 55.3822 16.2536 55.1573 16.5803C54.9348 16.9046 54.6128 17.1567 54.1914 17.3366C53.7724 17.5142 53.2669 17.603 52.6751 17.603C52.0879 17.603 51.5766 17.513 51.141 17.3331C50.7077 17.1532 50.3692 16.8868 50.1254 16.5341C49.8839 16.179 49.7572 15.7398 49.7454 15.2166H51.2333C51.2499 15.4605 51.3197 15.6641 51.4428 15.8274C51.5683 15.9884 51.7352 16.1103 51.9435 16.1932C52.1542 16.2737 52.3922 16.3139 52.6573 16.3139C52.9177 16.3139 53.1438 16.276 53.3356 16.2003C53.5297 16.1245 53.68 16.0192 53.7866 15.8842C53.8931 15.7493 53.9464 15.5942 53.9464 15.419C53.9464 15.2557 53.8978 15.1184 53.8008 15.0071C53.7061 14.8958 53.5664 14.8011 53.3817 14.723C53.1995 14.6449 52.9757 14.5739 52.7106 14.5099L51.9187 14.3111C51.3055 14.1619 50.8214 13.9287 50.4663 13.6115C50.1112 13.2943 49.9348 12.867 49.9371 12.3295C49.9348 11.8892 50.052 11.5045 50.2887 11.1754C50.5278 10.8464 50.8557 10.5895 51.2724 10.4048C51.689 10.2202 52.1625 10.1278 52.6928 10.1278C53.2326 10.1278 53.7037 10.2202 54.1062 10.4048C54.511 10.5895 54.8259 10.8464 55.0508 11.1754C55.2757 11.5045 55.3917 11.8857 55.3988 12.3189H53.9251ZM60.4778 12.3189C60.4494 12.0324 60.3275 11.8099 60.112 11.6513C59.8966 11.4927 59.6042 11.4134 59.2349 11.4134C58.984 11.4134 58.7721 11.4489 58.5993 11.5199C58.4264 11.5885 58.2939 11.6844 58.2015 11.8075C58.1116 11.9306 58.0666 12.0703 58.0666 12.2266C58.0618 12.3568 58.0891 12.4704 58.1483 12.5675C58.2098 12.6645 58.2939 12.7486 58.4004 12.8196C58.5069 12.8883 58.63 12.9486 58.7697 13.0007C58.9094 13.0504 59.0585 13.093 59.2172 13.1286L59.8706 13.2848C60.1878 13.3558 60.479 13.4505 60.7441 13.5689C61.0093 13.6873 61.2389 13.8329 61.4331 14.0057C61.6272 14.1785 61.7775 14.3821 61.8841 14.6165C61.993 14.8509 62.0486 15.1196 62.051 15.4226C62.0486 15.8677 61.935 16.2536 61.71 16.5803C61.4875 16.9046 61.1655 17.1567 60.7441 17.3366C60.3251 17.5142 59.8197 17.603 59.2278 17.603C58.6407 17.603 58.1293 17.513 57.6937 17.3331C57.2605 17.1532 56.9219 16.8868 56.6781 16.5341C56.4366 16.179 56.31 15.7398 56.2981 15.2166H57.786C57.8026 15.4605 57.8725 15.6641 57.9956 15.8274C58.121 15.9884 58.2879 16.1103 58.4963 16.1932C58.707 16.2737 58.9449 16.3139 59.21 16.3139C59.4705 16.3139 59.6966 16.276 59.8883 16.2003C60.0824 16.1245 60.2328 16.0192 60.3393 15.8842C60.4458 15.7493 60.4991 15.5942 60.4991 15.419C60.4991 15.2557 60.4506 15.1184 60.3535 15.0071C60.2588 14.8958 60.1191 14.8011 59.9345 14.723C59.7522 14.6449 59.5285 14.5739 59.2633 14.5099L58.4714 14.3111C57.8583 14.1619 57.3741 13.9287 57.019 13.6115C56.6639 13.2943 56.4875 12.867 56.4899 12.3295C56.4875 11.8892 56.6047 11.5045 56.8414 11.1754C57.0806 10.8464 57.4084 10.5895 57.8251 10.4048C58.2418 10.2202 58.7153 10.1278 59.2456 10.1278C59.7853 10.1278 60.2565 10.2202 60.6589 10.4048C61.0637 10.5895 61.3786 10.8464 61.6035 11.1754C61.8284 11.5045 61.9444 11.8857 61.9515 12.3189H60.4778Z" fill="white"/>
<path d="M21 6C25.418 6 29 9.582 29 14C29 18.418 25.418 22 21 22C16.582 22 13 18.418 13 14C13 9.582 16.582 6 21 6ZM19.41 16.6653C19.5267 17.0953 19.514 17.4973 19.394 17.86L19.3507 17.98C19.3347 18.0207 19.316 18.06 19.2987 18.0973C19.2053 18.2907 19.0813 18.4707 18.9287 18.6373C18.4633 19.1433 17.814 19.3353 17.5353 19.174C17.2353 18.9993 17.3847 18.284 17.9247 17.714C18.5053 17.102 19.338 16.708 19.338 16.708V16.706L19.41 16.6653ZM26.0173 9.42467C25.656 8.00267 23.2993 7.53533 21.0693 8.328C19.7433 8.79933 18.3067 9.54 17.274 10.506C16.0453 11.6533 15.85 12.6533 15.9307 13.0713C16.2153 14.5453 18.2353 15.5093 19.066 16.2247V16.2287C18.8213 16.3487 17.0287 17.248 16.6087 18.1787C16.1587 19.1587 16.6787 19.8593 17.0187 19.9487C18.0687 20.2393 19.1487 19.7087 19.7287 18.8493C20.2887 18.0087 20.2393 16.9287 19.998 16.3987C20.3287 16.3087 20.718 16.2687 21.218 16.3293C22.6187 16.4893 22.8987 17.3693 22.838 17.7293C22.778 18.0887 22.4893 18.2987 22.3887 18.3587C22.2887 18.4193 22.2587 18.4387 22.268 18.4793C22.278 18.5393 22.3287 18.5393 22.408 18.5293C22.518 18.5093 23.1387 18.2293 23.1687 17.5487C23.1987 16.6887 22.378 15.7293 20.9187 15.7487C20.3187 15.7593 19.938 15.8093 19.6687 15.9193C19.6487 15.8893 19.628 15.8693 19.5987 15.8493C18.6987 14.8793 17.0287 14.1993 17.0987 12.9093C17.1187 12.4393 17.2887 11.2 20.2987 9.7C22.7687 8.46933 24.7393 8.81 25.0793 9.56C25.568 10.6293 24.0287 12.62 21.4587 12.9093C20.4787 13.0193 19.9687 12.64 19.838 12.4993C19.6987 12.3493 19.6787 12.3393 19.6287 12.37C19.5487 12.41 19.5987 12.54 19.6287 12.62C19.7087 12.82 20.0187 13.17 20.5593 13.35C21.0287 13.5 22.1793 13.5893 23.5593 13.05C25.1087 12.4507 26.3187 10.78 25.9687 9.38L26.0173 9.42467Z" fill="white"/>
</g>
<defs>
<clipPath id="clip0_220_209">
<rect width="78" height="28" fill="white"/>
</clipPath>
</defs>
</svg>
