<svg width="117" height="28" viewBox="0 0 117 28" fill="none" xmlns="http://www.w3.org/2000/svg">
<g clip-path="url(#clip0_220_204)">
<path d="M102.25 0H14C6.26801 0 0 6.26801 0 14C0 21.732 6.26801 28 14 28H102.25C109.982 28 116.25 21.732 116.25 14C116.25 6.26801 109.982 0 102.25 0Z" fill="black"/>
<path d="M47.6507 12.8189C47.6222 12.5324 47.5003 12.3099 47.2849 12.1513C47.0695 11.9927 46.7771 11.9134 46.4078 11.9134C46.1568 11.9134 45.9449 11.9489 45.7721 12.0199C45.5993 12.0885 45.4667 12.1844 45.3744 12.3075C45.2844 12.4306 45.2394 12.5703 45.2394 12.7266C45.2347 12.8568 45.2619 12.9704 45.3211 13.0675C45.3827 13.1645 45.4667 13.2486 45.5732 13.3196C45.6798 13.3883 45.8029 13.4486 45.9426 13.5007C46.0822 13.5504 46.2314 13.593 46.39 13.6286L47.0434 13.7848C47.3606 13.8558 47.6518 13.9505 47.917 14.0689C48.1821 14.1873 48.4118 14.3329 48.6059 14.5057C48.8 14.6785 48.9504 14.8821 49.0569 15.1165C49.1658 15.3509 49.2214 15.6196 49.2238 15.9226C49.2214 16.3677 49.1078 16.7536 48.8829 17.0803C48.6604 17.4046 48.3384 17.6567 47.917 17.8366C47.498 18.0142 46.9925 18.103 46.4007 18.103C45.8135 18.103 45.3022 18.013 44.8666 17.8331C44.4333 17.6532 44.0948 17.3868 43.8509 17.0341C43.6095 16.679 43.4828 16.2398 43.471 15.7166H44.9589C44.9755 15.9605 45.0453 16.1641 45.1684 16.3274C45.2939 16.4884 45.4608 16.6103 45.6691 16.6932C45.8798 16.7737 46.1177 16.8139 46.3829 16.8139C46.6433 16.8139 46.8694 16.776 47.0612 16.7003C47.2553 16.6245 47.4056 16.5192 47.5122 16.3842C47.6187 16.2493 47.672 16.0942 47.672 15.919C47.672 15.7557 47.6234 15.6184 47.5264 15.5071C47.4317 15.3958 47.292 15.3011 47.1073 15.223C46.925 15.1449 46.7013 15.0739 46.4362 15.0099L45.6443 14.8111C45.0311 14.6619 44.547 14.4287 44.1919 14.1115C43.8367 13.7943 43.6604 13.367 43.6627 12.8295C43.6604 12.3892 43.7776 12.0045 44.0143 11.6754C44.2534 11.3464 44.5813 11.0895 44.998 10.9048C45.4146 10.7202 45.8881 10.6278 46.4184 10.6278C46.9582 10.6278 47.4293 10.7202 47.8318 10.9048C48.2366 11.0895 48.5515 11.3464 48.7764 11.6754C49.0013 12.0045 49.1173 12.3857 49.1244 12.8189H47.6507ZM56.9413 14.3636C56.9413 15.1567 56.791 15.8314 56.4903 16.3878C56.192 16.9441 55.7848 17.3691 55.2687 17.6626C54.755 17.9538 54.1773 18.0994 53.5358 18.0994C52.8895 18.0994 52.3095 17.9527 51.7957 17.6591C51.282 17.3655 50.876 16.9406 50.5777 16.3842C50.2794 15.8279 50.1302 15.1544 50.1302 14.3636C50.1302 13.5705 50.2794 12.8958 50.5777 12.3395C50.876 11.7831 51.282 11.3594 51.7957 11.0682C52.3095 10.7746 52.8895 10.6278 53.5358 10.6278C54.1773 10.6278 54.755 10.7746 55.2687 11.0682C55.7848 11.3594 56.192 11.7831 56.4903 12.3395C56.791 12.8958 56.9413 13.5705 56.9413 14.3636ZM55.3824 14.3636C55.3824 13.8499 55.3054 13.4167 55.1515 13.0639C55 12.7112 54.7858 12.4437 54.5088 12.2614C54.2318 12.0791 53.9075 11.9879 53.5358 11.9879C53.1641 11.9879 52.8398 12.0791 52.5628 12.2614C52.2858 12.4437 52.0703 12.7112 51.9165 13.0639C51.7649 13.4167 51.6892 13.8499 51.6892 14.3636C51.6892 14.8774 51.7649 15.3106 51.9165 15.6634C52.0703 16.0161 52.2858 16.2836 52.5628 16.4659C52.8398 16.6482 53.1641 16.7393 53.5358 16.7393C53.9075 16.7393 54.2318 16.6482 54.5088 16.4659C54.7858 16.2836 55 16.0161 55.1515 15.6634C55.3054 15.3106 55.3824 14.8774 55.3824 14.3636ZM64.4972 13.2734H62.9419C62.9134 13.0722 62.8554 12.8935 62.7678 12.7372C62.6803 12.5786 62.5678 12.4437 62.4305 12.3324C62.2932 12.2211 62.1346 12.1359 61.9546 12.0767C61.7771 12.0175 61.5841 11.9879 61.3758 11.9879C60.9994 11.9879 60.6715 12.0814 60.3921 12.2685C60.1128 12.4531 59.8962 12.723 59.7423 13.0781C59.5884 13.4309 59.5115 13.8594 59.5115 14.3636C59.5115 14.8821 59.5884 15.3177 59.7423 15.6705C59.8985 16.0232 60.1163 16.2895 60.3957 16.4695C60.675 16.6494 60.9982 16.7393 61.3651 16.7393C61.5711 16.7393 61.7617 16.7121 61.9369 16.6577C62.1144 16.6032 62.2719 16.5239 62.4092 16.4197C62.5465 16.3132 62.6601 16.1842 62.7501 16.0327C62.8424 15.8812 62.9063 15.7083 62.9419 15.5142L64.4972 15.5213C64.457 15.8551 64.3564 16.1771 64.1954 16.4872C64.0368 16.795 63.8225 17.0708 63.5526 17.3146C63.2851 17.5561 62.9655 17.7479 62.5938 17.8899C62.2245 18.0296 61.8067 18.0994 61.3403 18.0994C60.6916 18.0994 60.1116 17.9527 59.6002 17.6591C59.0912 17.3655 58.6888 16.9406 58.3928 16.3842C58.0993 15.8279 57.9525 15.1544 57.9525 14.3636C57.9525 13.5705 58.1017 12.8958 58.3999 12.3395C58.6982 11.7831 59.1031 11.3594 59.6144 11.0682C60.1258 10.7746 60.7011 10.6278 61.3403 10.6278C61.7617 10.6278 62.1523 10.687 62.5122 10.8054C62.8744 10.9238 63.1952 11.0966 63.4745 11.3239C63.7539 11.5488 63.9811 11.8246 64.1563 12.1513C64.3339 12.478 64.4475 12.852 64.4972 13.2734ZM65.5999 18V10.7273H67.1375V13.9339H67.2334L69.8506 10.7273H71.6936L68.9948 13.9837L71.7256 18H69.8861L67.8939 15.0099L67.1375 15.9332V18H65.5999ZM72.4944 18V10.7273H77.395V11.995H74.032V13.728H77.1428V14.9957H74.032V16.7322H77.4092V18H72.4944ZM78.3405 11.995V10.7273H84.3135V11.995H82.0869V18H80.567V11.995H78.3405ZM85.8112 18.0923C85.5768 18.0923 85.3756 18.0095 85.2075 17.8438C85.0418 17.6757 84.9589 17.4744 84.9589 17.2401C84.9589 17.008 85.0418 16.8092 85.2075 16.6435C85.3756 16.4777 85.5768 16.3949 85.8112 16.3949C86.0384 16.3949 86.2373 16.4777 86.4078 16.6435C86.5782 16.8092 86.6634 17.008 86.6634 17.2401C86.6634 17.3963 86.6232 17.5395 86.5427 17.6697C86.4646 17.7976 86.3616 17.9006 86.2338 17.9787C86.1059 18.0545 85.9651 18.0923 85.8112 18.0923ZM89.4715 10.7273V18H87.9339V10.7273H89.4715ZM97.4198 14.3636C97.4198 15.1567 97.2695 15.8314 96.9688 16.3878C96.6705 16.9441 96.2633 17.3691 95.7472 17.6626C95.2335 17.9538 94.6559 18.0994 94.0143 18.0994C93.368 18.0994 92.788 17.9527 92.2742 17.6591C91.7605 17.3655 91.3545 16.9406 91.0562 16.3842C90.7579 15.8279 90.6088 15.1544 90.6088 14.3636C90.6088 13.5705 90.7579 12.8958 91.0562 12.3395C91.3545 11.7831 91.7605 11.3594 92.2742 11.0682C92.788 10.7746 93.368 10.6278 94.0143 10.6278C94.6559 10.6278 95.2335 10.7746 95.7472 11.0682C96.2633 11.3594 96.6705 11.7831 96.9688 12.3395C97.2695 12.8958 97.4198 13.5705 97.4198 14.3636ZM95.8609 14.3636C95.8609 13.8499 95.7839 13.4167 95.6301 13.0639C95.4785 12.7112 95.2643 12.4437 94.9873 12.2614C94.7103 12.0791 94.386 11.9879 94.0143 11.9879C93.6426 11.9879 93.3183 12.0791 93.0413 12.2614C92.7643 12.4437 92.5489 12.7112 92.395 13.0639C92.2435 13.4167 92.1677 13.8499 92.1677 14.3636C92.1677 14.8774 92.2435 15.3106 92.395 15.6634C92.5489 16.0161 92.7643 16.2836 93.0413 16.4659C93.3183 16.6482 93.6426 16.7393 94.0143 16.7393C94.386 16.7393 94.7103 16.6482 94.9873 16.4659C95.2643 16.2836 95.4785 16.0161 95.6301 15.6634C95.7839 15.3106 95.8609 14.8774 95.8609 14.3636Z" fill="white"/>
<path d="M22.9574 6.00007C22.2885 6.00199 21.6224 6.08673 20.9743 6.25235C17.8544 7.02857 15.3785 9.85823 15.0612 13.0664C14.6679 16.1024 16.1998 19.2638 18.8237 20.8315C21.3975 22.4453 24.8854 22.3799 27.4059 20.6827C29.6705 19.2103 31.0804 16.5262 30.9964 13.8186C30.9578 11.1383 29.4564 8.5348 27.1572 7.15798C25.9026 6.3831 24.4287 5.99406 22.9574 6.00007ZM22.9155 7.13202C26.212 7.12734 29.4412 9.67736 29.7698 13.0884C30.3998 16.8658 27.2679 20.7054 23.4448 20.8168C19.8089 21.1799 16.2951 18.0939 16.1918 14.4385C15.9205 11.4793 17.8691 8.54214 20.6569 7.56444C21.3754 7.27788 22.142 7.13071 22.9155 7.13202ZM26.3093 9.28432C24.518 10.6758 22.8028 12.1594 21.0503 13.5937C21.8522 13.605 22.6581 13.6043 23.4641 13.6003C24.4041 12.1554 25.37 10.7299 26.3093 9.28432ZM22.5329 14.3925C21.5929 15.8381 20.6262 17.2683 19.6863 18.7132C21.4816 17.325 23.1894 15.8301 24.954 14.4045C24.147 14.3948 23.3399 14.3908 22.5329 14.3925Z" fill="#F5F5F5"/>
</g>
<defs>
<clipPath id="clip0_220_204">
<rect width="116.25" height="28" fill="white"/>
</clipPath>
</defs>
</svg>
