<svg width="93" height="28" viewBox="0 0 93 28" fill="none" xmlns="http://www.w3.org/2000/svg">
<g clip-path="url(#clip0_220_174)">
<path d="M78.5 0H14C6.26801 0 0 6.26801 0 14C0 21.732 6.26801 28 14 28H78.5C86.232 28 92.5 21.732 92.5 14C92.5 6.26801 86.232 0 78.5 0Z" fill="#07405E"/>
<path d="M44.7503 12.8189C44.7219 12.5324 44.5999 12.3099 44.3845 12.1513C44.1691 11.9927 43.8767 11.9134 43.5074 11.9134C43.2564 11.9134 43.0445 11.9489 42.8717 12.0199C42.6989 12.0885 42.5663 12.1844 42.474 12.3075C42.384 12.4306 42.339 12.5703 42.339 12.7266C42.3343 12.8568 42.3615 12.9704 42.4207 13.0675C42.4823 13.1645 42.5663 13.2486 42.6729 13.3196C42.7794 13.3883 42.9025 13.4486 43.0422 13.5007C43.1818 13.5504 43.331 13.593 43.4896 13.6286L44.143 13.7848C44.4603 13.8558 44.7515 13.9505 45.0166 14.0689C45.2818 14.1873 45.5114 14.3329 45.7055 14.5057C45.8997 14.6785 46.05 14.8821 46.1565 15.1165C46.2654 15.3509 46.3211 15.6196 46.3234 15.9226C46.3211 16.3677 46.2074 16.7536 45.9825 17.0803C45.76 17.4046 45.438 17.6567 45.0166 17.8366C44.5976 18.0142 44.0921 18.103 43.5003 18.103C42.9131 18.103 42.4018 18.013 41.9662 17.8331C41.5329 17.6532 41.1944 17.3868 40.9506 17.0341C40.7091 16.679 40.5824 16.2398 40.5706 15.7166H42.0585C42.0751 15.9605 42.1449 16.1641 42.268 16.3274C42.3935 16.4884 42.5604 16.6103 42.7687 16.6932C42.9794 16.7737 43.2174 16.8139 43.4825 16.8139C43.7429 16.8139 43.969 16.776 44.1608 16.7003C44.3549 16.6245 44.5052 16.5192 44.6118 16.3842C44.7183 16.2493 44.7716 16.0942 44.7716 15.919C44.7716 15.7557 44.723 15.6184 44.626 15.5071C44.5313 15.3958 44.3916 15.3011 44.2069 15.223C44.0247 15.1449 43.8009 15.0739 43.5358 15.0099L42.7439 14.8111C42.1307 14.6619 41.6466 14.4287 41.2915 14.1115C40.9363 13.7943 40.76 13.367 40.7623 12.8295C40.76 12.3892 40.8772 12.0045 41.1139 11.6754C41.353 11.3464 41.6809 11.0895 42.0976 10.9048C42.5142 10.7202 42.9877 10.6278 43.518 10.6278C44.0578 10.6278 44.5289 10.7202 44.9314 10.9048C45.3362 11.0895 45.6511 11.3464 45.876 11.6754C46.1009 12.0045 46.2169 12.3857 46.224 12.8189H44.7503ZM50.1027 15.4716H51.4095L52.0665 16.3168L52.7128 17.0696L53.9308 18.5966H52.4962L51.6581 17.5668L51.2284 16.956L50.1027 15.4716ZM54.0409 14.3636C54.0409 15.1567 53.8906 15.8314 53.5899 16.3878C53.2916 16.9441 52.8844 17.3691 52.3683 17.6626C51.8546 17.9538 51.277 18.0994 50.6354 18.0994C49.9891 18.0994 49.4091 17.9527 48.8953 17.6591C48.3816 17.3655 47.9756 16.9406 47.6773 16.3842C47.379 15.8279 47.2298 15.1544 47.2298 14.3636C47.2298 13.5705 47.379 12.8958 47.6773 12.3395C47.9756 11.7831 48.3816 11.3594 48.8953 11.0682C49.4091 10.7746 49.9891 10.6278 50.6354 10.6278C51.277 10.6278 51.8546 10.7746 52.3683 11.0682C52.8844 11.3594 53.2916 11.7831 53.5899 12.3395C53.8906 12.8958 54.0409 13.5705 54.0409 14.3636ZM52.482 14.3636C52.482 13.8499 52.405 13.4167 52.2512 13.0639C52.0996 12.7112 51.8854 12.4437 51.6084 12.2614C51.3314 12.0791 51.0071 11.9879 50.6354 11.9879C50.2637 11.9879 49.9394 12.0791 49.6624 12.2614C49.3854 12.4437 49.17 12.7112 49.0161 13.0639C48.8646 13.4167 48.7888 13.8499 48.7888 14.3636C48.7888 14.8774 48.8646 15.3106 49.0161 15.6634C49.17 16.0161 49.3854 16.2836 49.6624 16.4659C49.9394 16.6482 50.2637 16.7393 50.6354 16.7393C51.0071 16.7393 51.3314 16.6482 51.6084 16.4659C51.8854 16.2836 52.0996 16.0161 52.2512 15.6634C52.405 15.3106 52.482 14.8774 52.482 14.3636ZM55.18 18V10.7273H56.7176V16.7322H59.8355V18H55.18ZM62.3914 10.7273V18H60.8538V10.7273H62.3914ZM63.3795 11.995V10.7273H69.3525V11.995H67.126V18H65.6061V11.995H63.3795ZM70.3362 18V10.7273H75.2368V11.995H71.8738V13.728H74.9846V14.9957H71.8738V16.7322H75.251V18H70.3362Z" fill="white"/>
<path d="M29.3138 6.34756C28.6405 5.73424 27.8264 5.9809 27.022 6.71022C26.898 6.82371 26.7789 6.94271 26.6651 7.06688C25.2893 8.55819 24.0125 11.3202 23.6159 13.4295C23.7705 13.7495 23.8912 14.1581 23.9708 14.4701C24.0107 14.6253 24.0464 14.7816 24.0778 14.9388C24.0778 14.9388 24.0654 14.8914 24.0152 14.7414L23.9825 14.6441C23.9758 14.6261 23.9686 14.6084 23.961 14.5908C23.871 14.3774 23.6231 13.9275 23.5135 13.7315C23.4202 14.0134 23.3373 14.2768 23.2682 14.5154C23.5839 15.1048 23.7757 16.1154 23.7757 16.1154C23.7757 16.1154 23.7594 16.0494 23.6798 15.8208C23.61 15.6188 23.2597 14.9914 23.1762 14.8448C23.0346 15.3808 22.9779 15.7421 23.0288 15.8301C23.1279 16.0008 23.2219 16.2954 23.3041 16.6207C23.4906 17.3541 23.6205 18.2474 23.6205 18.2474L23.6316 18.3967C23.607 19.0076 23.6192 19.6194 23.6681 20.2287C23.7301 20.9927 23.8462 21.6487 23.9943 22L24.0954 21.944C23.8775 21.252 23.7888 20.3447 23.8279 19.2994C23.8866 17.7007 24.2468 15.7728 24.9115 13.7635C26.0356 10.7302 27.5948 8.2962 29.0215 7.13355C27.7213 8.33353 25.9606 12.2201 25.4334 13.6588C24.8437 15.2694 24.4255 16.7814 24.1737 18.2301C24.6082 16.8721 26.0141 16.2887 26.0141 16.2887C26.0141 16.2887 26.7036 15.4194 27.5093 14.1781C27.0265 14.2908 26.2339 14.4834 25.9684 14.5974C25.577 14.7648 25.4713 14.8221 25.4713 14.8221C25.4713 14.8221 26.7402 14.0328 27.8283 13.6755C29.3249 11.2668 30.9558 7.84487 29.3138 6.34756ZM17.1971 6.70955C16.8799 6.71078 16.576 6.84016 16.3517 7.06945C16.1275 7.29874 16.001 7.60936 16 7.93354V19.0054C16.001 19.3294 16.1275 19.6399 16.3518 19.869C16.5761 20.0981 16.88 20.2271 17.1971 20.228H23.3412C23.2952 19.6277 23.2839 19.0251 23.3073 18.4234C23.3034 18.3821 23.3001 18.3294 23.2969 18.2901C23.2173 17.7572 23.1143 17.2282 22.9883 16.7047C22.9094 16.3914 22.8089 16.1061 22.7476 16.0001C22.6719 15.8688 22.6836 15.7934 22.6843 15.7121C22.6843 15.6321 22.6941 15.5488 22.7084 15.4548C22.7471 15.2199 22.798 14.9874 22.8611 14.7581L23.0027 14.7394C22.9916 14.7161 22.9935 14.6961 22.9824 14.6748L22.9557 14.4208C23.0338 14.1538 23.1169 13.8885 23.2049 13.6248L23.3354 13.6121C23.3302 13.6015 23.3289 13.5868 23.3236 13.5768L23.2956 13.3661C23.7066 11.1795 24.9833 8.4042 26.427 6.83889C26.4701 6.79289 26.5138 6.75355 26.5562 6.70955H17.1971Z" fill="white"/>
</g>
<defs>
<clipPath id="clip0_220_174">
<rect width="92.5" height="28" fill="white"/>
</clipPath>
</defs>
</svg>
