<svg width="192" height="28" viewBox="0 0 192 28" fill="none" xmlns="http://www.w3.org/2000/svg">
<g clip-path="url(#clip0_220_199)">
<path d="M177.25 0H14C6.26801 0 0 6.26801 0 14C0 21.732 6.26801 28 14 28H177.25C184.982 28 191.25 21.732 191.25 14C191.25 6.26801 184.982 0 177.25 0Z" fill="#DB7093"/>
<path d="M57.0325 12.8189C57.0041 12.5324 56.8822 12.3099 56.6667 12.1513C56.4513 11.9927 56.1589 11.9134 55.7896 11.9134C55.5386 11.9134 55.3268 11.9489 55.1539 12.0199C54.9811 12.0885 54.8485 12.1844 54.7562 12.3075C54.6663 12.4306 54.6213 12.5703 54.6213 12.7266C54.6165 12.8568 54.6438 12.9704 54.7029 13.0675C54.7645 13.1645 54.8485 13.2486 54.9551 13.3196C55.0616 13.3883 55.1847 13.4486 55.3244 13.5007C55.4641 13.5504 55.6132 13.593 55.7718 13.6286L56.4252 13.7848C56.7425 13.8558 57.0337 13.9505 57.2988 14.0689C57.564 14.1873 57.7936 14.3329 57.9877 14.5057C58.1819 14.6785 58.3322 14.8821 58.4387 15.1165C58.5476 15.3509 58.6033 15.6196 58.6056 15.9226C58.6033 16.3677 58.4896 16.7536 58.2647 17.0803C58.0422 17.4046 57.7202 17.6567 57.2988 17.8366C56.8798 18.0142 56.3743 18.103 55.7825 18.103C55.1954 18.103 54.684 18.013 54.2484 17.8331C53.8152 17.6532 53.4766 17.3868 53.2328 17.0341C52.9913 16.679 52.8646 16.2398 52.8528 15.7166H54.3407C54.3573 15.9605 54.4271 16.1641 54.5502 16.3274C54.6757 16.4884 54.8426 16.6103 55.051 16.6932C55.2617 16.7737 55.4996 16.8139 55.7647 16.8139C56.0252 16.8139 56.2512 16.776 56.443 16.7003C56.6371 16.6245 56.7875 16.5192 56.894 16.3842C57.0005 16.2493 57.0538 16.0942 57.0538 15.919C57.0538 15.7557 57.0053 15.6184 56.9082 15.5071C56.8135 15.3958 56.6738 15.3011 56.4892 15.223C56.3069 15.1449 56.0832 15.0739 55.818 15.0099L55.0261 14.8111C54.4129 14.6619 53.9288 14.4287 53.5737 14.1115C53.2186 13.7943 53.0422 13.367 53.0446 12.8295C53.0422 12.3892 53.1594 12.0045 53.3961 11.6754C53.6352 11.3464 53.9631 11.0895 54.3798 10.9048C54.7965 10.7202 55.2699 10.6278 55.8002 10.6278C56.34 10.6278 56.8111 10.7202 57.2136 10.9048C57.6184 11.0895 57.9333 11.3464 58.1582 11.6754C58.3831 12.0045 58.4991 12.3857 58.5062 12.8189H57.0325ZM59.3629 11.995V10.7273H65.3359V11.995H63.1094V18H61.5895V11.995H59.3629ZM65.8935 10.7273H67.6158L69.2741 13.8594H69.3452L71.0036 10.7273H72.7259L70.0732 15.429V18H68.5462V15.429L65.8935 10.7273ZM73.5657 18V10.7273H75.1033V16.7322H78.2212V18H73.5657ZM79.2395 18V10.7273H84.1401V11.995H80.7772V13.728H83.888V14.9957H80.7772V16.7322H84.1543V18H79.2395ZM87.9407 18H85.3626V10.7273H87.962C88.6935 10.7273 89.3233 10.8729 89.8512 11.1641C90.3791 11.4529 90.7852 11.8684 91.0692 12.4105C91.3557 12.9527 91.4989 13.6013 91.4989 14.3565C91.4989 15.1141 91.3557 15.7652 91.0692 16.3097C90.7852 16.8542 90.3768 17.272 89.8441 17.5632C89.3138 17.8544 88.6793 18 87.9407 18ZM86.9002 16.6825H87.8768C88.3313 16.6825 88.7137 16.602 89.0238 16.4411C89.3363 16.2777 89.5707 16.0256 89.7269 15.6847C89.8855 15.3414 89.9648 14.8987 89.9648 14.3565C89.9648 13.8191 89.8855 13.38 89.7269 13.0391C89.5707 12.6982 89.3375 12.4472 89.0273 12.2862C88.7172 12.1252 88.3349 12.0447 87.8803 12.0447H86.9002V16.6825ZM96.008 13.7635V14.9638H92.6912V13.7635H96.008ZM103.742 13.2734H102.187C102.159 13.0722 102.101 12.8935 102.013 12.7372C101.925 12.5786 101.813 12.4437 101.676 12.3324C101.538 12.2211 101.38 12.1359 101.2 12.0767C101.022 12.0175 100.829 11.9879 100.621 11.9879C100.244 11.9879 99.9166 12.0814 99.6373 12.2685C99.3579 12.4531 99.1413 12.723 98.9874 13.0781C98.8335 13.4309 98.7566 13.8594 98.7566 14.3636C98.7566 14.8821 98.8335 15.3177 98.9874 15.6705C99.1436 16.0232 99.3614 16.2895 99.6408 16.4695C99.9202 16.6494 100.243 16.7393 100.61 16.7393C100.816 16.7393 101.007 16.7121 101.182 16.6577C101.36 16.6032 101.517 16.5239 101.654 16.4197C101.792 16.3132 101.905 16.1842 101.995 16.0327C102.088 15.8812 102.151 15.7083 102.187 15.5142L103.742 15.5213C103.702 15.8551 103.602 16.1771 103.441 16.4872C103.282 16.795 103.068 17.0708 102.798 17.3146C102.53 17.5561 102.211 17.7479 101.839 17.8899C101.47 18.0296 101.052 18.0994 100.585 18.0994C99.9367 18.0994 99.3567 17.9527 98.8453 17.6591C98.3364 17.3655 97.9339 16.9406 97.638 16.3842C97.3444 15.8279 97.1976 15.1544 97.1976 14.3636C97.1976 13.5705 97.3468 12.8958 97.6451 12.3395C97.9434 11.7831 98.3482 11.3594 98.8596 11.0682C99.3709 10.7746 99.9462 10.6278 100.585 10.6278C101.007 10.6278 101.397 10.687 101.757 10.8054C102.119 10.9238 102.44 11.0966 102.72 11.3239C102.999 11.5488 103.226 11.8246 103.401 12.1513C103.579 12.478 103.693 12.852 103.742 13.2734ZM111.528 14.3636C111.528 15.1567 111.378 15.8314 111.077 16.3878C110.779 16.9441 110.372 17.3691 109.856 17.6626C109.342 17.9538 108.764 18.0994 108.123 18.0994C107.476 18.0994 106.896 17.9527 106.383 17.6591C105.869 17.3655 105.463 16.9406 105.165 16.3842C104.866 15.8279 104.717 15.1544 104.717 14.3636C104.717 13.5705 104.866 12.8958 105.165 12.3395C105.463 11.7831 105.869 11.3594 106.383 11.0682C106.896 10.7746 107.476 10.6278 108.123 10.6278C108.764 10.6278 109.342 10.7746 109.856 11.0682C110.372 11.3594 110.779 11.7831 111.077 12.3395C111.378 12.8958 111.528 13.5705 111.528 14.3636ZM109.969 14.3636C109.969 13.8499 109.892 13.4167 109.738 13.0639C109.587 12.7112 109.373 12.4437 109.096 12.2614C108.819 12.0791 108.494 11.9879 108.123 11.9879C107.751 11.9879 107.427 12.0791 107.15 12.2614C106.873 12.4437 106.657 12.7112 106.503 13.0639C106.352 13.4167 106.276 13.8499 106.276 14.3636C106.276 14.8774 106.352 15.3106 106.503 15.6634C106.657 16.0161 106.873 16.2836 107.15 16.4659C107.427 16.6482 107.751 16.7393 108.123 16.7393C108.494 16.7393 108.819 16.6482 109.096 16.4659C109.373 16.2836 109.587 16.0161 109.738 15.6634C109.892 15.3106 109.969 14.8774 109.969 14.3636ZM112.667 10.7273H114.564L116.566 15.6136H116.652L118.654 10.7273H120.551V18H119.059V13.2663H118.999L117.117 17.9645H116.101L114.219 13.2486H114.159V18H112.667V10.7273ZM121.818 18V10.7273H124.687C125.239 10.7273 125.709 10.8326 126.097 11.0433C126.485 11.2517 126.781 11.5417 126.985 11.9134C127.191 12.2827 127.294 12.7088 127.294 13.1918C127.294 13.6747 127.189 14.1009 126.981 14.4702C126.773 14.8395 126.471 15.1271 126.075 15.3331C125.682 15.5391 125.207 15.642 124.648 15.642H122.819V14.4098H124.399C124.695 14.4098 124.939 14.3589 125.131 14.2571C125.325 14.1529 125.469 14.0097 125.564 13.8274C125.661 13.6428 125.71 13.4309 125.71 13.1918C125.71 12.9503 125.661 12.7396 125.564 12.5597C125.469 12.3774 125.325 12.2365 125.131 12.1371C124.937 12.0353 124.691 11.9844 124.392 11.9844H123.355V18H121.818ZM134.975 14.3636C134.975 15.1567 134.825 15.8314 134.525 16.3878C134.226 16.9441 133.819 17.3691 133.303 17.6626C132.789 17.9538 132.212 18.0994 131.57 18.0994C130.924 18.0994 130.344 17.9527 129.83 17.6591C129.316 17.3655 128.91 16.9406 128.612 16.3842C128.314 15.8279 128.164 15.1544 128.164 14.3636C128.164 13.5705 128.314 12.8958 128.612 12.3395C128.91 11.7831 129.316 11.3594 129.83 11.0682C130.344 10.7746 130.924 10.6278 131.57 10.6278C132.212 10.6278 132.789 10.7746 133.303 11.0682C133.819 11.3594 134.226 11.7831 134.525 12.3395C134.825 12.8958 134.975 13.5705 134.975 14.3636ZM133.417 14.3636C133.417 13.8499 133.34 13.4167 133.186 13.0639C133.034 12.7112 132.82 12.4437 132.543 12.2614C132.266 12.0791 131.942 11.9879 131.57 11.9879C131.198 11.9879 130.874 12.0791 130.597 12.2614C130.32 12.4437 130.105 12.7112 129.951 13.0639C129.799 13.4167 129.723 13.8499 129.723 14.3636C129.723 14.8774 129.799 15.3106 129.951 15.6634C130.105 16.0161 130.32 16.2836 130.597 16.4659C130.874 16.6482 131.198 16.7393 131.57 16.7393C131.942 16.7393 132.266 16.6482 132.543 16.4659C132.82 16.2836 133.034 16.0161 133.186 15.6634C133.34 15.3106 133.417 14.8774 133.417 14.3636ZM142.198 10.7273V18H140.869L137.705 13.4226H137.652V18H136.115V10.7273H137.464L140.603 15.3011H140.667V10.7273H142.198ZM143.468 18V10.7273H148.369V11.995H145.006V13.728H148.116V14.9957H145.006V16.7322H148.383V18H143.468ZM155.674 10.7273V18H154.346L151.182 13.4226H151.129V18H149.591V10.7273H150.941L154.08 15.3011H154.144V10.7273H155.674ZM156.668 11.995V10.7273H162.641V11.995H160.414V18H158.894V11.995H156.668ZM167.57 12.8189C167.541 12.5324 167.419 12.3099 167.204 12.1513C166.988 11.9927 166.696 11.9134 166.327 11.9134C166.076 11.9134 165.864 11.9489 165.691 12.0199C165.518 12.0885 165.386 12.1844 165.293 12.3075C165.203 12.4306 165.158 12.5703 165.158 12.7266C165.154 12.8568 165.181 12.9704 165.24 13.0675C165.302 13.1645 165.386 13.2486 165.492 13.3196C165.599 13.3883 165.722 13.4486 165.862 13.5007C166.001 13.5504 166.15 13.593 166.309 13.6286L166.962 13.7848C167.28 13.8558 167.571 13.9505 167.836 14.0689C168.101 14.1873 168.331 14.3329 168.525 14.5057C168.719 14.6785 168.869 14.8821 168.976 15.1165C169.085 15.3509 169.14 15.6196 169.143 15.9226C169.14 16.3677 169.027 16.7536 168.802 17.0803C168.579 17.4046 168.257 17.6567 167.836 17.8366C167.417 18.0142 166.911 18.103 166.32 18.103C165.732 18.103 165.221 18.013 164.786 17.8331C164.352 17.6532 164.014 17.3868 163.77 17.0341C163.528 16.679 163.402 16.2398 163.39 15.7166H164.878C164.894 15.9605 164.964 16.1641 165.087 16.3274C165.213 16.4884 165.38 16.6103 165.588 16.6932C165.799 16.7737 166.037 16.8139 166.302 16.8139C166.562 16.8139 166.788 16.776 166.98 16.7003C167.174 16.6245 167.325 16.5192 167.431 16.3842C167.538 16.2493 167.591 16.0942 167.591 15.919C167.591 15.7557 167.542 15.6184 167.445 15.5071C167.351 15.3958 167.211 15.3011 167.026 15.223C166.844 15.1449 166.62 15.0739 166.355 15.0099L165.563 14.8111C164.95 14.6619 164.466 14.4287 164.111 14.1115C163.756 13.7943 163.579 13.367 163.582 12.8295C163.579 12.3892 163.696 12.0045 163.933 11.6754C164.172 11.3464 164.5 11.0895 164.917 10.9048C165.334 10.7202 165.807 10.6278 166.337 10.6278C166.877 10.6278 167.348 10.7202 167.751 10.9048C168.156 11.0895 168.47 11.3464 168.695 11.6754C168.92 12.0045 169.036 12.3857 169.043 12.8189H167.57Z" fill="white"/>
<path d="M33.214 9L33.139 9.391C33.023 10.132 33.065 10.344 33.383 10.619L33.69 10.873L33.372 12.291C33.182 13.137 32.949 13.846 32.801 14.079C32.674 14.28 32.526 14.576 32.494 14.735C32.441 14.925 32.261 15.116 31.986 15.285C31.743 15.423 31.266 15.793 30.928 16.09C30.658 16.333 30.472 16.482 30.371 16.546L30.041 16.807C29.935 16.977 29.875 17.114 29.852 17.218C29.829 17.325 29.842 17.396 29.876 17.448C29.909 17.498 29.966 17.533 30.044 17.555C30.1363 17.5766 30.2314 17.5844 30.326 17.578C30.5401 17.5634 30.7519 17.5258 30.958 17.466C31.028 17.447 31.083 17.429 31.131 17.413C31.205 17.322 31.376 17.15 31.679 16.851C32.483 16.058 32.79 15.624 32.473 15.741C32.356 15.783 32.409 15.677 32.61 15.465C33.034 15.052 33.277 14.428 33.785 12.471C34.187 10.926 34.187 10.904 34.483 10.904C34.622 10.904 35.015 10.928 35.015 10.928V9H34.113H33.214ZM37.053 12.165C36.989 12.165 36.883 12.261 36.82 12.367C36.704 12.557 36.841 12.673 38.587 13.763C39.624 14.42 40.46 14.98 40.439 15.023C40.418 15.054 39.571 15.605 38.556 16.24C36.714 17.382 36.704 17.393 36.873 17.626C37.085 17.901 36.873 17.996 39.264 16.504L41 15.393V14.557L39.063 13.361C38.016 12.705 37.106 12.176 37.053 12.165ZM20.968 12.282C20.915 12.282 20.005 12.822 18.958 13.467L17 14.663V15.499L18.947 16.716C20.027 17.382 20.937 17.933 20.979 17.933C21.021 17.933 21.106 17.837 21.191 17.721C21.318 17.52 21.211 17.435 19.423 16.303C17.72 15.234 17.54 15.086 17.71 14.97C17.816 14.896 18.62 14.398 19.488 13.859C21.467 12.642 21.361 12.726 21.202 12.472C21.139 12.367 21.032 12.272 20.969 12.282H20.968ZM29.652 12.305C29.36 12.303 28.732 12.748 26.852 14.283C26.771 14.476 26.764 14.609 26.801 14.695C26.825 14.754 26.869 14.795 26.93 14.825C26.99 14.855 27.068 14.873 27.154 14.88C27.325 14.895 27.527 14.868 27.69 14.836L27.8 14.811C27.8377 14.7605 27.8871 14.72 27.944 14.693C28.06 14.629 28.547 14.185 29.034 13.709C29.891 12.841 30.092 12.449 29.743 12.322C29.7144 12.3106 29.6828 12.3048 29.652 12.305ZM31.848 12.908C31.591 12.915 31.128 13.213 30.335 13.846C29.937 14.169 29.685 14.343 29.55 14.379L29.026 14.793C28.829 15.153 28.8 15.376 28.852 15.499C28.865 15.5293 28.8839 15.5568 28.9076 15.5798C28.9313 15.6028 28.9593 15.6209 28.99 15.633C29.0664 15.6632 29.1479 15.6784 29.23 15.678C29.4263 15.6759 29.6214 15.6473 29.81 15.593C29.9083 15.5666 30.0054 15.5359 30.101 15.501L30.13 15.489L30.183 15.461C30.283 15.332 30.513 15.089 30.801 14.809C31.711 13.931 32.176 13.307 32.081 13.074C32.038 12.961 31.964 12.904 31.848 12.908ZM29.424 13.988C29.35 13.996 29.184 14.124 28.885 14.386C28.453 14.768 27.982 14.988 27.819 14.89C27.7811 14.8986 27.7431 14.9066 27.705 14.914C27.539 14.947 27.332 14.974 27.147 14.959C27.0598 14.9537 26.9744 14.9324 26.895 14.896C26.8201 14.8618 26.7604 14.8013 26.727 14.726C26.69 14.636 26.69 14.524 26.732 14.381L26.082 14.915L24.611 16.132V18.105L29.431 14.308C29.4301 14.2664 29.4355 14.225 29.447 14.185C29.484 14.051 29.482 13.983 29.424 13.989V13.988ZM31.498 14.627C31.425 14.627 31.303 14.73 31.108 14.937C30.843 15.22 30.426 15.494 30.205 15.55L30.171 15.568C30.1347 15.583 30.098 15.597 30.061 15.61C30.001 15.63 29.923 15.654 29.833 15.678C29.653 15.727 29.429 15.772 29.229 15.767C29.1347 15.7669 29.0413 15.7485 28.954 15.713C28.8717 15.6791 28.8057 15.6146 28.77 15.533C28.712 15.394 28.735 15.199 28.862 14.922L24.61 18.271V19.476H26.478L30.44 16.364C30.543 16.25 30.698 16.094 30.907 15.899C31.467 15.38 31.594 15.201 31.594 14.936C31.594 14.73 31.571 14.626 31.498 14.626V14.627ZM32.441 16.577L32.102 16.915C31.912 17.095 31.573 17.317 31.341 17.412L31.295 17.432L31.292 17.437L31.282 17.447C31.273 17.454 31.269 17.455 31.262 17.458C31.1694 17.4931 31.0753 17.5241 30.98 17.551C30.7681 17.6127 30.5502 17.6512 30.33 17.666C30.2259 17.6727 30.1214 17.6636 30.02 17.639C29.932 17.6196 29.8543 17.5683 29.802 17.495C29.754 17.421 29.74 17.322 29.767 17.2C29.7885 17.1131 29.8204 17.0292 29.862 16.95L26.665 19.476H30.917L31.425 18.894C32.123 18.08 32.441 17.498 32.441 17V16.577Z" fill="white"/>
</g>
<defs>
<clipPath id="clip0_220_199">
<rect width="191.25" height="28" fill="white"/>
</clipPath>
</defs>
</svg>
