<svg width="139" height="28" viewBox="0 0 139 28" fill="none" xmlns="http://www.w3.org/2000/svg">
<g clip-path="url(#clip0_220_194)">
<path d="M124.75 0H14C6.26801 0 0 6.26801 0 14C0 21.732 6.26801 28 14 28H124.75C132.482 28 138.75 21.732 138.75 14C138.75 6.26801 132.482 0 124.75 0Z" fill="#38B2AC"/>
<path d="M46.4772 11.995V10.7273H52.4502V11.995H50.2236V18H48.7037V11.995H46.4772ZM53.7987 18H52.151L54.6617 10.7273H56.6432L59.1503 18H57.5026L55.6808 12.3892H55.624L53.7987 18ZM53.6958 15.1413H57.5878V16.3416H53.6958V15.1413ZM61.5633 10.7273V18H60.0257V10.7273H61.5633ZM62.8284 18V10.7273H64.366V16.7322H67.4839V18H62.8284ZM69.7291 18L67.6482 10.7273H69.3279L70.5317 15.7805H70.5921L71.9202 10.7273H73.3584L74.683 15.7912H74.7469L75.9507 10.7273H77.6304L75.5494 18H74.0509L72.6659 13.245H72.6091L71.2277 18H69.7291ZM79.991 10.7273V18H78.4534V10.7273H79.991ZM87.3392 10.7273V18H86.0111L82.847 13.4226H82.7938V18H81.2561V10.7273H82.6056L85.7448 15.3011H85.8087V10.7273H87.3392ZM91.1878 18H88.6096V10.7273H91.2091C91.9406 10.7273 92.5703 10.8729 93.0983 11.1641C93.6262 11.4529 94.0322 11.8684 94.3163 12.4105C94.6028 12.9527 94.746 13.6013 94.746 14.3565C94.746 15.1141 94.6028 15.7652 94.3163 16.3097C94.0322 16.8542 93.6238 17.272 93.0912 17.5632C92.5609 17.8544 91.9264 18 91.1878 18ZM90.1473 16.6825H91.1238C91.5784 16.6825 91.9607 16.602 92.2709 16.4411C92.5834 16.2777 92.8177 16.0256 92.974 15.6847C93.1326 15.3414 93.2119 14.8987 93.2119 14.3565C93.2119 13.8191 93.1326 13.38 92.974 13.0391C92.8177 12.6982 92.5845 12.4472 92.2744 12.2862C91.9643 12.1252 91.5819 12.0447 91.1274 12.0447H90.1473V16.6825ZM102.302 13.2734H100.747C100.718 13.0722 100.66 12.8935 100.573 12.7372C100.485 12.5786 100.372 12.4437 100.235 12.3324C100.098 12.2211 99.9392 12.1359 99.7593 12.0767C99.5818 12.0175 99.3888 11.9879 99.1805 11.9879C98.8041 11.9879 98.4762 12.0814 98.1968 12.2685C97.9175 12.4531 97.7008 12.723 97.547 13.0781C97.3931 13.4309 97.3161 13.8594 97.3161 14.3636C97.3161 14.8821 97.3931 15.3177 97.547 15.6705C97.7032 16.0232 97.921 16.2895 98.2004 16.4695C98.4797 16.6494 98.8029 16.7393 99.1698 16.7393C99.3758 16.7393 99.5664 16.7121 99.7416 16.6577C99.9191 16.6032 100.077 16.5239 100.214 16.4197C100.351 16.3132 100.465 16.1842 100.555 16.0327C100.647 15.8812 100.711 15.7083 100.747 15.5142L102.302 15.5213C102.262 15.8551 102.161 16.1771 102 16.4872C101.841 16.795 101.627 17.0708 101.357 17.3146C101.09 17.5561 100.77 17.7479 100.399 17.8899C100.029 18.0296 99.6114 18.0994 99.145 18.0994C98.4963 18.0994 97.9163 17.9527 97.4049 17.6591C96.8959 17.3655 96.4935 16.9406 96.1975 16.3842C95.904 15.8279 95.7572 15.1544 95.7572 14.3636C95.7572 13.5705 95.9063 12.8958 96.2046 12.3395C96.5029 11.7831 96.9078 11.3594 97.4191 11.0682C97.9305 10.7746 98.5058 10.6278 99.145 10.6278C99.5664 10.6278 99.957 10.687 100.317 10.8054C100.679 10.9238 101 11.0966 101.279 11.3239C101.559 11.5488 101.786 11.8246 101.961 12.1513C102.139 12.478 102.252 12.852 102.302 13.2734ZM107.35 12.8189C107.321 12.5324 107.2 12.3099 106.984 12.1513C106.769 11.9927 106.476 11.9134 106.107 11.9134C105.856 11.9134 105.644 11.9489 105.471 12.0199C105.299 12.0885 105.166 12.1844 105.074 12.3075C104.984 12.4306 104.939 12.5703 104.939 12.7266C104.934 12.8568 104.961 12.9704 105.02 13.0675C105.082 13.1645 105.166 13.2486 105.272 13.3196C105.379 13.3883 105.502 13.4486 105.642 13.5007C105.781 13.5504 105.931 13.593 106.089 13.6286L106.743 13.7848C107.06 13.8558 107.351 13.9505 107.616 14.0689C107.881 14.1873 108.111 14.3329 108.305 14.5057C108.499 14.6785 108.65 14.8821 108.756 15.1165C108.865 15.3509 108.921 15.6196 108.923 15.9226C108.921 16.3677 108.807 16.7536 108.582 17.0803C108.36 17.4046 108.038 17.6567 107.616 17.8366C107.197 18.0142 106.692 18.103 106.1 18.103C105.513 18.103 105.001 18.013 104.566 17.8331C104.133 17.6532 103.794 17.3868 103.55 17.0341C103.309 16.679 103.182 16.2398 103.17 15.7166H104.658C104.675 15.9605 104.745 16.1641 104.868 16.3274C104.993 16.4884 105.16 16.6103 105.368 16.6932C105.579 16.7737 105.817 16.8139 106.082 16.8139C106.343 16.8139 106.569 16.776 106.76 16.7003C106.955 16.6245 107.105 16.5192 107.211 16.3842C107.318 16.2493 107.371 16.0942 107.371 15.919C107.371 15.7557 107.323 15.6184 107.226 15.5071C107.131 15.3958 106.991 15.3011 106.807 15.223C106.624 15.1449 106.401 15.0739 106.135 15.0099L105.343 14.8111C104.73 14.6619 104.246 14.4287 103.891 14.1115C103.536 13.7943 103.36 13.367 103.362 12.8295C103.36 12.3892 103.477 12.0045 103.714 11.6754C103.953 11.3464 104.281 11.0895 104.697 10.9048C105.114 10.7202 105.587 10.6278 106.118 10.6278C106.657 10.6278 107.129 10.7202 107.531 10.9048C107.936 11.0895 108.251 11.3464 108.476 11.6754C108.7 12.0045 108.816 12.3857 108.824 12.8189H107.35ZM113.903 12.8189C113.874 12.5324 113.752 12.3099 113.537 12.1513C113.321 11.9927 113.029 11.9134 112.66 11.9134C112.409 11.9134 112.197 11.9489 112.024 12.0199C111.851 12.0885 111.719 12.1844 111.626 12.3075C111.536 12.4306 111.491 12.5703 111.491 12.7266C111.487 12.8568 111.514 12.9704 111.573 13.0675C111.635 13.1645 111.719 13.2486 111.825 13.3196C111.932 13.3883 112.055 13.4486 112.195 13.5007C112.334 13.5504 112.483 13.593 112.642 13.6286L113.295 13.7848C113.613 13.8558 113.904 13.9505 114.169 14.0689C114.434 14.1873 114.664 14.3329 114.858 14.5057C115.052 14.6785 115.202 14.8821 115.309 15.1165C115.418 15.3509 115.473 15.6196 115.476 15.9226C115.473 16.3677 115.36 16.7536 115.135 17.0803C114.912 17.4046 114.59 17.6567 114.169 17.8366C113.75 18.0142 113.244 18.103 112.653 18.103C112.065 18.103 111.554 18.013 111.119 17.8331C110.685 17.6532 110.347 17.3868 110.103 17.0341C109.861 16.679 109.735 16.2398 109.723 15.7166H111.211C111.227 15.9605 111.297 16.1641 111.42 16.3274C111.546 16.4884 111.713 16.6103 111.921 16.6932C112.132 16.7737 112.37 16.8139 112.635 16.8139C112.895 16.8139 113.121 16.776 113.313 16.7003C113.507 16.6245 113.658 16.5192 113.764 16.3842C113.871 16.2493 113.924 16.0942 113.924 15.919C113.924 15.7557 113.875 15.6184 113.778 15.5071C113.684 15.3958 113.544 15.3011 113.359 15.223C113.177 15.1449 112.953 15.0739 112.688 15.0099L111.896 14.8111C111.283 14.6619 110.799 14.4287 110.444 14.1115C110.089 13.7943 109.912 13.367 109.915 12.8295C109.912 12.3892 110.03 12.0045 110.266 11.6754C110.505 11.3464 110.833 11.0895 111.25 10.9048C111.667 10.7202 112.14 10.6278 112.67 10.6278C113.21 10.6278 113.681 10.7202 114.084 10.9048C114.489 11.0895 114.803 11.3464 115.028 11.6754C115.253 12.0045 115.369 12.3857 115.376 12.8189H113.903Z" fill="white"/>
<path d="M26 8C23.0667 8 21.2333 9.44444 20.5 12.3333C21.6 10.8889 22.8833 10.3472 24.35 10.7083C25.1869 10.9142 25.7846 11.5118 26.4473 12.1744C27.5263 13.2524 28.7738 14.5 31.5 14.5C34.4333 14.5 36.2667 13.0556 37 10.1667C35.9 11.6111 34.6167 12.1528 33.15 11.7917C32.3131 11.5858 31.7154 10.9882 31.0527 10.3256C29.9747 9.24764 28.7271 8 26 8ZM20.5 14.5C17.5667 14.5 15.7333 15.9444 15 18.8333C16.1 17.3889 17.3833 16.8472 18.85 17.2083C19.6869 17.4142 20.2846 18.0118 20.9473 18.6744C22.0263 19.7524 23.2738 21 26 21C28.9333 21 30.7667 19.5556 31.5 16.6667C30.4 18.1111 29.1167 18.6528 27.65 18.2917C26.8131 18.0858 26.2154 17.4882 25.5527 16.8256C24.4747 15.7476 23.2271 14.5 20.5 14.5Z" fill="white"/>
</g>
<defs>
<clipPath id="clip0_220_194">
<rect width="138.75" height="28" fill="white"/>
</clipPath>
</defs>
</svg>
