<svg width="63" height="20" viewBox="0 0 63 20" fill="none" xmlns="http://www.w3.org/2000/svg">
  <mask id="mask0_215_95" style="mask-type:luminance" maskUnits="userSpaceOnUse" x="0" y="0"
    width="63" height="20">
    <path
      d="M60 0H3C1.34315 0 0 1.34315 0 3V17C0 18.6569 1.34315 20 3 20H60C61.6569 20 63 18.6569 63 17V3C63 1.34315 61.6569 0 60 0Z"
      fill="white" />
  </mask>
  <g mask="url(#mask0_215_95)">
    <path d="M63 0H0V20H63V0Z" fill="#9146FF" />
    <path d="M63 0H0V20H63V0Z" fill="url(#paint0_linear_215_95)" />
  </g>
  <g>
    <text fill="#010101" fill-opacity="0.3" xml:space="preserve" style="white-space: pre"
      font-family="Inter" font-size="11" letter-spacing="0em"><tspan font-family="Verdana,Geneva,DejaVu Sans,sans-serif" x="23.5034" y="14.5">Twitch</tspan></text>
    <text fill="white" xml:space="preserve" style="white-space: pre" font-family="Inter"
      font-size="11" letter-spacing="0em"><tspan font-family="Verdana,Geneva,DejaVu Sans,sans-serif" x="23.5034" y="13.5">Twitch</tspan></text>
    <path
      d="M11.9164 5.74983H12.9168V8.74992H11.9158L11.9164 5.74983ZM14.6668 5.74983H15.6667V8.74992H14.6668V5.74983ZM8.66667 3L6.1665 5.50017V14.4998H9.16659V17L11.6668 14.4998H13.6664L18.1668 10V3H8.66667ZM17.1664 9.50008L15.1668 11.4997H13.1665L11.4165 13.2497V11.4997H9.16659V3.99983H17.1664V9.50008Z"
      fill="white" />
  </g>
  <defs>
    <linearGradient id="paint0_linear_215_95" x1="0" y1="0" x2="0" y2="400"
      gradientUnits="userSpaceOnUse">
      <stop stop-color="#BBBBBB" stop-opacity="0.1" />
      <stop offset="1" stop-opacity="0.1" />
    </linearGradient>
  </defs>
</svg>
