<svg width="127" height="28" viewBox="0 0 127 28" fill="none" xmlns="http://www.w3.org/2000/svg">
<g clip-path="url(#clip0_220_274)">
<path d="M112.5 0H14C6.26801 0 0 6.26801 0 14C0 21.732 6.26801 28 14 28H112.5C120.232 28 126.5 21.732 126.5 14C126.5 6.26801 120.232 0 112.5 0Z" fill="#007ACC"/>
<path d="M41.7975 11.995V10.7273H47.7705V11.995H45.5439V18H44.0241V11.995H41.7975ZM48.328 10.7273H50.0503L51.7087 13.8594H51.7797L53.4381 10.7273H55.1604L52.5077 15.429V18H50.9807V15.429L48.328 10.7273ZM56.0003 18V10.7273H58.8696C59.4212 10.7273 59.8911 10.8326 60.2794 11.0433C60.6676 11.2517 60.9636 11.5417 61.1672 11.9134C61.3731 12.2827 61.4761 12.7088 61.4761 13.1918C61.4761 13.6747 61.372 14.1009 61.1636 14.4702C60.9553 14.8395 60.6534 15.1271 60.2581 15.3331C59.8651 15.5391 59.3892 15.642 58.8305 15.642H57.0017V14.4098H58.5819C58.8779 14.4098 59.1217 14.3589 59.3135 14.2571C59.5076 14.1529 59.652 14.0097 59.7467 13.8274C59.8438 13.6428 59.8923 13.4309 59.8923 13.1918C59.8923 12.9503 59.8438 12.7396 59.7467 12.5597C59.652 12.3774 59.5076 12.2365 59.3135 12.1371C59.1193 12.0353 58.8731 11.9844 58.5748 11.9844H57.5379V18H56.0003ZM62.4749 18V10.7273H67.3754V11.995H64.0125V13.728H67.1233V14.9957H64.0125V16.7322H67.3896V18H62.4749ZM72.5432 12.8189C72.5148 12.5324 72.3929 12.3099 72.1775 12.1513C71.962 11.9927 71.6697 11.9134 71.3003 11.9134C71.0494 11.9134 70.8375 11.9489 70.6647 12.0199C70.4919 12.0885 70.3593 12.1844 70.267 12.3075C70.177 12.4306 70.132 12.5703 70.132 12.7266C70.1273 12.8568 70.1545 12.9704 70.2137 13.0675C70.2752 13.1645 70.3593 13.2486 70.4658 13.3196C70.5724 13.3883 70.6955 13.4486 70.8351 13.5007C70.9748 13.5504 71.124 13.593 71.2826 13.6286L71.936 13.7848C72.2532 13.8558 72.5444 13.9505 72.8096 14.0689C73.0747 14.1873 73.3044 14.3329 73.4985 14.5057C73.6926 14.6785 73.843 14.8821 73.9495 15.1165C74.0584 15.3509 74.114 15.6196 74.1164 15.9226C74.114 16.3677 74.0004 16.7536 73.7755 17.0803C73.5529 17.4046 73.231 17.6567 72.8096 17.8366C72.3905 18.0142 71.8851 18.103 71.2932 18.103C70.7061 18.103 70.1948 18.013 69.7591 17.8331C69.3259 17.6532 68.9874 17.3868 68.7435 17.0341C68.502 16.679 68.3754 16.2398 68.3635 15.7166H69.8515C69.868 15.9605 69.9379 16.1641 70.061 16.3274C70.1865 16.4884 70.3534 16.6103 70.5617 16.6932C70.7724 16.7737 71.0103 16.8139 71.2755 16.8139C71.5359 16.8139 71.762 16.776 71.9537 16.7003C72.1479 16.6245 72.2982 16.5192 72.4047 16.3842C72.5113 16.2493 72.5645 16.0942 72.5645 15.919C72.5645 15.7557 72.516 15.6184 72.4189 15.5071C72.3242 15.3958 72.1846 15.3011 71.9999 15.223C71.8176 15.1449 71.5939 15.0739 71.3287 15.0099L70.5368 14.8111C69.9237 14.6619 69.4395 14.4287 69.0844 14.1115C68.7293 13.7943 68.5529 13.367 68.5553 12.8295C68.5529 12.3892 68.6701 12.0045 68.9069 11.6754C69.146 11.3464 69.4739 11.0895 69.8905 10.9048C70.3072 10.7202 70.7807 10.6278 71.311 10.6278C71.8508 10.6278 72.3219 10.7202 72.7243 10.9048C73.1292 11.0895 73.444 11.3464 73.6689 11.6754C73.8939 12.0045 74.0099 12.3857 74.017 12.8189H72.5432ZM81.5676 13.2734H80.0122C79.9838 13.0722 79.9258 12.8935 79.8382 12.7372C79.7506 12.5786 79.6381 12.4437 79.5008 12.3324C79.3635 12.2211 79.2049 12.1359 79.0249 12.0767C78.8474 12.0175 78.6544 11.9879 78.4461 11.9879C78.0697 11.9879 77.7418 12.0814 77.4624 12.2685C77.1831 12.4531 76.9665 12.723 76.8126 13.0781C76.6587 13.4309 76.5818 13.8594 76.5818 14.3636C76.5818 14.8821 76.6587 15.3177 76.8126 15.6705C76.9688 16.0232 77.1866 16.2895 77.466 16.4695C77.7454 16.6494 78.0685 16.7393 78.4355 16.7393C78.6414 16.7393 78.832 16.7121 79.0072 16.6577C79.1847 16.6032 79.3422 16.5239 79.4795 16.4197C79.6168 16.3132 79.7304 16.1842 79.8204 16.0327C79.9127 15.8812 79.9767 15.7083 80.0122 15.5142L81.5676 15.5213C81.5273 15.8551 81.4267 16.1771 81.2657 16.4872C81.1071 16.795 80.8928 17.0708 80.623 17.3146C80.3554 17.5561 80.0358 17.7479 79.6642 17.8899C79.2948 18.0296 78.877 18.0994 78.4106 18.0994C77.7619 18.0994 77.1819 17.9527 76.6705 17.6591C76.1615 17.3655 75.7591 16.9406 75.4632 16.3842C75.1696 15.8279 75.0228 15.1544 75.0228 14.3636C75.0228 13.5705 75.172 12.8958 75.4703 12.3395C75.7686 11.7831 76.1734 11.3594 76.6847 11.0682C77.1961 10.7746 77.7714 10.6278 78.4106 10.6278C78.832 10.6278 79.2226 10.687 79.5825 10.8054C79.9447 10.9238 80.2655 11.0966 80.5448 11.3239C80.8242 11.5488 81.0515 11.8246 81.2267 12.1513C81.4042 12.478 81.5178 12.852 81.5676 13.2734ZM82.6702 18V10.7273H85.5395C86.0887 10.7273 86.5575 10.8255 86.9458 11.022C87.3364 11.2161 87.6335 11.492 87.8371 11.8494C88.0431 12.2045 88.146 12.6224 88.146 13.103C88.146 13.5859 88.0419 14.0014 87.8335 14.3494C87.6252 14.6951 87.3234 14.9602 86.928 15.1449C86.535 15.3295 86.0592 15.4219 85.5004 15.4219H83.5793V14.1861H85.2519C85.5454 14.1861 85.7893 14.1458 85.9834 14.0653C86.1775 13.9848 86.3219 13.8641 86.4166 13.7031C86.5137 13.5421 86.5622 13.3421 86.5622 13.103C86.5622 12.8615 86.5137 12.6579 86.4166 12.4922C86.3219 12.3265 86.1763 12.201 85.9798 12.1158C85.7857 12.0282 85.5407 11.9844 85.2448 11.9844H84.2078V18H82.6702ZM86.5977 14.6903L88.4053 18H86.7078L84.9394 14.6903H86.5977ZM90.7703 10.7273V18H89.2327V10.7273H90.7703ZM92.0354 18V10.7273H94.9047C95.4564 10.7273 95.9263 10.8326 96.3145 11.0433C96.7028 11.2517 96.9987 11.5417 97.2023 11.9134C97.4083 12.2827 97.5113 12.7088 97.5113 13.1918C97.5113 13.6747 97.4071 14.1009 97.1988 14.4702C96.9904 14.8395 96.6886 15.1271 96.2932 15.3331C95.9002 15.5391 95.4244 15.642 94.8657 15.642H93.0368V14.4098H94.6171C94.913 14.4098 95.1569 14.3589 95.3486 14.2571C95.5428 14.1529 95.6872 14.0097 95.7819 13.8274C95.8789 13.6428 95.9275 13.4309 95.9275 13.1918C95.9275 12.9503 95.8789 12.7396 95.7819 12.5597C95.6872 12.3774 95.5428 12.2365 95.3486 12.1371C95.1545 12.0353 94.9083 11.9844 94.61 11.9844H93.5731V18H92.0354ZM98.233 11.995V10.7273H104.206V11.995H101.979V18H100.46V11.995H98.233Z" fill="white"/>
<path d="M15.75 6C15.3347 6 15 6.33467 15 6.75V21.25C15 21.6653 15.3347 22 15.75 22H30.25C30.6653 22 31 21.6653 31 21.25V6.75C31 6.33467 30.6653 6 30.25 6H15.75ZM27.3253 12.5C27.7333 12.5 28.0947 12.5247 28.41 12.574C28.7074 12.6186 28.9993 12.6945 29.2807 12.8007V14.4393C29.1456 14.3459 29.0021 14.2653 28.852 14.1987C28.6972 14.129 28.5374 14.0711 28.374 14.0253C28.0644 13.9391 27.7447 13.8942 27.4233 13.892C27.2233 13.892 27.0413 13.9107 26.8773 13.9493C26.7312 13.9806 26.5909 14.0351 26.462 14.1107C26.3487 14.18 26.262 14.2633 26.2 14.36C26.1376 14.4574 26.1052 14.571 26.1067 14.6867C26.1067 14.8173 26.142 14.9353 26.2107 15.0393C26.28 15.1433 26.3787 15.242 26.506 15.3353C26.6333 15.4287 26.788 15.5193 26.97 15.6087C27.152 15.6987 27.358 15.7913 27.5873 15.886C27.9007 16.0173 28.182 16.1573 28.4313 16.3047C28.6807 16.4527 28.8947 16.62 29.0733 16.8067C29.252 16.9927 29.388 17.2053 29.4827 17.4447C29.5773 17.684 29.6253 17.962 29.6253 18.28C29.6253 18.718 29.542 19.0867 29.3767 19.384C29.2151 19.6772 28.9833 19.9258 28.702 20.1073C28.3988 20.2996 28.0627 20.4343 27.7107 20.5047C27.3333 20.5847 26.9353 20.6247 26.5173 20.6247C26.1059 20.6265 25.6953 20.5899 25.2907 20.5153C24.9406 20.4548 24.6011 20.3441 24.2827 20.1867V18.4333C24.8852 18.9461 25.6495 19.2294 26.4407 19.2333C26.6627 19.2333 26.8567 19.2133 27.022 19.1733C27.188 19.1333 27.326 19.0773 27.4373 19.0067C27.548 18.9347 27.6307 18.8507 27.686 18.7533C27.7472 18.64 27.775 18.5117 27.7662 18.3832C27.7575 18.2547 27.7126 18.1313 27.6367 18.0273C27.5376 17.8963 27.4165 17.7835 27.2787 17.694C27.1078 17.5807 26.9278 17.4817 26.7407 17.398C26.5188 17.2967 26.295 17.1998 26.0693 17.1073C25.4573 16.852 25.0013 16.5393 24.7007 16.1707C24.4007 15.802 24.25 15.356 24.25 14.834C24.25 14.4247 24.332 14.0733 24.496 13.7793C24.66 13.4853 24.8827 13.2433 25.1653 13.0533C25.4643 12.8561 25.7962 12.7141 26.1453 12.634C26.532 12.5428 26.9281 12.4979 27.3253 12.5ZM17.25 12.6253H23.6253V14.0693H21.3373V20.5H19.526V14.0693H17.25V12.6253Z" fill="white"/>
</g>
<defs>
<clipPath id="clip0_220_274">
<rect width="126.5" height="28" fill="white"/>
</clipPath>
</defs>
</svg>
