<svg width="87" height="28" viewBox="0 0 87 28" fill="none" xmlns="http://www.w3.org/2000/svg">
<g clip-path="url(#clip0_220_234)">
<path d="M72.25 0H14C6.26801 0 0 6.26801 0 14C0 21.732 6.26801 28 14 28H72.25C79.982 28 86.25 21.732 86.25 14C86.25 6.26801 79.982 0 72.25 0Z" fill="#20232A"/>
<path d="M42.4358 10.7273H43.9735V15.4503C43.9735 15.9806 43.8468 16.4446 43.5935 16.8423C43.3425 17.2401 42.991 17.5502 42.5388 17.7727C42.0866 17.9929 41.5599 18.103 40.9585 18.103C40.3548 18.103 39.8269 17.9929 39.3747 17.7727C38.9226 17.5502 38.571 17.2401 38.32 16.8423C38.0691 16.4446 37.9436 15.9806 37.9436 15.4503V10.7273H39.4813V15.3189C39.4813 15.5959 39.5416 15.8421 39.6624 16.0575C39.7855 16.273 39.9583 16.4422 40.1808 16.5653C40.4034 16.6884 40.6626 16.75 40.9585 16.75C41.2568 16.75 41.5161 16.6884 41.7362 16.5653C41.9588 16.4422 42.1304 16.273 42.2512 16.0575C42.3743 15.8421 42.4358 15.5959 42.4358 15.3189V10.7273ZM51.3216 10.7273V18H49.9935L46.8295 13.4226H46.7762V18H45.2385V10.7273H46.588L49.7272 15.3011H49.7911V10.7273H51.3216ZM54.1297 10.7273V18H52.5921V10.7273H54.1297ZM55.1178 11.995V10.7273H61.0908V11.995H58.8643V18H57.3444V11.995H55.1178ZM61.6483 10.7273H63.3706L65.029 13.8594H65.1001L66.7584 10.7273H68.4807L65.828 15.429V18H64.301V15.429L61.6483 10.7273Z" fill="white"/>
<path d="M20.612 8.8626L23.1155 10.3245C23.2055 10.3759 23.2087 10.5182 23.1155 10.5695L20.1407 12.3079C20.0983 12.3331 20.05 12.3464 20.0008 12.3464C19.9516 12.3464 19.9033 12.3331 19.8609 12.3079L16.8862 10.5695C16.7946 10.5199 16.7929 10.3742 16.8862 10.3245L19.388 8.86253V6L13 9.7318V17.1953L15.4495 15.7649V12.8411C15.4478 12.7367 15.5689 12.6623 15.659 12.7185L18.6337 14.4569C18.6763 14.4817 18.7118 14.5174 18.7365 14.5604C18.7612 14.6034 18.7743 14.6522 18.7744 14.702V18.1771C18.7761 18.2815 18.655 18.3559 18.565 18.2997L16.0615 16.8377L13.612 18.2682L20 22L26.388 18.2682L23.9385 16.8377L21.435 18.2997C21.3467 18.3543 21.2223 18.2831 21.2256 18.1771V14.702C21.2256 14.5977 21.2829 14.5049 21.3663 14.4569L24.3411 12.7185C24.4293 12.6639 24.5537 12.7335 24.5505 12.8411V15.7649L27 17.1953V9.7318L20.612 6V8.8626Z" fill="white"/>
</g>
<defs>
<clipPath id="clip0_220_234">
<rect width="86.25" height="28" fill="white"/>
</clipPath>
</defs>
</svg>
