<svg width="94" height="28" viewBox="0 0 94 28" fill="none" xmlns="http://www.w3.org/2000/svg">
<g clip-path="url(#clip0_220_269)">
<path d="M79.5 0H14C6.26801 0 0 6.26801 0 14C0 21.732 6.26802 28 14 28H79.5C87.232 28 93.5 21.732 93.5 14C93.5 6.26801 87.232 0 79.5 0Z" fill="black"/>
<path d="M39.2048 10.7273L40.9626 16.2528H41.0301L42.7915 10.7273H44.496L41.9889 18H40.0074L37.4967 10.7273H39.2048ZM45.3714 18V10.7273H50.2719V11.995H46.909V13.728H50.0198V14.9957H46.909V16.7322H50.2861V18H45.3714ZM51.4944 18V10.7273H54.3637C54.913 10.7273 55.3817 10.8255 55.77 11.022C56.1606 11.2161 56.4577 11.492 56.6613 11.8494C56.8673 12.2045 56.9703 12.6224 56.9703 13.103C56.9703 13.5859 56.8661 14.0014 56.6578 14.3494C56.4494 14.6951 56.1476 14.9602 55.7522 15.1449C55.3592 15.3295 54.8834 15.4219 54.3247 15.4219H52.4035V14.1861H54.0761C54.3696 14.1861 54.6135 14.1458 54.8076 14.0653C55.0017 13.9848 55.1462 13.8641 55.2409 13.7031C55.3379 13.5421 55.3865 13.3421 55.3865 13.103C55.3865 12.8615 55.3379 12.6579 55.2409 12.4922C55.1462 12.3265 55.0006 12.201 54.8041 12.1158C54.6099 12.0282 54.3649 11.9844 54.069 11.9844H53.032V18H51.4944ZM55.422 14.6903L57.2295 18H55.532L53.7636 14.6903H55.422ZM64.4738 13.2734H62.9184C62.89 13.0722 62.832 12.8935 62.7444 12.7372C62.6568 12.5786 62.5444 12.4437 62.407 12.3324C62.2697 12.2211 62.1111 12.1359 61.9312 12.0767C61.7536 12.0175 61.5607 11.9879 61.3524 11.9879C60.9759 11.9879 60.6481 12.0814 60.3687 12.2685C60.0893 12.4531 59.8727 12.723 59.7188 13.0781C59.565 13.4309 59.488 13.8594 59.488 14.3636C59.488 14.8821 59.565 15.3177 59.7188 15.6705C59.8751 16.0232 60.0929 16.2895 60.3722 16.4695C60.6516 16.6494 60.9748 16.7393 61.3417 16.7393C61.5477 16.7393 61.7383 16.7121 61.9134 16.6577C62.091 16.6032 62.2484 16.5239 62.3857 16.4197C62.5231 16.3132 62.6367 16.1842 62.7267 16.0327C62.819 15.8812 62.8829 15.7083 62.9184 15.5142L64.4738 15.5213C64.4336 15.8551 64.3329 16.1771 64.172 16.4872C64.0133 16.795 63.7991 17.0708 63.5292 17.3146C63.2617 17.5561 62.9421 17.7479 62.5704 17.8899C62.2011 18.0296 61.7832 18.0994 61.3169 18.0994C60.6682 18.0994 60.0882 17.9527 59.5768 17.6591C59.0678 17.3655 58.6653 16.9406 58.3694 16.3842C58.0758 15.8279 57.9291 15.1544 57.9291 14.3636C57.9291 13.5705 58.0782 12.8958 58.3765 12.3395C58.6748 11.7831 59.0796 11.3594 59.591 11.0682C60.1024 10.7746 60.6776 10.6278 61.3169 10.6278C61.7383 10.6278 62.1289 10.687 62.4887 10.8054C62.8509 10.9238 63.1717 11.0966 63.4511 11.3239C63.7304 11.5488 63.9577 11.8246 64.1329 12.1513C64.3105 12.478 64.4241 12.852 64.4738 13.2734ZM65.5764 18V10.7273H70.477V11.995H67.1141V13.728H70.2249V14.9957H67.1141V16.7322H70.4912V18H65.5764ZM71.6995 18V10.7273H73.2371V16.7322H76.355V18H71.6995Z" fill="white"/>
<path d="M31 22H13L22 6L31 22Z" fill="white"/>
</g>
<defs>
<clipPath id="clip0_220_269">
<rect width="93.5" height="28" fill="white"/>
</clipPath>
</defs>
</svg>
